<svg width="48" height="49" viewBox="0 0 48 49" fill="none" xmlns="http://www.w3.org/2000/svg">
<path opacity="0.3" fill-rule="evenodd" clip-rule="evenodd" d="M24 34.9678C32.8366 34.9678 40 27.8043 40 18.9678C40 10.1312 32.8366 2.96777 24 2.96777C15.1634 2.96777 8 10.1312 8 18.9678C8 27.8043 15.1634 34.9678 24 34.9678Z" fill="#00B586"/>
<path opacity="0.3" fill-rule="evenodd" clip-rule="evenodd" d="M13.0762 18.9678L21.1359 39.6927L23.9517 38.5976L26.7489 39.7026L34.9404 18.9678H13.0762ZM18.9236 22.9678H29.0593L23.9515 35.8969L18.9236 22.9678Z" fill="#00B586"/>
<path opacity="0.3" d="M20 44.9678H28V46.9678C28 48.0723 27.1046 48.9678 26 48.9678H22C20.8954 48.9678 20 48.0723 20 46.9678V44.9678Z" fill="#00B586"/>
<path fill-rule="evenodd" clip-rule="evenodd" d="M16 34.9678C16 33.8632 16.8954 32.9678 18 32.9678H30C31.1046 32.9678 32 33.8632 32 34.9678C32 36.0723 31.1046 36.9678 30 36.9678C31.1046 36.9678 32 37.8632 32 38.9678C32 40.0723 31.1046 40.9678 30 40.9678C31.1046 40.9678 32 41.8632 32 42.9678C32 44.0723 31.1046 44.9678 30 44.9678H18C16.8954 44.9678 16 44.0723 16 42.9678C16 41.8632 16.8954 40.9678 18 40.9678C16.8954 40.9678 16 40.0723 16 38.9678C16 37.8632 16.8954 36.9678 18 36.9678C16.8954 36.9678 16 36.0723 16 34.9678Z" fill="#00B586"/>
</svg>
