<svg width="49" height="49" viewBox="0 0 49 49" fill="none" xmlns="http://www.w3.org/2000/svg">
<path opacity="0.3" fill-rule="evenodd" clip-rule="evenodd" d="M24.5 34.9678C33.3366 34.9678 40.5 27.8043 40.5 18.9678C40.5 10.1312 33.3366 2.96777 24.5 2.96777C15.6634 2.96777 8.5 10.1312 8.5 18.9678C8.5 27.8043 15.6634 34.9678 24.5 34.9678Z" fill="#00B586"/>
<path opacity="0.3" fill-rule="evenodd" clip-rule="evenodd" d="M13.5762 18.9678L21.6359 39.6927L24.4517 38.5976L27.2489 39.7026L35.4404 18.9678H13.5762ZM19.4236 22.9678H29.5593L24.4515 35.8969L19.4236 22.9678Z" fill="#00B586"/>
<path opacity="0.3" d="M20.5 44.9678H28.5V46.9678C28.5 48.0723 27.6046 48.9678 26.5 48.9678H22.5C21.3954 48.9678 20.5 48.0723 20.5 46.9678V44.9678Z" fill="#00B586"/>
<path fill-rule="evenodd" clip-rule="evenodd" d="M16.5 34.9678C16.5 33.8632 17.3954 32.9678 18.5 32.9678H30.5C31.6046 32.9678 32.5 33.8632 32.5 34.9678C32.5 36.0723 31.6046 36.9678 30.5 36.9678C31.6046 36.9678 32.5 37.8632 32.5 38.9678C32.5 40.0723 31.6046 40.9678 30.5 40.9678C31.6046 40.9678 32.5 41.8632 32.5 42.9678C32.5 44.0723 31.6046 44.9678 30.5 44.9678H18.5C17.3954 44.9678 16.5 44.0723 16.5 42.9678C16.5 41.8632 17.3954 40.9678 18.5 40.9678C17.3954 40.9678 16.5 40.0723 16.5 38.9678C16.5 37.8632 17.3954 36.9678 18.5 36.9678C17.3954 36.9678 16.5 36.0723 16.5 34.9678Z" fill="#00B586"/>
</svg>
