<svg width="48" height="49" viewBox="0 0 48 49" fill="none" xmlns="http://www.w3.org/2000/svg">
<path fill-rule="evenodd" clip-rule="evenodd" d="M42 24.9674C42 34.9085 33.9411 42.9674 24 42.9674C14.0589 42.9674 6 34.9085 6 24.9674C6 15.0263 14.0589 6.96741 24 6.96741C33.9411 6.96741 42 15.0263 42 24.9674ZM27.8887 15.9725C28.7605 15.3969 29.9153 16.0636 29.8527 17.1064L29.2388 27.335C29.2149 27.7333 29.0048 28.0971 28.6718 28.317L20.1206 33.963C19.2488 34.5386 18.094 33.8719 18.1566 32.8291L18.7705 22.6005C18.7944 22.2022 19.0045 21.8383 19.3375 21.6185L27.8887 15.9725Z" fill="black"/>
</svg>
