<svg width="152" height="58" viewBox="0 0 152 58" fill="none" xmlns="http://www.w3.org/2000/svg">
<g filter="url(#filter0_d_502_512663)">
<path d="M64.5401 30.541C64.5401 36.8416 59.5913 41.4845 53.5181 41.4845C47.4448 41.4845 42.4961 36.8416 42.4961 30.541C42.4961 24.1959 47.4448 19.5974 53.5181 19.5974C59.5913 19.5974 64.5401 24.1959 64.5401 30.541ZM59.7152 30.541C59.7152 26.6037 56.847 23.9097 53.5181 23.9097C50.1892 23.9097 47.321 26.6037 47.321 30.541C47.321 34.4388 50.1892 37.1722 53.5181 37.1722C56.847 37.1722 59.7152 34.4339 59.7152 30.541Z" fill="#EA4335"/>
<path d="M88.9736 30.541C88.9736 36.8416 84.0249 41.4845 77.9517 41.4845C71.8784 41.4845 66.9297 36.8416 66.9297 30.541C66.9297 24.2008 71.8784 19.5974 77.9517 19.5974C84.0249 19.5974 88.9736 24.1959 88.9736 30.541ZM84.1487 30.541C84.1487 26.6037 81.2806 23.9097 77.9517 23.9097C74.6228 23.9097 71.7546 26.6037 71.7546 30.541C71.7546 34.4388 74.6228 37.1722 77.9517 37.1722C81.2806 37.1722 84.1487 34.4339 84.1487 30.541Z" fill="#FBBC05"/>
<path d="M111.924 20.2586V39.9056C111.924 47.9875 107.139 51.2883 101.482 51.2883C96.1568 51.2883 92.9518 47.7408 91.7431 44.8396L95.9438 43.0979C96.6918 44.8791 98.5247 46.981 101.477 46.981C105.098 46.981 107.342 44.7557 107.342 40.5668V38.9929H107.174C106.094 40.3201 104.013 41.4796 101.388 41.4796C95.8943 41.4796 90.8613 36.7134 90.8613 30.5804C90.8613 24.4031 95.8943 19.5974 101.388 19.5974C104.008 19.5974 106.089 20.7569 107.174 22.0447H107.342V20.2635H111.924V20.2586ZM107.684 30.5804C107.684 26.727 105.103 23.9097 101.819 23.9097C98.49 23.9097 95.7011 26.727 95.7011 30.5804C95.7011 34.3944 98.49 37.1722 101.819 37.1722C105.103 37.1722 107.684 34.3944 107.684 30.5804Z" fill="#4285F4"/>
<path d="M120.879 8.74292V40.8137H116.173V8.74292H120.879Z" fill="#34A853"/>
<path d="M140.566 34.1428L144.311 36.6295C143.103 38.4107 140.19 41.4796 135.157 41.4796C128.915 41.4796 124.254 36.6739 124.254 30.5361C124.254 24.0282 128.955 19.5925 134.617 19.5925C140.319 19.5925 143.108 24.112 144.019 26.5544L144.519 27.7977L129.832 33.8566C130.956 36.0523 132.705 37.1723 135.157 37.1723C137.614 37.1723 139.318 35.9684 140.566 34.1428ZM129.039 30.2055L138.857 26.1448C138.317 24.7781 136.693 23.8259 134.781 23.8259C132.328 23.8259 128.915 25.982 129.039 30.2055Z" fill="#EA4335"/>
<path d="M24.6822 27.6942V23.0513H40.3904C40.5439 23.8605 40.6232 24.8177 40.6232 25.8538C40.6232 29.3372 39.6671 33.6446 36.5859 36.7135C33.5889 39.8219 29.7597 41.4797 24.6871 41.4797C15.285 41.4797 7.37891 33.8518 7.37891 24.4871C7.37891 15.1224 15.285 7.49451 24.6871 7.49451C29.8885 7.49451 33.5939 9.5273 36.3779 12.1768L33.0886 15.453C31.0923 13.588 28.3875 12.1374 24.6822 12.1374C17.8163 12.1374 12.4465 17.6486 12.4465 24.4871C12.4465 31.3256 17.8163 36.8368 24.6822 36.8368C29.1355 36.8368 31.6718 35.0557 33.2967 33.4373C34.6143 32.1249 35.4812 30.25 35.823 27.6893L24.6822 27.6942Z" fill="#4285F4"/>
</g>
<defs>
<filter id="filter0_d_502_512663" x="0.700335" y="0.815935" width="150.498" height="57.151" filterUnits="userSpaceOnUse" color-interpolation-filters="sRGB">
<feFlood flood-opacity="0" result="BackgroundImageFix"/>
<feColorMatrix in="SourceAlpha" type="matrix" values="0 0 0 0 0 0 0 0 0 0 0 0 0 0 0 0 0 0 127 0" result="hardAlpha"/>
<feOffset/>
<feGaussianBlur stdDeviation="3.33929"/>
<feColorMatrix type="matrix" values="0 0 0 0 1 0 0 0 0 1 0 0 0 0 1 0 0 0 1 0"/>
<feBlend mode="normal" in2="BackgroundImageFix" result="effect1_dropShadow_502_512663"/>
<feBlend mode="normal" in="SourceGraphic" in2="effect1_dropShadow_502_512663" result="shape"/>
</filter>
</defs>
</svg>
