<svg width="25" height="26" viewBox="0 0 25 26" fill="none" xmlns="http://www.w3.org/2000/svg">
<path d="M21.0838 5.86946C19.5048 5.14497 17.8116 4.6112 16.0413 4.30548C16.0091 4.29958 15.9769 4.31433 15.9603 4.34382C15.7425 4.73112 15.5013 5.23639 15.3324 5.63352C13.4283 5.34846 11.5339 5.34846 9.66886 5.63352C9.49992 5.22756 9.24995 4.73112 9.03122 4.34382C9.01461 4.31531 8.9824 4.30057 8.95016 4.30548C7.1808 4.61022 5.48761 5.14399 3.90768 5.86946C3.89401 5.87536 3.88228 5.8852 3.8745 5.89797C0.662878 10.6961 -0.21692 15.3762 0.21468 19.9984C0.216633 20.021 0.229326 20.0426 0.246903 20.0564C2.36584 21.6125 4.41839 22.5571 6.43283 23.1833C6.46507 23.1932 6.49923 23.1814 6.51975 23.1548C6.99626 22.5041 7.42103 21.8179 7.78523 21.0964C7.80673 21.0541 7.78621 21.004 7.74228 20.9873C7.06852 20.7317 6.42697 20.4201 5.80984 20.0662C5.76103 20.0377 5.75712 19.9679 5.80202 19.9344C5.93189 19.8371 6.06179 19.7359 6.1858 19.6336C6.20823 19.615 6.2395 19.611 6.26587 19.6228C10.3201 21.4739 14.7094 21.4739 18.7158 19.6228C18.7422 19.6101 18.7735 19.614 18.7969 19.6327C18.9209 19.7349 19.0508 19.8371 19.1816 19.9344C19.2265 19.9679 19.2236 20.0377 19.1748 20.0662C18.5577 20.4269 17.9161 20.7317 17.2414 20.9863C17.1974 21.003 17.1779 21.0541 17.1994 21.0964C17.5714 21.8169 17.9962 22.5031 18.4639 23.1538C18.4834 23.1814 18.5186 23.1932 18.5508 23.1833C20.575 22.5571 22.6276 21.6125 24.7465 20.0564C24.7651 20.0426 24.7768 20.022 24.7787 19.9993C25.2953 14.6556 23.9136 10.0139 21.116 5.89894C21.1091 5.8852 21.0975 5.87536 21.0838 5.86946ZM8.39067 17.184C7.17006 17.184 6.1643 16.0633 6.1643 14.6871C6.1643 13.3109 7.15055 12.1903 8.39067 12.1903C9.64053 12.1903 10.6365 13.3207 10.617 14.6871C10.617 16.0633 9.63076 17.184 8.39067 17.184ZM16.6223 17.184C15.4017 17.184 14.396 16.0633 14.396 14.6871C14.396 13.3109 15.3822 12.1903 16.6223 12.1903C17.8722 12.1903 18.8682 13.3207 18.8487 14.6871C18.8487 16.0633 17.8722 17.184 16.6223 17.184Z" fill="black"/>
</svg>
