<svg width="25" height="26" viewBox="0 0 25 26" fill="none" xmlns="http://www.w3.org/2000/svg">
<path d="M21.0848 5.86946C19.5058 5.14497 17.8126 4.6112 16.0423 4.30548C16.01 4.29958 15.9778 4.31433 15.9612 4.34382C15.7435 4.73112 15.5023 5.23639 15.3334 5.63352C13.4292 5.34846 11.5349 5.34846 9.66984 5.63352C9.50089 5.22756 9.25093 4.73112 9.03219 4.34382C9.01558 4.31531 8.98338 4.30057 8.95114 4.30548C7.18178 4.61022 5.48859 5.14399 3.90866 5.86946C3.89498 5.87536 3.88326 5.8852 3.87548 5.89797C0.663855 10.6961 -0.215943 15.3762 0.215656 19.9984C0.217609 20.021 0.230303 20.0426 0.24788 20.0564C2.36682 21.6125 4.41937 22.5571 6.43381 23.1833C6.46605 23.1932 6.50021 23.1814 6.52072 23.1548C6.99724 22.5041 7.42201 21.8179 7.78621 21.0964C7.8077 21.0541 7.78719 21.004 7.74326 20.9873C7.0695 20.7317 6.42795 20.4201 5.81082 20.0662C5.762 20.0377 5.75809 19.9679 5.803 19.9344C5.93287 19.8371 6.06277 19.7359 6.18677 19.6336C6.20921 19.615 6.24047 19.611 6.26685 19.6228C10.3211 21.4739 14.7104 21.4739 18.7168 19.6228C18.7432 19.6101 18.7744 19.614 18.7979 19.6327C18.9219 19.7349 19.0518 19.8371 19.1826 19.9344C19.2275 19.9679 19.2246 20.0377 19.1758 20.0662C18.5586 20.4269 17.9171 20.7317 17.2423 20.9863C17.1984 21.003 17.1789 21.0541 17.2004 21.0964C17.5724 21.8169 17.9972 22.5031 18.4649 23.1538C18.4844 23.1814 18.5196 23.1932 18.5518 23.1833C20.576 22.5571 22.6285 21.6125 24.7475 20.0564C24.766 20.0426 24.7778 20.022 24.7797 19.9993C25.2963 14.6556 23.9145 10.0139 21.117 5.89894C21.1101 5.8852 21.0984 5.87536 21.0848 5.86946ZM8.39165 17.184C7.17103 17.184 6.16528 16.0633 6.16528 14.6871C6.16528 13.3109 7.15153 12.1903 8.39165 12.1903C9.64151 12.1903 10.6375 13.3207 10.618 14.6871C10.618 16.0633 9.63174 17.184 8.39165 17.184ZM16.6233 17.184C15.4027 17.184 14.3969 16.0633 14.3969 14.6871C14.3969 13.3109 15.3831 12.1903 16.6233 12.1903C17.8732 12.1903 18.8691 13.3207 18.8496 14.6871C18.8496 16.0633 17.8732 17.184 16.6233 17.184Z" fill="black"/>
</svg>
