<svg width="40" height="41" viewBox="0 0 40 41" fill="none" xmlns="http://www.w3.org/2000/svg">
<path opacity="0.3" fill-rule="evenodd" clip-rule="evenodd" d="M20.002 35.9675C28.2862 35.9675 35.0019 29.2518 35.0019 20.9675C35.0019 12.6833 28.2862 5.96753 20.002 5.96753C11.7177 5.96753 5.00195 12.6833 5.00195 20.9675C5.00195 29.2518 11.7177 35.9675 20.002 35.9675Z" fill="black"/>
<path opacity="0.3" fill-rule="evenodd" clip-rule="evenodd" d="M19.5635 35.9614C11.4829 35.7284 5.00391 29.1047 5.00391 20.9677C5.00391 20.8291 5.00579 20.691 5.00952 20.5533C6.10779 20.6583 8.09785 20.8967 8.19162 21.6684C8.3214 22.7359 8.19162 24.0704 9.10065 24.4707C10.0097 24.871 10.2694 22.8693 11.0485 23.4032C11.8275 23.937 13.9054 24.4509 13.9054 25.3948C13.9054 26.3384 13.5158 27.8068 13.9054 28.0738C14.2949 28.3407 15.8522 30.2088 15.8526 30.4758C15.8532 30.7427 16.4015 32.1 16.2379 32.6188C16.1023 33.049 15.4182 34.3847 14.7549 34.992C16.2592 35.5712 17.8765 35.9107 19.5635 35.9612L19.5635 35.9614ZM13.8122 7.30298C15.7007 6.44538 17.7984 5.96777 20.0077 5.96777C25.8601 5.96777 30.9297 9.3194 33.4018 14.2079C33.4571 15.508 33.4474 16.62 33.7346 17.0223C35.1963 19.0679 30.1735 20.475 30.9366 23.5687C31.2726 24.9336 27.5956 24.5006 26.6976 25.7784C25.799 27.0557 23.6034 26.1975 23.0944 25.9519C22.5853 25.7064 20.6354 26.5247 20.8059 25.1336C20.9753 23.7422 22.1615 23.6605 23.4336 23.0877C24.7051 22.5156 26.5392 20.6131 25.638 20.3644C21.3949 19.1948 19.9473 15.0986 19.9473 15.0986C19.6928 15.0495 19.7566 12.2029 18.6549 12.1212C17.5523 12.0391 16.9585 12.4485 15.3483 12.1212C13.7371 11.794 14.0768 10.7302 13.8222 8.4387C13.7652 7.9247 13.768 7.56306 13.8122 7.30298ZM35.0071 20.7631C35.008 20.8313 35.0085 20.8996 35.0085 20.9681C35.0085 29.2026 28.3732 35.8873 20.1577 35.9673C28.2922 35.8853 34.898 29.1155 35.0071 20.7631Z" fill="black"/>
</svg>
