<svg width="49" height="49" viewBox="0 0 49 49" fill="none" xmlns="http://www.w3.org/2000/svg">
<path opacity="0.3" fill-rule="evenodd" clip-rule="evenodd" d="M24.502 42.968C34.4431 42.968 42.502 34.9091 42.502 24.968C42.502 15.0269 34.4431 6.96802 24.502 6.96802C14.5608 6.96802 6.50195 15.0269 6.50195 24.968C6.50195 34.9091 14.5608 42.968 24.502 42.968Z" fill="black"/>
<path opacity="0.3" fill-rule="evenodd" clip-rule="evenodd" d="M23.9715 42.9601C14.2748 42.6805 6.5 34.7321 6.5 24.9677C6.5 24.8014 6.50226 24.6356 6.50674 24.4704C7.82466 24.5964 10.2127 24.8825 10.3253 25.8085C10.481 27.0896 10.3253 28.6909 11.4161 29.1713C12.5069 29.6516 12.8186 27.2496 13.7535 27.8902C14.6884 28.5309 17.1817 29.1476 17.1817 30.2802C17.1817 31.4125 16.7143 33.1747 17.1817 33.495C17.6492 33.8153 19.5179 36.057 19.5184 36.3774C19.5191 36.6977 20.1772 38.3264 19.9808 38.949C19.8181 39.4652 18.9972 41.068 18.2012 41.7969C20.0063 42.4919 21.9472 42.8993 23.9715 42.9598L23.9715 42.9601ZM17.068 8.57026C19.3342 7.54115 21.8515 6.96802 24.5025 6.96802C31.5254 6.96802 37.609 10.99 40.5754 16.8562C40.6419 18.4163 40.6302 19.7507 40.9748 20.2335C42.7289 22.6881 36.7016 24.3767 37.6172 28.0891C38.0205 29.727 33.6081 29.2074 32.5305 30.7408C31.4522 32.2735 28.8175 31.2436 28.2066 30.949C27.5957 30.6544 25.2558 31.6363 25.4604 29.9671C25.6637 28.2973 27.0871 28.1992 28.6137 27.5119C30.1395 26.8254 32.3404 24.5424 31.2589 24.244C26.1672 22.8405 24.4301 17.9251 24.4301 17.9251C24.1246 17.866 24.2013 14.4502 22.8793 14.3522C21.556 14.2536 20.8435 14.7448 18.9113 14.3522C16.9778 13.9595 17.3854 12.6829 17.08 9.93313C17.0116 9.31633 17.0149 8.88236 17.068 8.57026ZM42.494 24.7223C42.495 24.8042 42.4956 24.8861 42.4956 24.9682C42.4956 34.8496 34.5333 42.8713 24.6746 42.9674C34.4361 42.8689 42.363 34.7451 42.494 24.7223V24.7223Z" fill="black"/>
</svg>
