<svg width="149" height="41" viewBox="0 0 149 41" fill="none" xmlns="http://www.w3.org/2000/svg">
<path d="M48.4673 35.2827C46.4754 35.2827 44.6879 34.8194 43.1047 33.8929C41.5473 32.9925 40.265 31.6845 39.3957 30.1097C38.5224 28.5017 38.0641 26.7012 38.0625 24.8713C38.0609 23.0415 38.5159 21.2402 39.3864 19.6307C40.2534 18.0517 41.5361 16.7401 43.0954 15.8382C44.6841 14.9082 46.4809 14.4432 48.4858 14.4432C50.5031 14.4432 52.3096 14.9096 53.9051 15.8423C55.4704 16.7455 56.7614 18.0561 57.6409 19.6348C58.5352 21.2317 58.9968 23.0344 58.9803 24.8645C58.9997 26.702 58.5402 28.5129 57.6471 30.1189C56.7704 31.6949 55.4783 33.0002 53.9113 33.8929C52.3123 34.8194 50.4976 35.2827 48.4673 35.2827ZM48.524 29.9108C49.3751 29.9261 50.2136 29.7034 50.9451 29.2679C51.6538 28.8367 52.2296 28.2181 52.609 27.4804C53.0241 26.6704 53.2322 25.7703 53.2148 24.8604C53.2321 23.9508 53.024 23.051 52.609 22.2414C52.2296 21.5037 51.6538 20.8851 50.9451 20.4539C50.2136 20.0183 49.3751 19.7957 48.524 19.811C47.67 19.7965 46.8287 20.0191 46.0935 20.4539C45.3817 20.8812 44.805 21.5008 44.4296 22.2414C44.0206 23.0528 43.8158 23.9518 43.8331 24.8604C43.8166 25.7725 44.0212 26.675 44.4296 27.4907C44.8014 28.234 45.379 28.8548 46.0935 29.2793C46.8309 29.7076 47.6714 29.926 48.524 29.9108ZM70.3659 35.2827C68.5245 35.2827 66.8977 34.9551 65.4855 34.2998C64.0733 33.6446 62.9561 32.5892 62.134 31.1338C61.3139 29.6783 60.9042 27.809 60.9049 25.5259V17.7504C60.9046 17.3974 60.9739 17.0477 61.1088 16.7215C61.2437 16.3953 61.4416 16.0988 61.6911 15.8491C61.9407 15.5994 62.237 15.4013 62.5631 15.2661C62.8892 15.1309 63.2388 15.0614 63.5918 15.0614H66.6919V25.3333C66.6919 26.8224 66.9914 27.9574 67.5903 28.7384C68.1893 29.5193 69.1131 29.9101 70.3618 29.9108C71.2066 29.9108 71.9031 29.7281 72.4512 29.3627C73.0105 28.9841 73.4348 28.4375 73.6628 27.8018C73.9204 27.128 74.0495 26.3038 74.0502 25.3292V17.7504C74.0499 17.3974 74.1192 17.0477 74.2542 16.7215C74.3891 16.3953 74.5869 16.0988 74.8365 15.8491C75.086 15.5994 75.3823 15.4013 75.7085 15.2661C76.0346 15.1309 76.3842 15.0614 76.7372 15.0614H79.8167V25.5228C79.8167 27.8046 79.407 29.6738 78.5876 31.1307C77.7682 32.5875 76.652 33.6439 75.2392 34.2998C73.8263 34.9551 72.2005 35.2827 70.3618 35.2827H70.3659ZM94.0943 35.3013C93.2893 35.303 92.4892 35.1753 91.7247 34.9231C90.9758 34.6783 90.2729 34.3106 89.6446 33.8352C89.0334 33.377 88.5055 32.8173 88.0837 32.1805V34.6532H84.1233C83.6967 34.6532 83.2877 34.4838 82.9861 34.1822C82.6844 33.8805 82.515 33.4715 82.515 33.0449V10.7022C82.515 9.9877 82.7989 9.30242 83.3041 8.79717C83.8094 8.29191 84.4947 8.00806 85.2092 8.00806H88.3402V14.9305L88.2083 17.4032C88.6207 16.7773 89.1445 16.2325 89.7538 15.796C90.3634 15.3554 91.0405 15.0168 91.7587 14.7935C92.4838 14.566 93.2396 14.451 93.9996 14.4525C95.8286 14.4525 97.4586 14.9192 98.8893 15.8526C100.325 16.7905 101.481 18.0972 102.238 19.6358C103.045 21.2561 103.457 23.0449 103.438 24.8552C103.438 26.7599 103.038 28.5096 102.238 30.1045C101.485 31.6451 100.331 32.9549 98.8985 33.897C97.4713 34.8338 95.8685 35.3019 94.0902 35.3013H94.0943ZM92.994 29.9489C93.8138 29.9549 94.6213 29.7498 95.3389 29.3534C96.0663 28.9468 96.6606 28.3386 97.0502 27.602C97.4726 26.8327 97.6838 25.9181 97.6838 24.8583C97.6838 23.828 97.4757 22.9296 97.0595 22.1631C96.6702 21.4275 96.0799 20.8176 95.3575 20.4044C94.6255 19.9902 93.7969 19.7769 92.9559 19.7862C92.1214 19.7794 91.303 20.0156 90.6007 20.4662C89.8874 20.9214 89.3042 21.5536 88.9079 22.3012C88.4945 23.1031 88.2803 23.9929 88.2835 24.8951C88.2868 25.7973 88.5073 26.6855 88.9264 27.4845C89.3313 28.2276 89.9252 28.8506 90.648 29.2906C91.3535 29.7241 92.166 29.9521 92.994 29.9489ZM117.062 35.3013C116.257 35.303 115.457 35.1753 114.693 34.9231C113.944 34.6783 113.241 34.3106 112.613 33.8352C112.001 33.377 111.474 32.8173 111.052 32.1805V34.6532H107.095C106.884 34.6533 106.675 34.6118 106.48 34.5311C106.284 34.4503 106.107 34.3319 105.958 34.1825C105.808 34.0332 105.69 33.8558 105.609 33.6606C105.528 33.4654 105.486 33.2562 105.486 33.0449V10.7022C105.486 9.9877 105.77 9.30242 106.275 8.79717C106.781 8.29191 107.466 8.00806 108.18 8.00806H111.311V14.9305L111.18 17.4032C111.592 16.7773 112.116 16.2325 112.725 15.796C113.335 15.3556 114.012 15.0171 114.73 14.7935C115.455 14.566 116.211 14.451 116.971 14.4525C118.8 14.4525 120.43 14.9192 121.86 15.8526C123.296 16.7902 124.453 18.097 125.209 19.6358C126.016 21.2561 126.428 23.0449 126.409 24.8552C126.409 26.7599 126.009 28.5096 125.209 30.1045C124.456 31.6453 123.303 32.9552 121.87 33.897C120.442 34.8338 118.839 35.3019 117.062 35.3013ZM115.965 29.9489C116.785 29.9551 117.593 29.75 118.31 29.3534C119.038 28.9467 119.632 28.3385 120.022 27.602C120.443 26.8327 120.655 25.9181 120.656 24.8583C120.656 23.828 120.448 22.9296 120.032 22.1631C119.642 21.4279 119.052 20.8182 118.33 20.4044C117.597 19.9902 116.768 19.7769 115.927 19.7862C115.093 19.7794 114.274 20.0156 113.572 20.4662C112.859 20.9214 112.275 21.5536 111.879 22.3012C111.465 23.1031 111.251 23.9929 111.255 24.8952C111.258 25.7975 111.479 26.6857 111.899 27.4845C112.303 28.2275 112.897 28.8505 113.619 29.2906C114.325 29.7239 115.137 29.9519 115.965 29.9489ZM137.1 35.3013C135.448 35.3211 133.83 34.8327 132.464 33.9021C131.09 32.9687 130.015 31.7045 129.239 30.1097C128.463 28.5148 128.075 26.765 128.076 24.8604C128.058 23.0499 128.459 21.2597 129.25 19.6307C130.031 18.0358 131.105 16.7716 132.474 15.8382C133.824 14.9122 135.427 14.4251 137.064 14.4432C137.97 14.4353 138.873 14.5596 139.743 14.812C140.531 15.039 141.273 15.4005 141.938 15.8804C142.565 16.3348 143.091 16.9148 143.483 17.5835V16.6841C143.482 16.4717 143.523 16.2613 143.603 16.0648C143.684 15.8683 143.802 15.6896 143.952 15.5389C144.101 15.3882 144.279 15.2684 144.475 15.1865C144.671 15.1046 144.881 15.062 145.093 15.0614H149V34.6584H145.066C144.64 34.6584 144.231 34.4889 143.929 34.1873C143.628 33.8857 143.458 33.4766 143.458 33.0501V32.1805C143.066 32.8387 142.545 33.4112 141.926 33.864C141.269 34.3439 140.533 34.7058 139.751 34.9334C138.89 35.1845 137.997 35.3084 137.1 35.3013ZM138.519 29.9304C139.366 29.9399 140.199 29.7103 140.922 29.2679C141.644 28.8233 142.229 28.1885 142.614 27.433C143.029 26.6382 143.241 25.7536 143.233 24.8573C143.245 23.9678 143.032 23.0896 142.614 22.3042C142.216 21.5548 141.629 20.9223 140.911 20.4693C140.206 20.0196 139.385 19.7835 138.548 19.7893C137.717 19.7822 136.9 19.9955 136.178 20.4075C135.454 20.8215 134.863 21.4329 134.474 22.1703C134.058 22.9341 133.85 23.8325 133.85 24.8655C133.85 25.926 134.061 26.8406 134.483 27.6092C134.87 28.3418 135.461 28.946 136.185 29.3483C136.901 29.7389 137.706 29.9393 138.521 29.9304H138.519Z" fill="#BA1986"/>
<path fill-rule="evenodd" clip-rule="evenodd" d="M6.25538 29.0239C4.40153 25.9452 3.61414 22.3413 4.01509 18.77C4.41603 15.1987 5.98295 11.8592 8.47332 9.26826C10.9637 6.67732 14.2386 4.97949 17.7913 4.43755C21.0136 3.94601 24.3013 4.43026 27.2351 5.81591C27.7345 6.05177 27.9101 6.66276 27.6441 7.14679L24.4893 12.8885C24.2233 13.3725 23.6169 13.5426 23.1028 13.3408C21.8307 12.8414 20.4435 12.6832 19.0808 12.8911C17.3871 13.1495 15.8258 13.9589 14.6385 15.1941C13.4512 16.4294 12.7042 18.0215 12.513 19.7241C12.3219 21.4267 12.6973 23.1448 13.5811 24.6126C14.4649 26.0803 15.8079 27.2158 17.4021 27.8433C18.9964 28.4708 20.753 28.5554 22.4002 28.0838C24.0473 27.6123 25.4931 26.6109 26.5137 25.2348C26.6769 25.0149 26.8277 24.7873 26.9659 24.5532C28.166 22.5195 29.9602 20.4415 32.3213 20.4045C34.6824 20.3676 36.6816 22.2826 36.1065 24.5729C35.5879 26.6385 34.6672 28.5964 33.3821 30.329C31.2413 33.2155 28.2087 35.3158 24.7538 36.3049C21.2988 37.294 17.6142 37.1167 14.2702 35.8005C10.9262 34.4843 8.10923 32.1025 6.25538 29.0239Z" fill="#BA1986"/>
<path d="M29.359 22.5895C29.5509 21.7191 29.6388 20.8262 29.6188 19.9292C29.5989 19.0388 29.473 18.1571 29.2457 17.3019L34.7058 17.1996C34.7533 17.4572 34.7947 17.7164 34.8299 17.9763C34.9139 18.6004 34.9621 19.2287 34.9745 19.8582V19.8587V19.8597V19.8607V19.8616V19.8626V19.8636V19.8646V19.8655V19.8665V19.8675V19.8684V19.8694V19.8704V19.8714V19.8723V19.8733V19.8743V19.8752V19.8762V19.8772V19.8781V19.8791V19.8801V19.8811V19.882V19.883V19.884V19.8849V19.8859V19.8869V19.8878V19.8888V19.8898V19.8908V19.8917V19.8927V19.8937V19.8946V19.8956V19.8966V19.8976V19.8985V19.8995V19.9005V19.9014V19.9024V19.9034V19.9043V19.9053V19.9063V19.9073V19.9082V19.9092V19.9102V19.9111V19.9121V19.9131V19.914V19.915V19.916V19.917V19.9179V19.9189V19.9199V19.9208V19.9218V19.9228V19.9238V19.9247V19.9257V19.9267V19.9276V19.9286V19.9296V19.9305V19.9315V19.9325V19.9335V19.9344V19.9354V19.9364V19.9373V19.9383V19.9393V19.9403V19.9412V19.9422V19.9432V19.9441V19.9451V19.9461V19.947V19.948V19.949V19.95V19.9509V19.9519V19.9529V19.9538V19.9548V19.9558V19.9568V19.9577V19.9587V19.9597V19.9606V19.9616V19.9626V19.9635V19.9645V19.9655V19.9665V19.9674V19.9684V19.9694V19.9703V19.9713V19.9723V19.9733V19.9742V19.9752V19.9762V19.9771V19.9781V19.9791V19.9801V19.981V19.982V19.983V19.9839V19.9849V19.9859V19.9868V19.9878V19.9888V19.9898V19.9907V19.9917V19.9927V19.9936V19.9946V19.9956V19.9966V19.9975V19.9985V19.9995V20.0004V20.0014V20.0024V20.0034V20.0043V20.0053V20.0063V20.0072V20.0082V20.0092V20.0102V20.0111V20.0121V20.0131V20.014V20.015V20.016V20.0169V20.0179V20.0189V20.0199V20.0208V20.0218V20.0228V20.0237V20.0247V20.0257V20.0267V20.0276V20.0286V20.0296V20.0305V20.0315V20.0325V20.0335V20.0344V20.0354V20.0364V20.0373V20.0383V20.0393V20.0403V20.0412V20.0422V20.0432V20.0441V20.0451V20.0461V20.0471V20.048V20.049V20.05V20.0509V20.0519V20.0529V20.0539V20.0548V20.0558V20.0568V20.0577V20.0587V20.0597V20.0607V20.0616V20.0626V20.0636V20.0645V20.0655V20.0665V20.0675V20.0684V20.0694V20.0704V20.0713V20.0723V20.0733V20.0743V20.0752V20.0762V20.0772V20.0782V20.0791V20.0801V20.0811V20.082V20.083V20.084V20.085V20.0859V20.0869V20.0879V20.0888V20.0898V20.0908V20.0918V20.0927V20.0937V20.0947V20.0956V20.0966V20.0976V20.0986V20.0995V20.1005V20.1015V20.1025V20.1034V20.1044V20.1054V20.1063V20.1073V20.1083V20.1093V20.1102V20.1112V20.1122V20.1131V20.1141V20.1151V20.1161V20.117V20.118V20.119V20.12V20.1209V20.1219V20.1229V20.1238V20.1248V20.1258V20.1268V20.1277V20.1287V20.1297V20.1306V20.1316V20.1326V20.1336V20.1345V20.1355V20.1365V20.1375V20.1384V20.1394V20.1404V20.1413V20.1423V20.1433V20.1443V20.1452V20.1462V20.1472V20.1482V20.1491V20.1501V20.1511V20.152V20.153V20.154V20.155V20.1559V20.1569V20.1579V20.1589V20.1598V20.1608V20.1618V20.1628V20.1637V20.1647V20.1657V20.1666V20.1676V20.1686V20.1696V20.1705V20.1715V20.1725V20.1735V20.1744V20.1754V20.1764V20.1774V20.1783V20.1793V20.1803V20.1812V20.1822V20.1832V20.1842V20.1851V20.1861V20.1871V20.1881V20.189V20.19V20.191V20.192V20.1929V20.1939V20.1949V20.1958V20.1968V20.1978V20.1988V20.1997V20.2007V20.2017V20.2027V20.2036V20.2046V20.2056V20.2066V20.2075V20.2085V20.2095V20.2105V20.2114V20.2124V20.2134V20.2144V20.2153V20.2163V20.2173V20.2182V20.2192V20.2202V20.2212V20.2221V20.2231V20.2241V20.2251V20.226V20.227V20.228V20.229V20.2299V20.2309V20.2319V20.2329V20.2338V20.2348V20.2358V20.2368V20.2377V20.2387V20.2397V20.2407V20.2416V20.2426V20.2436V20.2446V20.2455V20.2465V20.2475V20.2485V20.2494V20.2504V20.2514V20.2524V20.2533V20.2543V20.2553V20.2563V20.2572V20.2582V20.2592V20.2602V20.2611V20.2621V20.2631V20.2641V20.265V20.266V20.267V20.268V20.2689V20.2699V20.2709V20.2719V20.2728V20.2738V20.2748V20.2758V20.2767V20.2777V20.2787V20.2797V20.2806V20.2816V20.2826V20.2836V20.2845V20.2855V20.2865V20.2875V20.2884V20.2894V20.2904V20.2914V20.2923V20.2933V20.2943V20.2953V20.2962V20.2972V20.2982V20.2992V20.3001V20.3011V20.3021V20.3031V20.3041V20.305V20.306V20.307V20.308V20.3089V20.3099V20.3109V20.3119V20.3128V20.3138V20.3148V20.3158V20.3167V20.3177V20.3187V20.3197V20.3207V20.3216V20.3226V20.3236V20.3246V20.3255V20.3265V20.3275V20.3285V20.3294V20.3304V20.3314V20.3324V20.3333V20.3343V20.3353V20.3363V20.3373V20.3382V20.3392V20.3402V20.3772C34.9741 20.4212 34.9728 20.4668 34.9711 20.5302L34.9707 20.5475C34.969 20.607 34.9671 20.6817 34.9666 20.7618L34.9499 21.1369C34.944 21.2473 34.9363 21.3573 34.9268 21.4658C34.9267 21.4667 34.9267 21.4675 34.9266 21.4683L34.8742 22.041C34.8602 22.1666 34.8445 22.2915 34.8269 22.4148L34.8168 22.4862L29.359 22.5895Z" fill="#750665" stroke="#750665" stroke-width="3.31381"/>
<path d="M27.9589 19.5581L27.9519 19.4572C27.9373 19.2647 27.9177 19.0746 27.893 18.8867C27.8873 18.8473 27.8815 18.8079 27.8769 18.7707C27.8769 18.7707 27.8769 18.7626 27.8769 18.758C27.87 18.7093 27.8619 18.6617 27.8538 18.6119C27.8457 18.562 27.8376 18.5122 27.8284 18.4623C27.8192 18.4124 27.8099 18.3614 27.8007 18.3127C27.7915 18.264 27.7822 18.2176 27.7718 18.1701C27.7718 18.1492 27.7638 18.1295 27.7591 18.1086C27.7511 18.0692 27.7418 18.0286 27.7326 17.9927C27.7233 17.9567 27.7106 17.8999 27.7003 17.8547L27.6656 17.7167C27.6541 17.6715 27.6414 17.6251 27.6287 17.5799C27.6033 17.4894 27.5767 17.4002 27.5502 17.3097C27.5363 17.2645 27.5213 17.2204 27.5075 17.1752C27.4786 17.0859 27.4486 16.9978 27.4174 16.9097C27.3366 16.6847 27.2489 16.4636 27.1542 16.2464C27.138 16.2081 27.1207 16.1699 27.1034 16.1304C27.0653 16.0458 27.0261 15.9611 26.988 15.8788C26.9672 15.8371 26.9476 15.7953 26.9268 15.7547C26.906 15.7142 26.8852 15.6724 26.8633 15.6318L20.4376 15.7559C20.1723 15.7615 19.9179 15.8628 19.7207 16.0412L16.4686 19.4236C16.3588 19.523 16.2716 19.645 16.2128 19.7813C16.1541 19.9176 16.1252 20.0649 16.1281 20.2134C16.1311 20.3619 16.1658 20.508 16.2299 20.6418C16.2941 20.7756 16.3861 20.894 16.4998 20.989L19.8823 24.2357C20.0863 24.4069 20.3451 24.4979 20.6108 24.492L27.0526 24.3586C27.1688 24.1105 27.275 23.8573 27.3712 23.5991C27.3874 23.5562 27.4024 23.5122 27.4174 23.4693C27.4798 23.2953 27.5367 23.1198 27.5883 22.9428C27.6137 22.8535 27.6379 22.7643 27.6622 22.6738C27.6749 22.6263 27.6864 22.5776 27.6979 22.53L27.7291 22.4025C27.7395 22.3572 27.7487 22.312 27.7591 22.2656C27.7695 22.2193 27.7788 22.174 27.788 22.1288C27.8053 22.0453 27.8203 21.9618 27.8342 21.8772C27.8446 21.8227 27.8526 21.7682 27.8619 21.7137C27.8907 21.527 27.915 21.3392 27.9335 21.1502C27.9427 21.0562 27.9508 20.96 27.9565 20.8649C27.9658 20.7223 27.9727 20.5785 27.9762 20.4324C27.9762 20.3605 27.9762 20.2886 27.9762 20.2167C27.9762 20.1437 27.9762 20.0718 27.9762 19.9987C27.975 19.8526 27.9681 19.7053 27.9589 19.5581ZM20.4803 21.6372C20.187 21.6431 19.8984 21.5615 19.6513 21.4027C19.4041 21.2438 19.2093 21.015 19.0917 20.745C18.974 20.475 18.9387 20.176 18.9902 19.8859C19.0417 19.5957 19.1777 19.3274 19.381 19.1149C19.5843 18.9025 19.8458 18.7553 20.1324 18.6921C20.419 18.6289 20.7179 18.6525 20.9911 18.7598C21.2644 18.8672 21.4998 19.0536 21.6676 19.2954C21.8354 19.5372 21.928 19.8235 21.9338 20.1181C21.9415 20.5132 21.7927 20.8951 21.5202 21.1799C21.2476 21.4648 20.8736 21.6292 20.4803 21.6372Z" fill="#FE5C53"/>
</svg>
