<svg width="130" height="34" viewBox="0 0 130 34" fill="none" xmlns="http://www.w3.org/2000/svg">
<path d="M40.2569 29.6096C38.4788 29.6096 36.8831 29.1961 35.4698 28.369C34.0796 27.5653 32.9348 26.3977 32.1588 24.9918C31.3793 23.5564 30.9702 21.9491 30.9688 20.3157C30.9673 18.6822 31.3735 17.0742 32.1506 15.6374C32.9245 14.2279 34.0695 13.0571 35.4615 12.252C36.8797 11.4218 38.4837 11.0067 40.2734 11.0067C42.0742 11.0067 43.6868 11.423 45.1111 12.2557C46.5083 13.0619 47.6609 14.2319 48.4459 15.6411C49.2442 17.0666 49.6563 18.6758 49.6416 20.3096C49.6589 21.9499 49.2487 23.5664 48.4515 25.0001C47.6689 26.4069 46.5154 27.5721 45.1166 28.369C43.6892 29.1961 42.0693 29.6096 40.2569 29.6096ZM40.3074 24.8143C41.0673 24.8279 41.8158 24.6292 42.4688 24.2404C43.1014 23.8555 43.6154 23.3032 43.9541 22.6447C44.3246 21.9217 44.5104 21.1182 44.4949 20.3059C44.5103 19.4939 44.3245 18.6907 43.9541 17.968C43.6154 17.3094 43.1014 16.7572 42.4688 16.3723C41.8158 15.9835 41.0673 15.7848 40.3074 15.7984C39.5451 15.7855 38.7941 15.9841 38.1379 16.3723C37.5024 16.7538 36.9876 17.3069 36.6525 17.968C36.2874 18.6923 36.1046 19.4949 36.12 20.3059C36.1053 21.1201 36.288 21.9257 36.6525 22.6539C36.9844 23.3174 37.5 23.8716 38.1379 24.2505C38.7961 24.6329 39.5464 24.8278 40.3074 24.8143ZM59.8053 29.6096C58.1614 29.6096 56.7092 29.3172 55.4486 28.7322C54.188 28.1473 53.1907 27.2052 52.4568 25.906C51.7247 24.6067 51.359 22.9381 51.3596 20.9V13.959C51.3593 13.6438 51.4212 13.3317 51.5416 13.0405C51.6621 12.7493 51.8387 12.4846 52.0615 12.2617C52.2842 12.0388 52.5487 11.8619 52.8398 11.7413C53.131 11.6206 53.443 11.5585 53.7582 11.5585H56.5256V20.728C56.5256 22.0573 56.7929 23.0705 57.3276 23.7677C57.8622 24.4648 58.6869 24.8137 59.8016 24.8143C60.5557 24.8143 61.1775 24.6512 61.6668 24.325C62.166 23.9871 62.5448 23.4991 62.7483 22.9316C62.9783 22.3302 63.0935 21.5944 63.0941 20.7243V13.959C63.0939 13.6438 63.1558 13.3317 63.2762 13.0405C63.3966 12.7493 63.5733 12.4846 63.796 12.2617C64.0188 12.0388 64.2833 11.8619 64.5744 11.7413C64.8655 11.6206 65.1776 11.5585 65.4927 11.5585H68.2417V20.8972C68.2417 22.9341 67.876 24.6028 67.1445 25.9032C66.4131 27.2037 65.4167 28.1467 64.1555 28.7322C62.8943 29.3172 61.443 29.6096 59.8016 29.6096H59.8053ZM80.9871 29.6262C80.2684 29.6278 79.5542 29.5138 78.8717 29.2887C78.2032 29.0701 77.5757 28.7419 77.0148 28.3175C76.4693 27.9084 75.998 27.4088 75.6215 26.8404V29.0477H72.0861C71.7054 29.0477 71.3402 28.8964 71.071 28.6272C70.8017 28.358 70.6505 27.9928 70.6505 27.612V7.66724C70.6505 7.02939 70.9039 6.41766 71.3549 5.96663C71.8059 5.51559 72.4176 5.26221 73.0555 5.26221H75.8505V11.4417L75.7328 13.649C76.1008 13.0903 76.5685 12.604 77.1123 12.2143C77.6565 11.821 78.261 11.5188 78.9021 11.3194C79.5494 11.1163 80.224 11.0137 80.9025 11.015C82.5352 11.015 83.9902 11.4316 85.2674 12.2649C86.5487 13.1021 87.5811 14.2685 88.2564 15.642C88.9773 17.0884 89.3446 18.6853 89.3279 20.3013C89.3279 22.0015 88.9707 23.5635 88.2564 24.9872C87.5842 26.3624 86.5547 27.5317 85.2757 28.3726C84.0016 29.209 82.5708 29.6268 80.9834 29.6262H80.9871ZM80.0048 24.8483C80.7366 24.8537 81.4575 24.6706 82.0981 24.3167C82.7474 23.9538 83.2779 23.4108 83.6257 22.7532C84.0028 22.0665 84.1913 21.2501 84.1913 20.304C84.1913 19.3843 84.0055 18.5823 83.634 17.8981C83.2864 17.2414 82.7595 16.697 82.1146 16.3281C81.4612 15.9584 80.7216 15.768 79.9708 15.7763C79.2259 15.7702 78.4953 15.9811 77.8683 16.3833C77.2316 16.7897 76.711 17.354 76.3573 18.0213C75.9882 18.7372 75.797 19.5315 75.7999 20.3369C75.8028 21.1423 75.9996 21.9351 76.3738 22.6484C76.7353 23.3117 77.2654 23.8678 77.9106 24.2606C78.5404 24.6476 79.2657 24.8511 80.0048 24.8483ZM101.49 29.6262C100.771 29.6277 100.057 29.5138 99.3748 29.2887C98.7063 29.0701 98.0788 28.7419 97.5179 28.3175C96.9724 27.9084 96.5011 27.4088 96.1245 26.8404V29.0477H92.5929C92.4043 29.0478 92.2175 29.0108 92.0432 28.9387C91.8689 28.8666 91.7105 28.7609 91.5771 28.6275C91.4437 28.4942 91.3379 28.3359 91.2657 28.1617C91.1934 27.9874 91.1563 27.8006 91.1563 27.612V7.66724C91.1563 7.02939 91.4097 6.41766 91.8607 5.96663C92.3117 5.51559 92.9235 5.26221 93.5613 5.26221H96.3563V11.4417L96.2386 13.649C96.6067 13.0903 97.0743 12.604 97.6182 12.2143C98.1624 11.8212 98.7669 11.519 99.4079 11.3194C100.055 11.1163 100.73 11.0137 101.408 11.015C103.041 11.015 104.496 11.4316 105.773 12.2649C107.055 13.1018 108.087 14.2684 108.762 15.642C109.483 17.0884 109.85 18.6853 109.834 20.3013C109.834 22.0015 109.477 23.5635 108.762 24.9872C108.09 26.3626 107.061 27.532 105.781 28.3726C104.507 29.209 103.076 29.6268 101.49 29.6262ZM100.511 24.8483C101.242 24.8538 101.963 24.6707 102.604 24.3167C103.253 23.9537 103.784 23.4107 104.132 22.7532C104.508 22.0665 104.697 21.2501 104.698 20.304C104.698 19.3843 104.512 18.5823 104.141 17.8981C103.793 17.2418 103.266 16.6975 102.621 16.3281C101.968 15.9584 101.228 15.768 100.477 15.7763C99.7317 15.7702 99.0011 15.9811 98.3742 16.3833C97.7375 16.7897 97.2169 17.354 96.8631 18.0213C96.4939 18.7372 96.3027 19.5315 96.3057 20.337C96.3088 21.1425 96.5059 21.9353 96.8805 22.6484C97.2416 23.3116 97.7715 23.8678 98.4165 24.2606C99.0463 24.6475 99.7715 24.851 100.511 24.8483ZM119.378 29.6262C117.903 29.6439 116.458 29.2079 115.239 28.3772C114.013 27.544 113.053 26.4155 112.36 24.9918C111.667 23.5681 111.321 22.0061 111.322 20.3059C111.305 18.6897 111.664 17.0917 112.369 15.6374C113.066 14.2137 114.026 13.0852 115.248 12.252C116.453 11.4254 117.884 10.9905 119.345 11.0067C120.154 10.9997 120.96 11.1106 121.737 11.336C122.44 11.5386 123.102 11.8612 123.696 12.2897C124.256 12.6953 124.726 13.2131 125.075 13.81V13.0071C125.074 12.8175 125.111 12.6297 125.183 12.4543C125.254 12.2789 125.36 12.1193 125.494 11.9848C125.627 11.8503 125.786 11.7434 125.961 11.6702C126.136 11.5971 126.323 11.5591 126.513 11.5585H130V29.0523H126.489C126.108 29.0523 125.743 28.901 125.474 28.6318C125.204 28.3626 125.053 27.9974 125.053 27.6166V26.8404C124.702 27.4279 124.237 27.939 123.685 28.3432C123.099 28.7716 122.442 29.0947 121.744 29.2979C120.975 29.522 120.178 29.6326 119.378 29.6262ZM120.644 24.8318C121.4 24.8402 122.144 24.6353 122.789 24.2404C123.433 23.8435 123.956 23.2768 124.3 22.6024C124.67 21.8929 124.859 21.1032 124.852 20.3031C124.863 19.5091 124.673 18.7251 124.3 18.0241C123.944 17.3551 123.42 16.7904 122.78 16.3861C122.149 15.9846 121.417 15.7738 120.67 15.7791C119.928 15.7727 119.198 15.9631 118.554 16.3309C117.908 16.7005 117.381 17.2463 117.033 17.9045C116.662 18.5863 116.476 19.3883 116.476 20.3105C116.476 21.2572 116.664 22.0736 117.041 22.7597C117.387 23.4136 117.914 23.9531 118.561 24.3121C119.2 24.6608 119.918 24.8397 120.646 24.8318H120.644Z" fill="white"/>
<path fill-rule="evenodd" clip-rule="evenodd" d="M5.07808 23.832C3.57327 21.3233 2.93413 18.3867 3.25958 15.4767C3.58504 12.5666 4.85694 9.84539 6.87843 7.73417C8.89992 5.62295 11.5583 4.23948 14.442 3.79788C17.1912 3.37689 19.9991 3.83431 22.4703 5.09976C22.6711 5.20258 22.7429 5.45176 22.6344 5.65005L19.6857 11.0372C19.5766 11.2364 19.3273 11.308 19.1222 11.2117C17.9923 10.6811 16.728 10.4965 15.4888 10.6862C14.1139 10.8968 12.8466 11.5563 11.8828 12.5629C10.9191 13.5694 10.3127 14.8667 10.1576 16.2541C10.0024 17.6415 10.3071 19.0415 11.0245 20.2375C11.7419 21.4335 12.8321 22.3587 14.1262 22.87C15.4202 23.3814 16.8462 23.4502 18.1832 23.066C19.5202 22.6817 20.6625 22.2574 21.2303 21.6241C21.7982 21.0541 21.9875 20.3574 21.9875 20.3574L29.3062 20.2307C29.1169 21.3707 28.8352 22.5434 27.0975 24.8955C25.3597 27.2475 22.8981 28.9589 20.0936 29.7649C17.2892 30.5709 14.2983 30.4264 11.5839 29.3539C8.86946 28.2814 6.58289 26.3406 5.07808 23.832Z" fill="white"/>
<path d="M29.1103 13.3166L29.11 13.32L29.1188 13.3582C29.2202 13.7951 29.3005 14.2378 29.3604 14.6817C29.4347 15.2357 29.4772 15.7935 29.4877 16.3523V16.3523V16.3531V16.3539V16.3547V16.3555V16.3563V16.3571V16.3578V16.3586V16.3594V16.3602V16.361V16.3618V16.3626V16.3634V16.3642V16.365V16.3657V16.3665V16.3673V16.3681V16.3689V16.3697V16.3705V16.3713V16.3721V16.3729V16.3737V16.3744V16.3752V16.376V16.3768V16.3776V16.3784V16.3792V16.38V16.3808V16.3816V16.3824V16.3831V16.3839V16.3847V16.3855V16.3863V16.3871V16.3879V16.3887V16.3895V16.3903V16.3911V16.3918V16.3926V16.3934V16.3942V16.395V16.3958V16.3966V16.3974V16.3982V16.399V16.3997V16.4005V16.4013V16.4021V16.4029V16.4037V16.4045V16.4053V16.4061V16.4069V16.4077V16.4084V16.4092V16.41V16.4108V16.4116V16.4124V16.4132V16.414V16.4148V16.4156V16.4164V16.4171V16.4179V16.4187V16.4195V16.4203V16.4211V16.4219V16.4227V16.4235V16.4243V16.4251V16.4258V16.4266V16.4274V16.4282V16.429V16.4298V16.4306V16.4314V16.4322V16.433V16.4338V16.4345V16.4353V16.4361V16.4369V16.4377V16.4385V16.4393V16.4401V16.4409V16.4417V16.4425V16.4432V16.444V16.4448V16.4456V16.4464V16.4472V16.448V16.4488V16.4496V16.4504V16.4512V16.4519V16.4527V16.4535V16.4543V16.4551V16.4559V16.4567V16.4575V16.4583V16.4591V16.4599V16.4606V16.4614V16.4622V16.463V16.4638V16.4646V16.4654V16.4662V16.467V16.4678V16.4686V16.4693V16.4701V16.4709V16.4717V16.4725V16.4733V16.4741V16.4749V16.4757V16.4765V16.4773V16.4781V16.4788V16.4796V16.4804V16.4812V16.482V16.4828V16.4836V16.4844V16.4852V16.486V16.4868V16.4875V16.4883V16.4891V16.4899V16.4907V16.4915V16.4923V16.4931V16.4939V16.4947V16.4955V16.4963V16.497V16.4978V16.4986V16.4994V16.5002V16.501V16.5018V16.5026V16.5034V16.5042V16.505V16.5057V16.5065V16.5073V16.5081V16.5089V16.5097V16.5105V16.5113V16.5121V16.5129V16.5137V16.5145V16.5152V16.516V16.5168V16.5176V16.5184V16.5192V16.52V16.5208V16.5216V16.5224V16.5232V16.524V16.5247V16.5255V16.5263V16.5271V16.5279V16.5287V16.5295V16.5303V16.5311V16.5319V16.5327V16.5335V16.5342V16.535V16.5358V16.5366V16.5374V16.5382V16.539V16.5398V16.5406V16.5414V16.5422V16.543V16.5437V16.5445V16.5453V16.5461V16.5469V16.5477V16.5485V16.5493V16.5501V16.5509V16.5517V16.5525V16.5533V16.554V16.5548V16.5556V16.5564V16.5572V16.558V16.5588V16.5596V16.5604V16.5612V16.562V16.5628V16.5636V16.5643V16.5651V16.5659V16.5667V16.5675V16.5683V16.5691V16.5699V16.5707V16.5715V16.5723V16.5731V16.5738V16.5746V16.5754V16.5762V16.577V16.5778V16.5786V16.5794V16.5802V16.581V16.5818V16.5826V16.5834V16.5842V16.5849V16.5857V16.5865V16.5873V16.5881V16.5889V16.5897V16.5905V16.5913V16.5921V16.5929V16.5937V16.5945V16.5952V16.596V16.5968V16.5976V16.5984V16.5992V16.6V16.6008V16.6016V16.6024V16.6032V16.604V16.6048V16.6056V16.6063V16.6071V16.6079V16.6087V16.6095V16.6103V16.6111V16.6119V16.6127V16.6135V16.6143V16.6151V16.6159V16.6167V16.6174V16.6182V16.619V16.6198V16.6206V16.6214V16.6222V16.623V16.6238V16.6246V16.6254V16.6262V16.627V16.6278V16.6286V16.6293V16.6301V16.6309V16.6317V16.6325V16.6333V16.6341V16.6349V16.6357V16.6365V16.6373V16.6381V16.6389V16.6397V16.6405V16.6412V16.642V16.6428V16.6436V16.6444V16.6452V16.646V16.6468V16.6476V16.6484V16.6492V16.65V16.6508V16.6516V16.6524V16.6531V16.6539V16.6547V16.6555V16.6563V16.6571V16.6579V16.6587V16.6595V16.6603V16.6611V16.6619V16.6627V16.6635V16.6643V16.6651V16.6658V16.6666V16.6674V16.6682V16.669V16.6698V16.6706V16.6714V16.6722V16.673V16.6738V16.6746V16.6754V16.6762V16.677V16.6778V16.6786V16.6793V16.6801V16.6809V16.6817V16.6825V16.6833V16.6841V16.6849V16.6857V16.6865V16.6873V16.6881V16.6889V16.6897V16.6905V16.6913V16.6921V16.6929V16.6936V16.6944V16.6952V16.696V16.6968V16.6976V16.6984V16.6992V16.7V16.7008V16.7016V16.7024V16.7032V16.704V16.7048V16.7056V16.7064V16.7072V16.708V16.7087V16.7095V16.7103V16.7111V16.7119V16.7127V16.7135V16.7143V16.7151V16.7159V16.7167V16.7175V16.7183V16.7191V16.7199V16.7207V16.7215V16.7223V16.7231V16.7239V16.7247V16.7254V16.7262V16.727V16.7278V16.7286V16.7294V16.7302V16.731V16.7318V16.7326V16.7334V16.7342V16.735V16.7358V16.7366V16.7374V16.7382V16.739V16.7398V16.7406V16.7414V16.7422V16.7429V16.7437V16.7445V16.7453V16.7461V16.7469V16.7477V16.7485V16.7493V16.7501V16.7509V16.7517V16.7525V16.7533V16.7541V16.7549V16.7557V16.7909C29.4873 16.839 29.486 16.8873 29.4846 16.9384L29.4842 16.9544C29.4827 17.0092 29.4812 17.0671 29.4812 17.1261L29.4665 17.4575C29.4665 17.4578 29.4664 17.4581 29.4664 17.4585C29.461 17.5631 29.4537 17.6676 29.4446 17.7711C29.4446 17.7713 29.4446 17.7715 29.4446 17.7717L29.4007 18.2525C29.3879 18.3693 29.3733 18.486 29.3569 18.6016L29.3527 18.6313L29.3537 18.6407C29.3371 18.7623 29.3181 18.8839 29.298 19.0059L29.2251 19.4136L29.2251 19.4138C29.2177 19.4554 29.2097 19.4946 29.2012 19.5367C29.1988 19.5484 29.1964 19.5603 29.1939 19.5725C29.1921 19.5782 29.1905 19.5837 29.1891 19.589L22.4387 19.7173H22.2619H22.2616L17.0053 19.723C17.3367 19.4419 17.6901 19.0912 18.0027 18.7196C18.2666 18.4059 18.5076 18.0701 18.6838 17.7405C18.8579 17.4151 18.9804 17.0741 18.9804 16.7557C18.9804 16.0169 18.6935 15.3102 18.3525 14.6708C18.1812 14.3496 17.9923 14.0384 17.8136 13.7449L17.8011 13.7243C17.7054 13.5671 17.6131 13.4155 17.527 13.2689L28.7208 13.084H28.7824C28.8605 13.0854 28.9357 13.1122 28.9966 13.1599C29.0489 13.2009 29.0881 13.2553 29.1103 13.3166Z" fill="white" stroke="white" stroke-width="0.496063"/>
<path d="M22.1609 16.0896L22.1554 16.0088C22.1437 15.8547 22.1281 15.7025 22.1084 15.5521C22.1038 15.5205 22.0992 15.489 22.0955 15.4593C22.0955 15.4593 22.0955 15.4528 22.0955 15.4491C22.0899 15.4101 22.0835 15.372 22.077 15.3321C22.0706 15.2922 22.0641 15.2522 22.0568 15.2123C22.0494 15.1724 22.042 15.1316 22.0346 15.0926C22.0272 15.0536 22.0199 15.0165 22.0116 14.9784C22.0116 14.9617 22.0051 14.9459 22.0014 14.9292C21.995 14.8976 21.9876 14.8651 21.9802 14.8364C21.9728 14.8076 21.9627 14.7621 21.9544 14.7259L21.9267 14.6154C21.9175 14.5792 21.9074 14.5421 21.8972 14.5059C21.8769 14.4335 21.8557 14.362 21.8345 14.2896C21.8235 14.2534 21.8115 14.2181 21.8004 14.1819C21.7773 14.1104 21.7534 14.0399 21.7285 13.9693C21.6639 13.7892 21.5938 13.6122 21.5182 13.4383C21.5053 13.4077 21.4915 13.377 21.4777 13.3455C21.4472 13.2777 21.4159 13.2099 21.3854 13.144C21.3688 13.1106 21.3532 13.0772 21.3366 13.0447C21.32 13.0122 21.3034 12.9788 21.2859 12.9463L16.1533 13.0456C15.9414 13.0501 15.7382 13.1312 15.5807 13.274L12.9831 15.9819C12.8953 16.0615 12.8257 16.1592 12.7787 16.2683C12.7318 16.3774 12.7087 16.4954 12.7111 16.6143C12.7135 16.7331 12.7412 16.8501 12.7924 16.9572C12.8436 17.0644 12.9172 17.1591 13.008 17.2351L15.7098 19.8345C15.8727 19.9715 16.0794 20.0444 16.2916 20.0396L21.4371 19.9329C21.5299 19.7342 21.6147 19.5315 21.6916 19.3248C21.7045 19.2905 21.7165 19.2552 21.7285 19.2208C21.7783 19.0816 21.8238 18.9411 21.8649 18.7994C21.8852 18.7279 21.9046 18.6564 21.924 18.584C21.9341 18.5459 21.9433 18.507 21.9526 18.4689L21.9774 18.3668C21.9857 18.3306 21.9931 18.2944 22.0014 18.2572C22.0097 18.2201 22.0171 18.1839 22.0245 18.1477C22.0383 18.0809 22.0503 18.014 22.0614 17.9462C22.0697 17.9026 22.0761 17.859 22.0835 17.8154C22.1065 17.6659 22.1259 17.5155 22.1407 17.3642C22.148 17.289 22.1545 17.2119 22.1591 17.1358C22.1665 17.0216 22.172 16.9065 22.1748 16.7896C22.1748 16.732 22.1748 16.6744 22.1748 16.6169C22.1748 16.5584 22.1748 16.5008 22.1748 16.4424C22.1739 16.3254 22.1683 16.2075 22.1609 16.0896ZM16.1874 17.7541C15.9531 17.7588 15.7227 17.6935 15.5252 17.5663C15.3278 17.4392 15.1722 17.256 15.0782 17.0398C14.9842 16.8237 14.956 16.5843 14.9972 16.352C15.0383 16.1197 15.147 15.9049 15.3094 15.7348C15.4718 15.5647 15.6806 15.4469 15.9096 15.3963C16.1385 15.3457 16.3772 15.3646 16.5954 15.4505C16.8137 15.5365 17.0017 15.6857 17.1358 15.8793C17.2698 16.0728 17.3438 16.3021 17.3484 16.538C17.3546 16.8542 17.2357 17.16 17.018 17.388C16.8003 17.6161 16.5016 17.7477 16.1874 17.7541Z" fill="white"/>
</svg>
