<svg width="130" height="33" viewBox="0 0 130 33" fill="none" xmlns="http://www.w3.org/2000/svg">
<path d="M40.2569 29.1096C38.4788 29.1096 36.8831 28.6961 35.4698 27.869C34.0796 27.0653 32.9348 25.8977 32.1588 24.4918C31.3793 23.0564 30.9702 21.4491 30.9688 19.8157C30.9673 18.1822 31.3735 16.5742 32.1506 15.1374C32.9245 13.7279 34.0695 12.5571 35.4615 11.752C36.8797 10.9218 38.4837 10.5067 40.2734 10.5067C42.0742 10.5067 43.6868 10.923 45.1111 11.7557C46.5083 12.5619 47.6609 13.7319 48.4459 15.1411C49.2442 16.5666 49.6563 18.1758 49.6416 19.8096C49.6589 21.4499 49.2487 23.0664 48.4515 24.5001C47.6689 25.9069 46.5154 27.0721 45.1166 27.869C43.6892 28.6961 42.0693 29.1096 40.2569 29.1096ZM40.3074 24.3143C41.0673 24.3279 41.8158 24.1292 42.4688 23.7404C43.1014 23.3555 43.6154 22.8032 43.9541 22.1447C44.3246 21.4217 44.5104 20.6182 44.4949 19.8059C44.5103 18.9939 44.3245 18.1907 43.9541 17.468C43.6154 16.8094 43.1014 16.2572 42.4688 15.8723C41.8158 15.4835 41.0673 15.2848 40.3074 15.2984C39.5451 15.2855 38.7941 15.4841 38.1379 15.8723C37.5024 16.2538 36.9876 16.8069 36.6525 17.468C36.2874 18.1923 36.1046 18.9949 36.12 19.8059C36.1053 20.6201 36.288 21.4257 36.6525 22.1539C36.9844 22.8174 37.5 23.3716 38.1379 23.7505C38.7961 24.1329 39.5464 24.3278 40.3074 24.3143V24.3143ZM59.8053 29.1096C58.1614 29.1096 56.7092 28.8172 55.4486 28.2322C54.188 27.6473 53.1907 26.7052 52.4568 25.406C51.7247 24.1067 51.359 22.4381 51.3596 20.4V13.459C51.3593 13.1438 51.4212 12.8317 51.5416 12.5405C51.6621 12.2493 51.8387 11.9846 52.0615 11.7617C52.2842 11.5388 52.5487 11.3619 52.8398 11.2413C53.131 11.1206 53.443 11.0585 53.7582 11.0585H56.5256V20.228C56.5256 21.5573 56.7929 22.5705 57.3276 23.2677C57.8622 23.9648 58.6869 24.3137 59.8016 24.3143C60.5557 24.3143 61.1775 24.1512 61.6668 23.825C62.166 23.4871 62.5448 22.9991 62.7483 22.4316C62.9783 21.8302 63.0935 21.0944 63.0941 20.2243V13.459C63.0939 13.1438 63.1558 12.8317 63.2762 12.5405C63.3966 12.2493 63.5733 11.9846 63.796 11.7617C64.0188 11.5388 64.2833 11.3619 64.5744 11.2413C64.8655 11.1206 65.1776 11.0585 65.4927 11.0585H68.2417V20.3972C68.2417 22.4341 67.876 24.1028 67.1445 25.4032C66.4131 26.7037 65.4167 27.6467 64.1555 28.2322C62.8943 28.8172 61.443 29.1096 59.8016 29.1096H59.8053ZM80.9871 29.1262C80.2684 29.1278 79.5542 29.0138 78.8717 28.7887C78.2032 28.5701 77.5757 28.2419 77.0148 27.8175C76.4693 27.4084 75.998 26.9088 75.6215 26.3404V28.5477H72.0861C71.7054 28.5477 71.3402 28.3964 71.071 28.1272C70.8017 27.858 70.6505 27.4928 70.6505 27.112V7.16724C70.6505 6.52939 70.9039 5.91766 71.3549 5.46663C71.8059 5.01559 72.4176 4.76221 73.0555 4.76221H75.8505V10.9417L75.7328 13.149C76.1008 12.5903 76.5685 12.104 77.1123 11.7143C77.6565 11.321 78.261 11.0188 78.9021 10.8194C79.5494 10.6163 80.224 10.5137 80.9025 10.515C82.5352 10.515 83.9902 10.9316 85.2674 11.7649C86.5487 12.6021 87.5811 13.7685 88.2564 15.142C88.9773 16.5884 89.3446 18.1853 89.3279 19.8013C89.3279 21.5015 88.9707 23.0635 88.2564 24.4872C87.5842 25.8624 86.5547 27.0317 85.2757 27.8726C84.0016 28.709 82.5708 29.1268 80.9834 29.1262H80.9871ZM80.0048 24.3483C80.7366 24.3537 81.4575 24.1706 82.0981 23.8167C82.7474 23.4538 83.2779 22.9108 83.6257 22.2532C84.0028 21.5665 84.1913 20.7501 84.1913 19.804C84.1913 18.8843 84.0055 18.0823 83.634 17.3981C83.2864 16.7414 82.7595 16.197 82.1146 15.8281C81.4612 15.4584 80.7216 15.268 79.9708 15.2763C79.2259 15.2702 78.4953 15.4811 77.8683 15.8833C77.2316 16.2897 76.711 16.854 76.3573 17.5213C75.9882 18.2372 75.797 19.0315 75.7999 19.8369C75.8028 20.6423 75.9996 21.4351 76.3738 22.1484C76.7353 22.8117 77.2654 23.3678 77.9106 23.7606C78.5404 24.1476 79.2657 24.3511 80.0048 24.3483V24.3483ZM101.49 29.1262C100.771 29.1277 100.057 29.0138 99.3748 28.7887C98.7063 28.5701 98.0788 28.2419 97.5179 27.8175C96.9724 27.4084 96.5011 26.9088 96.1245 26.3404V28.5477H92.5929C92.4043 28.5478 92.2175 28.5108 92.0432 28.4387C91.8689 28.3666 91.7105 28.2609 91.5771 28.1275C91.4437 27.9942 91.3379 27.8359 91.2656 27.6617C91.1934 27.4874 91.1563 27.3007 91.1563 27.112V7.16724C91.1563 6.52939 91.4097 5.91766 91.8607 5.46663C92.3117 5.01559 92.9235 4.76221 93.5613 4.76221H96.3563V10.9417L96.2386 13.149C96.6067 12.5903 97.0743 12.104 97.6182 11.7143C98.1624 11.3212 98.7669 11.019 99.4079 10.8194C100.055 10.6163 100.73 10.5137 101.408 10.515C103.041 10.515 104.496 10.9316 105.773 11.7649C107.055 12.6018 108.087 13.7684 108.762 15.142C109.483 16.5884 109.85 18.1853 109.834 19.8013C109.834 21.5015 109.477 23.0635 108.762 24.4872C108.09 25.8626 107.061 27.032 105.781 27.8726C104.507 28.709 103.076 29.1268 101.49 29.1262ZM100.511 24.3483C101.242 24.3538 101.963 24.1707 102.604 23.8167C103.253 23.4537 103.784 22.9107 104.132 22.2532C104.508 21.5665 104.697 20.7501 104.698 19.804C104.698 18.8843 104.512 18.0823 104.141 17.3981C103.793 16.7418 103.266 16.1975 102.621 15.8281C101.968 15.4584 101.228 15.268 100.477 15.2763C99.7317 15.2702 99.0011 15.4811 98.3742 15.8833C97.7375 16.2897 97.2169 16.854 96.8631 17.5213C96.4939 18.2372 96.3027 19.0315 96.3057 19.837C96.3088 20.6425 96.5059 21.4353 96.8805 22.1484C97.2416 22.8116 97.7715 23.3678 98.4165 23.7606C99.0463 24.1475 99.7715 24.351 100.511 24.3483ZM119.378 29.1262C117.903 29.1439 116.458 28.7079 115.239 27.8772C114.013 27.044 113.053 25.9155 112.36 24.4918C111.667 23.0681 111.321 21.5061 111.322 19.8059C111.305 18.1897 111.664 16.5917 112.369 15.1374C113.066 13.7137 114.026 12.5852 115.248 11.752C116.453 10.9254 117.884 10.4905 119.345 10.5067C120.154 10.4997 120.96 10.6106 121.737 10.836C122.44 11.0386 123.102 11.3612 123.696 11.7897C124.256 12.1953 124.726 12.7131 125.075 13.31V12.5071C125.074 12.3175 125.111 12.1297 125.183 11.9543C125.254 11.7789 125.36 11.6193 125.494 11.4848C125.627 11.3503 125.786 11.2434 125.961 11.1702C126.136 11.0971 126.323 11.0591 126.513 11.0585H130V28.5523H126.489C126.108 28.5523 125.743 28.401 125.474 28.1318C125.204 27.8626 125.053 27.4974 125.053 27.1166V26.3404C124.702 26.9279 124.237 27.439 123.685 27.8432C123.099 28.2716 122.442 28.5947 121.744 28.7979C120.975 29.022 120.178 29.1326 119.378 29.1262ZM120.644 24.3318C121.4 24.3402 122.144 24.1353 122.789 23.7404C123.433 23.3435 123.956 22.7768 124.3 22.1024C124.67 21.3929 124.859 20.6032 124.852 19.8031C124.863 19.0091 124.673 18.2251 124.3 17.5241C123.944 16.8551 123.42 16.2904 122.78 15.8861C122.149 15.4846 121.417 15.2738 120.67 15.2791C119.928 15.2727 119.198 15.4631 118.554 15.8309C117.908 16.2005 117.381 16.7463 117.033 17.4045C116.662 18.0863 116.476 18.8883 116.476 19.8105C116.476 20.7572 116.664 21.5736 117.041 22.2597C117.387 22.9136 117.914 23.4531 118.561 23.8121C119.2 24.1608 119.918 24.3397 120.646 24.3318H120.644Z" fill="white"/>
<path fill-rule="evenodd" clip-rule="evenodd" d="M5.07808 23.332C3.57327 20.8233 2.93413 17.8867 3.25958 14.9767C3.58504 12.0666 4.85694 9.34539 6.87843 7.23417C8.89992 5.12295 11.5583 3.73948 14.442 3.29788C17.1912 2.87689 19.9991 3.33431 22.4703 4.59976C22.6711 4.70258 22.7429 4.95176 22.6344 5.15005L19.6857 10.5372C19.5766 10.7364 19.3273 10.808 19.1222 10.7117C17.9923 10.1811 16.728 9.99647 15.4888 10.1862C14.1139 10.3968 12.8466 11.0563 11.8828 12.0629C10.9191 13.0694 10.3127 14.3667 10.1576 15.7541C10.0024 17.1415 10.3071 18.5415 11.0245 19.7375C11.7419 20.9335 12.8321 21.8587 14.1262 22.37C15.4202 22.8814 16.8462 22.9502 18.1832 22.566C19.5202 22.1817 20.6625 21.7574 21.2303 21.1241C21.7982 20.5541 21.9875 19.8574 21.9875 19.8574L29.3062 19.7307C29.1169 20.8707 28.8352 22.0434 27.0975 24.3955C25.3597 26.7475 22.8981 28.4589 20.0936 29.2649C17.2892 30.0709 14.2983 29.9264 11.5839 28.8539C8.86946 27.7814 6.58289 25.8406 5.07808 23.332Z" fill="white"/>
<path d="M17.8011 13.2243C17.7054 13.0671 17.6131 12.9156 17.527 12.7689L28.7208 12.584H28.7824C28.8605 12.5854 28.9357 12.6122 28.9966 12.6599C29.0489 12.7009 29.0881 12.7553 29.1103 12.8166L29.11 12.82L29.1188 12.8582C29.2202 13.2952 29.3005 13.738 29.3605 14.182C29.4347 14.7359 29.4772 15.2935 29.4877 15.8522V15.8523V15.8531V15.8539V15.8547V15.8555V15.8563V15.8571V15.8578V15.8586V15.8594V15.8602V15.861V15.8618V15.8626V15.8634V15.8642V15.865V15.8657V15.8665V15.8673V15.8681V15.8689V15.8697V15.8705V15.8713V15.8721V15.8729V15.8737V15.8744V15.8752V15.876V15.8768V15.8776V15.8784V15.8792V15.88V15.8808V15.8816V15.8824V15.8831V15.8839V15.8847V15.8855V15.8863V15.8871V15.8879V15.8887V15.8895V15.8903V15.8911V15.8918V15.8926V15.8934V15.8942V15.895V15.8958V15.8966V15.8974V15.8982V15.899V15.8997V15.9005V15.9013V15.9021V15.9029V15.9037V15.9045V15.9053V15.9061V15.9069V15.9077V15.9084V15.9092V15.91V15.9108V15.9116V15.9124V15.9132V15.914V15.9148V15.9156V15.9164V15.9171V15.9179V15.9187V15.9195V15.9203V15.9211V15.9219V15.9227V15.9235V15.9243V15.9251V15.9258V15.9266V15.9274V15.9282V15.929V15.9298V15.9306V15.9314V15.9322V15.933V15.9338V15.9345V15.9353V15.9361V15.9369V15.9377V15.9385V15.9393V15.9401V15.9409V15.9417V15.9425V15.9432V15.944V15.9448V15.9456V15.9464V15.9472V15.948V15.9488V15.9496V15.9504V15.9512V15.9519V15.9527V15.9535V15.9543V15.9551V15.9559V15.9567V15.9575V15.9583V15.9591V15.9599V15.9606V15.9614V15.9622V15.963V15.9638V15.9646V15.9654V15.9662V15.967V15.9678V15.9686V15.9693V15.9701V15.9709V15.9717V15.9725V15.9733V15.9741V15.9749V15.9757V15.9765V15.9773V15.9781V15.9788V15.9796V15.9804V15.9812V15.982V15.9828V15.9836V15.9844V15.9852V15.986V15.9868V15.9875V15.9883V15.9891V15.9899V15.9907V15.9915V15.9923V15.9931V15.9939V15.9947V15.9955V15.9963V15.997V15.9978V15.9986V15.9994V16.0002V16.001V16.0018V16.0026V16.0034V16.0042V16.005V16.0057V16.0065V16.0073V16.0081V16.0089V16.0097V16.0105V16.0113V16.0121V16.0129V16.0137V16.0145V16.0152V16.016V16.0168V16.0176V16.0184V16.0192V16.02V16.0208V16.0216V16.0224V16.0232V16.024V16.0247V16.0255V16.0263V16.0271V16.0279V16.0287V16.0295V16.0303V16.0311V16.0319V16.0327V16.0335V16.0342V16.035V16.0358V16.0366V16.0374V16.0382V16.039V16.0398V16.0406V16.0414V16.0422V16.043V16.0437V16.0445V16.0453V16.0461V16.0469V16.0477V16.0485V16.0493V16.0501V16.0509V16.0517V16.0525V16.0533V16.054V16.0548V16.0556V16.0564V16.0572V16.058V16.0588V16.0596V16.0604V16.0612V16.062V16.0628V16.0636V16.0643V16.0651V16.0659V16.0667V16.0675V16.0683V16.0691V16.0699V16.0707V16.0715V16.0723V16.0731V16.0738V16.0746V16.0754V16.0762V16.077V16.0778V16.0786V16.0794V16.0802V16.081V16.0818V16.0826V16.0834V16.0842V16.0849V16.0857V16.0865V16.0873V16.0881V16.0889V16.0897V16.0905V16.0913V16.0921V16.0929V16.0937V16.0945V16.0952V16.096V16.0968V16.0976V16.0984V16.0992V16.1V16.1008V16.1016V16.1024V16.1032V16.104V16.1048V16.1056V16.1063V16.1071V16.1079V16.1087V16.1095V16.1103V16.1111V16.1119V16.1127V16.1135V16.1143V16.1151V16.1159V16.1167V16.1174V16.1182V16.119V16.1198V16.1206V16.1214V16.1222V16.123V16.1238V16.1246V16.1254V16.1262V16.127V16.1278V16.1286V16.1293V16.1301V16.1309V16.1317V16.1325V16.1333V16.1341V16.1349V16.1357V16.1365V16.1373V16.1381V16.1389V16.1397V16.1405V16.1412V16.142V16.1428V16.1436V16.1444V16.1452V16.146V16.1468V16.1476V16.1484V16.1492V16.15V16.1508V16.1516V16.1524V16.1531V16.1539V16.1547V16.1555V16.1563V16.1571V16.1579V16.1587V16.1595V16.1603V16.1611V16.1619V16.1627V16.1635V16.1643V16.1651V16.1658V16.1666V16.1674V16.1682V16.169V16.1698V16.1706V16.1714V16.1722V16.173V16.1738V16.1746V16.1754V16.1762V16.177V16.1778V16.1786V16.1793V16.1801V16.1809V16.1817V16.1825V16.1833V16.1841V16.1849V16.1857V16.1865V16.1873V16.1881V16.1889V16.1897V16.1905V16.1913V16.1921V16.1929V16.1936V16.1944V16.1952V16.196V16.1968V16.1976V16.1984V16.1992V16.2V16.2008V16.2016V16.2024V16.2032V16.204V16.2048V16.2056V16.2064V16.2072V16.208V16.2087V16.2095V16.2103V16.2111V16.2119V16.2127V16.2135V16.2143V16.2151V16.2159V16.2167V16.2175V16.2183V16.2191V16.2199V16.2207V16.2215V16.2223V16.2231V16.2239V16.2247V16.2254V16.2262V16.227V16.2278V16.2286V16.2294V16.2302V16.231V16.2318V16.2326V16.2334V16.2342V16.235V16.2358V16.2366V16.2374V16.2382V16.239V16.2398V16.2406V16.2414V16.2422V16.2429V16.2437V16.2445V16.2453V16.2461V16.2469V16.2477V16.2485V16.2493V16.2501V16.2509V16.2517V16.2525V16.2533V16.2541V16.2549V16.2557V16.2909C29.4873 16.3391 29.486 16.3874 29.4846 16.4386L29.4842 16.4544C29.4827 16.5092 29.4812 16.5671 29.4812 16.6261L29.4665 16.9575C29.4665 16.9578 29.4664 16.9581 29.4664 16.9585C29.461 17.0631 29.4537 17.1678 29.4446 17.2714C29.4446 17.2715 29.4446 17.2716 29.4446 17.2717L29.4007 17.7525C29.3879 17.8693 29.3733 17.986 29.3569 18.1016L29.3527 18.1313L29.3537 18.1407C29.3371 18.2623 29.3181 18.3839 29.298 18.5059L29.2251 18.9136L29.2251 18.9138C29.2177 18.9554 29.2097 18.9946 29.2012 19.0367C29.1988 19.0483 29.1964 19.0603 29.1939 19.0725C29.1921 19.0782 29.1905 19.0837 29.1891 19.089L22.4387 19.2173H22.2619L22.2616 19.2173L17.0053 19.223C17.3367 18.9419 17.6901 18.5912 18.0027 18.2196C18.2666 17.9059 18.5076 17.5701 18.6838 17.2405C18.8579 16.9151 18.9804 16.5741 18.9804 16.2557C18.9804 15.5169 18.6935 14.8102 18.3525 14.1708C18.1812 13.8496 17.9923 13.5384 17.8136 13.2449L17.8011 13.2243Z" fill="white" stroke="white" stroke-width="0.496063"/>
<path d="M22.1609 15.5896L22.1554 15.5088C22.1437 15.3547 22.1281 15.2025 22.1084 15.0521C22.1038 15.0205 22.0992 14.989 22.0955 14.9593C22.0955 14.9593 22.0955 14.9528 22.0955 14.9491C22.0899 14.9101 22.0835 14.872 22.077 14.8321C22.0706 14.7922 22.0641 14.7522 22.0568 14.7123C22.0494 14.6724 22.042 14.6316 22.0346 14.5926C22.0272 14.5536 22.0199 14.5165 22.0116 14.4784C22.0116 14.4617 22.0051 14.4459 22.0014 14.4292C21.995 14.3976 21.9876 14.3651 21.9802 14.3364C21.9728 14.3076 21.9627 14.2621 21.9544 14.2259L21.9267 14.1154C21.9175 14.0792 21.9074 14.0421 21.8972 14.0059C21.8769 13.9335 21.8557 13.862 21.8345 13.7896C21.8235 13.7534 21.8115 13.7181 21.8004 13.6819C21.7773 13.6104 21.7534 13.5399 21.7285 13.4693C21.6639 13.2892 21.5938 13.1122 21.5182 12.9383C21.5053 12.9077 21.4915 12.877 21.4777 12.8455C21.4472 12.7777 21.4159 12.7099 21.3854 12.644C21.3688 12.6106 21.3532 12.5772 21.3366 12.5447C21.32 12.5122 21.3034 12.4788 21.2859 12.4463L16.1533 12.5456C15.9414 12.5501 15.7382 12.6312 15.5807 12.774L12.9831 15.4819C12.8953 15.5615 12.8257 15.6592 12.7787 15.7683C12.7318 15.8774 12.7087 15.9954 12.7111 16.1143C12.7135 16.2331 12.7412 16.3501 12.7924 16.4572C12.8436 16.5644 12.9172 16.6591 13.008 16.7351L15.7098 19.3345C15.8727 19.4715 16.0794 19.5444 16.2916 19.5396L21.4371 19.4329C21.5299 19.2342 21.6147 19.0315 21.6916 18.8248C21.7045 18.7905 21.7165 18.7552 21.7285 18.7208C21.7783 18.5816 21.8238 18.4411 21.8649 18.2994C21.8852 18.2279 21.9046 18.1564 21.924 18.084C21.9341 18.0459 21.9433 18.007 21.9526 17.9689L21.9774 17.8668C21.9857 17.8306 21.9931 17.7944 22.0014 17.7572C22.0097 17.7201 22.0171 17.6839 22.0245 17.6477C22.0383 17.5809 22.0503 17.514 22.0614 17.4462C22.0697 17.4026 22.0761 17.359 22.0835 17.3154C22.1065 17.1659 22.1259 17.0155 22.1407 16.8642C22.148 16.789 22.1545 16.7119 22.1591 16.6358C22.1665 16.5216 22.172 16.4065 22.1748 16.2896C22.1748 16.232 22.1748 16.1744 22.1748 16.1169C22.1748 16.0584 22.1748 16.0008 22.1748 15.9424C22.1739 15.8254 22.1683 15.7075 22.1609 15.5896ZM16.1874 17.2541C15.9531 17.2588 15.7227 17.1935 15.5252 17.0663C15.3278 16.9392 15.1722 16.756 15.0782 16.5398C14.9842 16.3237 14.956 16.0843 14.9972 15.852C15.0383 15.6197 15.147 15.405 15.3094 15.2348C15.4718 15.0647 15.6806 14.9469 15.9096 14.8963C16.1385 14.8457 16.3772 14.8646 16.5954 14.9505C16.8137 15.0365 17.0017 15.1857 17.1358 15.3793C17.2698 15.5728 17.3438 15.8021 17.3484 16.038C17.3546 16.3542 17.2357 16.66 17.018 16.888C16.8003 17.1161 16.5016 17.2477 16.1874 17.2541Z" fill="white"/>
</svg>
