<svg width="25" height="26" viewBox="0 0 25 26" fill="none" xmlns="http://www.w3.org/2000/svg">
<g clip-path="url(#clip0_484_111623)">
<path d="M12.5 2.72065C15.8396 2.72065 16.2317 2.73554 17.5516 2.79509C18.7723 2.84967 19.4323 3.05312 19.874 3.2268C20.4595 3.45507 20.8764 3.72303 21.313 4.15971C21.7497 4.5964 22.0226 5.01323 22.2459 5.59878C22.4147 6.04042 22.6231 6.7004 22.6777 7.92113C22.7372 9.24109 22.7521 9.63311 22.7521 12.9727C22.7521 16.3124 22.7372 16.7044 22.6777 18.0243C22.6231 19.2451 22.4196 19.905 22.2459 20.3467C22.0177 20.9322 21.7497 21.3491 21.313 21.7858C20.8764 22.2224 20.4595 22.4954 19.874 22.7187C19.4323 22.8874 18.7723 23.0958 17.5516 23.1504C16.2317 23.2099 15.8396 23.2248 12.5 23.2248C9.16039 23.2248 8.76837 23.2099 7.4484 23.1504C6.22767 23.0958 5.56769 22.8923 5.12605 22.7187C4.5405 22.4904 4.12366 22.2224 3.68698 21.7858C3.2503 21.3491 2.97737 20.9322 2.75407 20.3467C2.58535 19.905 2.37694 19.2451 2.32235 18.0243C2.2628 16.7044 2.24792 16.3124 2.24792 12.9727C2.24792 9.63311 2.2628 9.24109 2.32235 7.92113C2.37694 6.7004 2.58039 6.04042 2.75407 5.59878C2.98234 5.01323 3.2503 4.5964 3.68698 4.15971C4.12366 3.72303 4.5405 3.45011 5.12605 3.2268C5.56769 3.05809 6.22767 2.84967 7.4484 2.79509C8.76837 2.73058 9.16535 2.72065 12.5 2.72065ZM12.5 0.467773C9.1058 0.467773 8.67904 0.48266 7.34419 0.542208C6.0143 0.601755 5.1062 0.815133 4.31223 1.1228C3.48849 1.44038 2.79377 1.8721 2.09905 2.56682C1.40433 3.26154 0.977571 3.96122 0.655022 4.78C0.34736 5.57397 0.133982 6.48206 0.0744343 7.81692C0.0148869 9.14681 0 9.57357 0 12.9678C0 16.362 0.0148869 16.7887 0.0744343 18.1236C0.133982 19.4535 0.34736 20.3616 0.655022 21.1605C0.972609 21.9842 1.40433 22.679 2.09905 23.3737C2.79377 24.0684 3.49345 24.4952 4.31223 24.8177C5.1062 25.1254 6.0143 25.3388 7.34915 25.3983C8.68401 25.4578 9.1058 25.4727 12.505 25.4727C15.9041 25.4727 16.3259 25.4578 17.6608 25.3983C18.9907 25.3388 19.8988 25.1254 20.6977 24.8177C21.5215 24.5001 22.2162 24.0684 22.9109 23.3737C23.6056 22.679 24.0324 21.9793 24.3549 21.1605C24.6626 20.3665 24.876 19.4584 24.9355 18.1236C24.9951 16.7887 25.0099 16.3669 25.0099 12.9678C25.0099 9.56861 24.9951 9.14681 24.9355 7.81196C24.876 6.48206 24.6626 5.57397 24.3549 4.77504C24.0373 3.9513 23.6056 3.25658 22.9109 2.56186C22.2162 1.86714 21.5165 1.44038 20.6977 1.11783C19.9037 0.810171 18.9956 0.596793 17.6608 0.537245C16.321 0.48266 15.8942 0.467773 12.5 0.467773Z" fill="black"/>
<path d="M12.5 2.72065C15.8396 2.72065 16.2317 2.73554 17.5516 2.79509C18.7723 2.84967 19.4323 3.05312 19.874 3.2268C20.4595 3.45507 20.8764 3.72303 21.313 4.15971C21.7497 4.5964 22.0226 5.01323 22.2459 5.59878C22.4147 6.04042 22.6231 6.7004 22.6777 7.92113C22.7372 9.24109 22.7521 9.63311 22.7521 12.9727C22.7521 16.3124 22.7372 16.7044 22.6777 18.0243C22.6231 19.2451 22.4196 19.905 22.2459 20.3467C22.0177 20.9322 21.7497 21.3491 21.313 21.7858C20.8764 22.2224 20.4595 22.4954 19.874 22.7187C19.4323 22.8874 18.7723 23.0958 17.5516 23.1504C16.2317 23.2099 15.8396 23.2248 12.5 23.2248C9.16039 23.2248 8.76837 23.2099 7.4484 23.1504C6.22767 23.0958 5.56769 22.8923 5.12605 22.7187C4.5405 22.4904 4.12366 22.2224 3.68698 21.7858C3.2503 21.3491 2.97737 20.9322 2.75407 20.3467C2.58535 19.905 2.37694 19.2451 2.32235 18.0243C2.2628 16.7044 2.24792 16.3124 2.24792 12.9727C2.24792 9.63311 2.2628 9.24109 2.32235 7.92113C2.37694 6.7004 2.58039 6.04042 2.75407 5.59878C2.98234 5.01323 3.2503 4.5964 3.68698 4.15971C4.12366 3.72303 4.5405 3.45011 5.12605 3.2268C5.56769 3.05809 6.22767 2.84967 7.4484 2.79509C8.76837 2.73058 9.16535 2.72065 12.5 2.72065Z" fill="black"/>
<path d="M12.5003 6.55176C8.95723 6.55176 6.0791 9.42492 6.0791 12.973C6.0791 16.521 8.95227 19.3941 12.5003 19.3941C16.0483 19.3941 18.9215 16.521 18.9215 12.973C18.9215 9.42492 16.0483 6.55176 12.5003 6.55176ZM12.5003 17.1363C10.1978 17.1363 8.33198 15.2705 8.33198 12.968C8.33198 10.6655 10.1978 8.79967 12.5003 8.79967C14.8028 8.79967 16.6686 10.6655 16.6686 12.968C16.6686 15.2705 14.8028 17.1363 12.5003 17.1363Z" fill="white"/>
<path d="M19.1744 7.79214C20.0021 7.79214 20.673 7.12119 20.673 6.29353C20.673 5.46587 20.0021 4.79492 19.1744 4.79492C18.3467 4.79492 17.6758 5.46587 17.6758 6.29353C17.6758 7.12119 18.3467 7.79214 19.1744 7.79214Z" fill="white"/>
</g>
<defs>
<clipPath id="clip0_484_111623">
<rect width="25" height="25" fill="white" transform="translate(0 0.467773)"/>
</clipPath>
</defs>
</svg>
