<svg width="25" height="26" viewBox="0 0 25 26" fill="none" xmlns="http://www.w3.org/2000/svg">
<g clip-path="url(#clip0_484_111624)">
<path d="M23.1545 0.467773H1.84549C1.35603 0.467773 0.886626 0.662208 0.540531 1.0083C0.194435 1.3544 0 1.82381 0 2.31326V23.6223C0 24.1117 0.194435 24.5811 0.540531 24.9272C0.886626 25.2733 1.35603 25.4678 1.84549 25.4678H23.1545C23.644 25.4678 24.1134 25.2733 24.4595 24.9272C24.8056 24.5811 25 24.1117 25 23.6223V2.31326C25 1.82381 24.8056 1.3544 24.4595 1.0083C24.1134 0.662208 23.644 0.467773 23.1545 0.467773ZM7.45139 21.7646H3.69271V9.82541H7.45139V21.7646ZM5.56944 8.1709C5.14309 8.1685 4.72699 8.03985 4.37368 7.8012C4.02037 7.56254 3.74567 7.22458 3.58425 6.82995C3.42283 6.43532 3.38192 6.00172 3.4667 5.58387C3.55147 5.16602 3.75813 4.78264 4.06058 4.48213C4.36303 4.18161 4.74772 3.97743 5.16611 3.89534C5.5845 3.81325 6.01783 3.85693 6.41141 4.02088C6.80499 4.18483 7.14119 4.4617 7.37757 4.81654C7.61395 5.17137 7.73992 5.58828 7.73958 6.01465C7.74361 6.3001 7.69012 6.58344 7.5823 6.84778C7.47449 7.11212 7.31456 7.35204 7.11205 7.55326C6.90954 7.75447 6.66859 7.91286 6.40357 8.01897C6.13854 8.12508 5.85486 8.17675 5.56944 8.1709ZM21.3056 21.7751H17.5486V15.2525C17.5486 13.3289 16.7309 12.7351 15.6753 12.7351C14.5608 12.7351 13.467 13.5754 13.467 15.3011V21.7751H9.70833V9.83409H13.3229V11.4886H13.3715C13.7344 10.7542 15.0052 9.49902 16.9444 9.49902C19.0417 9.49902 21.3073 10.7438 21.3073 14.3896L21.3056 21.7751Z" fill="black"/>
</g>
<defs>
<clipPath id="clip0_484_111624">
<rect width="25" height="25" fill="white" transform="translate(0 0.467773)"/>
</clipPath>
</defs>
</svg>
