<svg width="100" height="101" viewBox="0 0 100 101" fill="none" xmlns="http://www.w3.org/2000/svg">
<rect width="100" height="100" transform="translate(0 0.467773)" fill="white"/>
<path d="M5.67383 6.1416H9.21993V9.6877H5.67383V6.1416ZM9.21993 6.1416H12.766V9.6877H9.21993V6.1416ZM12.766 6.1416H16.3121V9.6877H12.766V6.1416ZM16.3121 6.1416H19.8582V9.6877H16.3121V6.1416ZM19.8582 6.1416H23.4043V9.6877H19.8582V6.1416ZM23.4043 6.1416H26.9504V9.6877H23.4043V6.1416ZM26.9504 6.1416H30.4965V9.6877H26.9504V6.1416ZM44.6809 6.1416H48.227V9.6877H44.6809V6.1416ZM55.3192 6.1416H58.8653V9.6877H55.3192V6.1416ZM58.8653 6.1416H62.4114V9.6877H58.8653V6.1416ZM62.4114 6.1416H65.9575V9.6877H62.4114V6.1416ZM69.5036 6.1416H73.0497V9.6877H69.5036V6.1416ZM73.0497 6.1416H76.5958V9.6877H73.0497V6.1416ZM76.5958 6.1416H80.1419V9.6877H76.5958V6.1416ZM80.1419 6.1416H83.688V9.6877H80.1419V6.1416ZM83.688 6.1416H87.2341V9.6877H83.688V6.1416ZM87.2341 6.1416H90.7802V9.6877H87.2341V6.1416ZM90.7802 6.1416H94.3263V9.6877H90.7802V6.1416ZM5.67383 9.6877H9.21993V13.2338H5.67383V9.6877ZM26.9504 9.6877H30.4965V13.2338H26.9504V9.6877ZM37.5887 9.6877H41.1348V13.2338H37.5887V9.6877ZM51.7731 9.6877H55.3192V13.2338H51.7731V9.6877ZM55.3192 9.6877H58.8653V13.2338H55.3192V9.6877ZM62.4114 9.6877H65.9575V13.2338H62.4114V9.6877ZM69.5036 9.6877H73.0497V13.2338H69.5036V9.6877ZM90.7802 9.6877H94.3263V13.2338H90.7802V9.6877ZM5.67383 13.2338H9.21993V16.7799H5.67383V13.2338ZM12.766 13.2338H16.3121V16.7799H12.766V13.2338ZM16.3121 13.2338H19.8582V16.7799H16.3121V13.2338ZM19.8582 13.2338H23.4043V16.7799H19.8582V13.2338ZM26.9504 13.2338H30.4965V16.7799H26.9504V13.2338ZM37.5887 13.2338H41.1348V16.7799H37.5887V13.2338ZM41.1348 13.2338H44.6809V16.7799H41.1348V13.2338ZM48.227 13.2338H51.7731V16.7799H48.227V13.2338ZM55.3192 13.2338H58.8653V16.7799H55.3192V13.2338ZM58.8653 13.2338H62.4114V16.7799H58.8653V13.2338ZM69.5036 13.2338H73.0497V16.7799H69.5036V13.2338ZM76.5958 13.2338H80.1419V16.7799H76.5958V13.2338ZM80.1419 13.2338H83.688V16.7799H80.1419V13.2338ZM83.688 13.2338H87.2341V16.7799H83.688V13.2338ZM90.7802 13.2338H94.3263V16.7799H90.7802V13.2338ZM5.67383 16.7799H9.21993V20.326H5.67383V16.7799ZM12.766 16.7799H16.3121V20.326H12.766V16.7799ZM16.3121 16.7799H19.8582V20.326H16.3121V16.7799ZM19.8582 16.7799H23.4043V20.326H19.8582V16.7799ZM26.9504 16.7799H30.4965V20.326H26.9504V16.7799ZM34.0426 16.7799H37.5887V20.326H34.0426V16.7799ZM37.5887 16.7799H41.1348V20.326H37.5887V16.7799ZM48.227 16.7799H51.7731V20.326H48.227V16.7799ZM55.3192 16.7799H58.8653V20.326H55.3192V16.7799ZM58.8653 16.7799H62.4114V20.326H58.8653V16.7799ZM69.5036 16.7799H73.0497V20.326H69.5036V16.7799ZM76.5958 16.7799H80.1419V20.326H76.5958V16.7799ZM80.1419 16.7799H83.688V20.326H80.1419V16.7799ZM83.688 16.7799H87.2341V20.326H83.688V16.7799ZM90.7802 16.7799H94.3263V20.326H90.7802V16.7799ZM5.67383 20.326H9.21993V23.8721H5.67383V20.326ZM12.766 20.326H16.3121V23.8721H12.766V20.326ZM16.3121 20.326H19.8582V23.8721H16.3121V20.326ZM19.8582 20.326H23.4043V23.8721H19.8582V20.326ZM26.9504 20.326H30.4965V23.8721H26.9504V20.326ZM41.1348 20.326H44.6809V23.8721H41.1348V20.326ZM44.6809 20.326H48.227V23.8721H44.6809V20.326ZM48.227 20.326H51.7731V23.8721H48.227V20.326ZM51.7731 20.326H55.3192V23.8721H51.7731V20.326ZM55.3192 20.326H58.8653V23.8721H55.3192V20.326ZM69.5036 20.326H73.0497V23.8721H69.5036V20.326ZM76.5958 20.326H80.1419V23.8721H76.5958V20.326ZM80.1419 20.326H83.688V23.8721H80.1419V20.326ZM83.688 20.326H87.2341V23.8721H83.688V20.326ZM90.7802 20.326H94.3263V23.8721H90.7802V20.326ZM5.67383 23.8721H9.21993V27.4182H5.67383V23.8721ZM26.9504 23.8721H30.4965V27.4182H26.9504V23.8721ZM34.0426 23.8721H37.5887V27.4182H34.0426V23.8721ZM44.6809 23.8721H48.227V27.4182H44.6809V23.8721ZM62.4114 23.8721H65.9575V27.4182H62.4114V23.8721ZM69.5036 23.8721H73.0497V27.4182H69.5036V23.8721ZM90.7802 23.8721H94.3263V27.4182H90.7802V23.8721ZM5.67383 27.4182H9.21993V30.9643H5.67383V27.4182ZM9.21993 27.4182H12.766V30.9643H9.21993V27.4182ZM12.766 27.4182H16.3121V30.9643H12.766V27.4182ZM16.3121 27.4182H19.8582V30.9643H16.3121V27.4182ZM19.8582 27.4182H23.4043V30.9643H19.8582V27.4182ZM23.4043 27.4182H26.9504V30.9643H23.4043V27.4182ZM26.9504 27.4182H30.4965V30.9643H26.9504V27.4182ZM34.0426 27.4182H37.5887V30.9643H34.0426V27.4182ZM41.1348 27.4182H44.6809V30.9643H41.1348V27.4182ZM48.227 27.4182H51.7731V30.9643H48.227V27.4182ZM55.3192 27.4182H58.8653V30.9643H55.3192V27.4182ZM62.4114 27.4182H65.9575V30.9643H62.4114V27.4182ZM69.5036 27.4182H73.0497V30.9643H69.5036V27.4182ZM73.0497 27.4182H76.5958V30.9643H73.0497V27.4182ZM76.5958 27.4182H80.1419V30.9643H76.5958V27.4182ZM80.1419 27.4182H83.688V30.9643H80.1419V27.4182ZM83.688 27.4182H87.2341V30.9643H83.688V27.4182ZM87.2341 27.4182H90.7802V30.9643H87.2341V27.4182ZM90.7802 27.4182H94.3263V30.9643H90.7802V27.4182ZM34.0426 30.9643H37.5887V34.5104H34.0426V30.9643ZM37.5887 30.9643H41.1348V34.5104H37.5887V30.9643ZM41.1348 30.9643H44.6809V34.5104H41.1348V30.9643ZM55.3192 30.9643H58.8653V34.5104H55.3192V30.9643ZM58.8653 30.9643H62.4114V34.5104H58.8653V30.9643ZM62.4114 30.9643H65.9575V34.5104H62.4114V30.9643ZM9.21993 34.5104H12.766V38.0565H9.21993V34.5104ZM12.766 34.5104H16.3121V38.0565H12.766V34.5104ZM26.9504 34.5104H30.4965V38.0565H26.9504V34.5104ZM51.7731 34.5104H55.3192V38.0565H51.7731V34.5104ZM55.3192 34.5104H58.8653V38.0565H55.3192V34.5104ZM62.4114 34.5104H65.9575V38.0565H62.4114V34.5104ZM69.5036 34.5104H73.0497V38.0565H69.5036V34.5104ZM73.0497 34.5104H76.5958V38.0565H73.0497V34.5104ZM80.1419 34.5104H83.688V38.0565H80.1419V34.5104ZM9.21993 38.0565H12.766V41.6026H9.21993V38.0565ZM12.766 38.0565H16.3121V41.6026H12.766V38.0565ZM19.8582 38.0565H23.4043V41.6026H19.8582V38.0565ZM30.4965 38.0565H34.0426V41.6026H30.4965V38.0565ZM41.1348 38.0565H44.6809V41.6026H41.1348V38.0565ZM44.6809 38.0565H48.227V41.6026H44.6809V38.0565ZM48.227 38.0565H51.7731V41.6026H48.227V38.0565ZM51.7731 38.0565H55.3192V41.6026H51.7731V38.0565ZM55.3192 38.0565H58.8653V41.6026H55.3192V38.0565ZM58.8653 38.0565H62.4114V41.6026H58.8653V38.0565ZM62.4114 38.0565H65.9575V41.6026H62.4114V38.0565ZM69.5036 38.0565H73.0497V41.6026H69.5036V38.0565ZM73.0497 38.0565H76.5958V41.6026H73.0497V38.0565ZM80.1419 38.0565H83.688V41.6026H80.1419V38.0565ZM87.2341 38.0565H90.7802V41.6026H87.2341V38.0565ZM90.7802 38.0565H94.3263V41.6026H90.7802V38.0565ZM26.9504 41.6026H30.4965V45.1487H26.9504V41.6026ZM44.6809 41.6026H48.227V45.1487H44.6809V41.6026ZM58.8653 41.6026H62.4114V45.1487H58.8653V41.6026ZM65.9575 41.6026H69.5036V45.1487H65.9575V41.6026ZM73.0497 41.6026H76.5958V45.1487H73.0497V41.6026ZM80.1419 41.6026H83.688V45.1487H80.1419V41.6026ZM83.688 41.6026H87.2341V45.1487H83.688V41.6026ZM90.7802 41.6026H94.3263V45.1487H90.7802V41.6026ZM5.67383 45.1487H9.21993V48.6948H5.67383V45.1487ZM9.21993 45.1487H12.766V48.6948H9.21993V45.1487ZM19.8582 45.1487H23.4043V48.6948H19.8582V45.1487ZM30.4965 45.1487H34.0426V48.6948H30.4965V45.1487ZM37.5887 45.1487H41.1348V48.6948H37.5887V45.1487ZM41.1348 45.1487H44.6809V48.6948H41.1348V45.1487ZM51.7731 45.1487H55.3192V48.6948H51.7731V45.1487ZM58.8653 45.1487H62.4114V48.6948H58.8653V45.1487ZM65.9575 45.1487H69.5036V48.6948H65.9575V45.1487ZM73.0497 45.1487H76.5958V48.6948H73.0497V45.1487ZM80.1419 45.1487H83.688V48.6948H80.1419V45.1487ZM5.67383 48.6948H9.21993V52.2409H5.67383V48.6948ZM9.21993 48.6948H12.766V52.2409H9.21993V48.6948ZM16.3121 48.6948H19.8582V52.2409H16.3121V48.6948ZM26.9504 48.6948H30.4965V52.2409H26.9504V48.6948ZM30.4965 48.6948H34.0426V52.2409H30.4965V48.6948ZM34.0426 48.6948H37.5887V52.2409H34.0426V48.6948ZM37.5887 48.6948H41.1348V52.2409H37.5887V48.6948ZM41.1348 48.6948H44.6809V52.2409H41.1348V48.6948ZM51.7731 48.6948H55.3192V52.2409H51.7731V48.6948ZM58.8653 48.6948H62.4114V52.2409H58.8653V48.6948ZM62.4114 48.6948H65.9575V52.2409H62.4114V48.6948ZM69.5036 48.6948H73.0497V52.2409H69.5036V48.6948ZM73.0497 48.6948H76.5958V52.2409H73.0497V48.6948ZM90.7802 48.6948H94.3263V52.2409H90.7802V48.6948ZM12.766 52.2409H16.3121V55.787H12.766V52.2409ZM16.3121 52.2409H19.8582V55.787H16.3121V52.2409ZM19.8582 52.2409H23.4043V55.787H19.8582V52.2409ZM41.1348 52.2409H44.6809V55.787H41.1348V52.2409ZM44.6809 52.2409H48.227V55.787H44.6809V52.2409ZM48.227 52.2409H51.7731V55.787H48.227V52.2409ZM58.8653 52.2409H62.4114V55.787H58.8653V52.2409ZM62.4114 52.2409H65.9575V55.787H62.4114V52.2409ZM69.5036 52.2409H73.0497V55.787H69.5036V52.2409ZM73.0497 52.2409H76.5958V55.787H73.0497V52.2409ZM87.2341 52.2409H90.7802V55.787H87.2341V52.2409ZM90.7802 52.2409H94.3263V55.787H90.7802V52.2409ZM5.67383 55.787H9.21993V59.3331H5.67383V55.787ZM9.21993 55.787H12.766V59.3331H9.21993V55.787ZM16.3121 55.787H19.8582V59.3331H16.3121V55.787ZM23.4043 55.787H26.9504V59.3331H23.4043V55.787ZM26.9504 55.787H30.4965V59.3331H26.9504V55.787ZM34.0426 55.787H37.5887V59.3331H34.0426V55.787ZM37.5887 55.787H41.1348V59.3331H37.5887V55.787ZM41.1348 55.787H44.6809V59.3331H41.1348V55.787ZM48.227 55.787H51.7731V59.3331H48.227V55.787ZM58.8653 55.787H62.4114V59.3331H58.8653V55.787ZM62.4114 55.787H65.9575V59.3331H62.4114V55.787ZM69.5036 55.787H73.0497V59.3331H69.5036V55.787ZM80.1419 55.787H83.688V59.3331H80.1419V55.787ZM83.688 55.787H87.2341V59.3331H83.688V55.787ZM90.7802 55.787H94.3263V59.3331H90.7802V55.787ZM12.766 59.3331H16.3121V62.8792H12.766V59.3331ZM16.3121 59.3331H19.8582V62.8792H16.3121V59.3331ZM19.8582 59.3331H23.4043V62.8792H19.8582V59.3331ZM30.4965 59.3331H34.0426V62.8792H30.4965V59.3331ZM41.1348 59.3331H44.6809V62.8792H41.1348V59.3331ZM55.3192 59.3331H58.8653V62.8792H55.3192V59.3331ZM58.8653 59.3331H62.4114V62.8792H58.8653V59.3331ZM62.4114 59.3331H65.9575V62.8792H62.4114V59.3331ZM65.9575 59.3331H69.5036V62.8792H65.9575V59.3331ZM69.5036 59.3331H73.0497V62.8792H69.5036V59.3331ZM73.0497 59.3331H76.5958V62.8792H73.0497V59.3331ZM76.5958 59.3331H80.1419V62.8792H76.5958V59.3331ZM80.1419 59.3331H83.688V62.8792H80.1419V59.3331ZM5.67383 62.8792H9.21993V66.4253H5.67383V62.8792ZM9.21993 62.8792H12.766V66.4253H9.21993V62.8792ZM12.766 62.8792H16.3121V66.4253H12.766V62.8792ZM19.8582 62.8792H23.4043V66.4253H19.8582V62.8792ZM26.9504 62.8792H30.4965V66.4253H26.9504V62.8792ZM34.0426 62.8792H37.5887V66.4253H34.0426V62.8792ZM44.6809 62.8792H48.227V66.4253H44.6809V62.8792ZM62.4114 62.8792H65.9575V66.4253H62.4114V62.8792ZM65.9575 62.8792H69.5036V66.4253H65.9575V62.8792ZM69.5036 62.8792H73.0497V66.4253H69.5036V62.8792ZM73.0497 62.8792H76.5958V66.4253H73.0497V62.8792ZM76.5958 62.8792H80.1419V66.4253H76.5958V62.8792ZM87.2341 62.8792H90.7802V66.4253H87.2341V62.8792ZM34.0426 66.4253H37.5887V69.9714H34.0426V66.4253ZM37.5887 66.4253H41.1348V69.9714H37.5887V66.4253ZM41.1348 66.4253H44.6809V69.9714H41.1348V66.4253ZM44.6809 66.4253H48.227V69.9714H44.6809V66.4253ZM51.7731 66.4253H55.3192V69.9714H51.7731V66.4253ZM55.3192 66.4253H58.8653V69.9714H55.3192V66.4253ZM62.4114 66.4253H65.9575V69.9714H62.4114V66.4253ZM76.5958 66.4253H80.1419V69.9714H76.5958V66.4253ZM90.7802 66.4253H94.3263V69.9714H90.7802V66.4253ZM5.67383 69.9714H9.21993V73.5175H5.67383V69.9714ZM9.21993 69.9714H12.766V73.5175H9.21993V69.9714ZM12.766 69.9714H16.3121V73.5175H12.766V69.9714ZM16.3121 69.9714H19.8582V73.5175H16.3121V69.9714ZM19.8582 69.9714H23.4043V73.5175H19.8582V69.9714ZM23.4043 69.9714H26.9504V73.5175H23.4043V69.9714ZM26.9504 69.9714H30.4965V73.5175H26.9504V69.9714ZM41.1348 69.9714H44.6809V73.5175H41.1348V69.9714ZM44.6809 69.9714H48.227V73.5175H44.6809V69.9714ZM55.3192 69.9714H58.8653V73.5175H55.3192V69.9714ZM62.4114 69.9714H65.9575V73.5175H62.4114V69.9714ZM69.5036 69.9714H73.0497V73.5175H69.5036V69.9714ZM76.5958 69.9714H80.1419V73.5175H76.5958V69.9714ZM90.7802 69.9714H94.3263V73.5175H90.7802V69.9714ZM5.67383 73.5175H9.21993V77.0636H5.67383V73.5175ZM26.9504 73.5175H30.4965V77.0636H26.9504V73.5175ZM37.5887 73.5175H41.1348V77.0636H37.5887V73.5175ZM41.1348 73.5175H44.6809V77.0636H41.1348V73.5175ZM48.227 73.5175H51.7731V77.0636H48.227V73.5175ZM51.7731 73.5175H55.3192V77.0636H51.7731V73.5175ZM62.4114 73.5175H65.9575V77.0636H62.4114V73.5175ZM76.5958 73.5175H80.1419V77.0636H76.5958V73.5175ZM87.2341 73.5175H90.7802V77.0636H87.2341V73.5175ZM5.67383 77.0636H9.21993V80.6097H5.67383V77.0636ZM12.766 77.0636H16.3121V80.6097H12.766V77.0636ZM16.3121 77.0636H19.8582V80.6097H16.3121V77.0636ZM19.8582 77.0636H23.4043V80.6097H19.8582V77.0636ZM26.9504 77.0636H30.4965V80.6097H26.9504V77.0636ZM37.5887 77.0636H41.1348V80.6097H37.5887V77.0636ZM41.1348 77.0636H44.6809V80.6097H41.1348V77.0636ZM55.3192 77.0636H58.8653V80.6097H55.3192V77.0636ZM58.8653 77.0636H62.4114V80.6097H58.8653V77.0636ZM62.4114 77.0636H65.9575V80.6097H62.4114V77.0636ZM65.9575 77.0636H69.5036V80.6097H65.9575V77.0636ZM69.5036 77.0636H73.0497V80.6097H69.5036V77.0636ZM73.0497 77.0636H76.5958V80.6097H73.0497V77.0636ZM76.5958 77.0636H80.1419V80.6097H76.5958V77.0636ZM87.2341 77.0636H90.7802V80.6097H87.2341V77.0636ZM90.7802 77.0636H94.3263V80.6097H90.7802V77.0636ZM5.67383 80.6097H9.21993V84.1558H5.67383V80.6097ZM12.766 80.6097H16.3121V84.1558H12.766V80.6097ZM16.3121 80.6097H19.8582V84.1558H16.3121V80.6097ZM19.8582 80.6097H23.4043V84.1558H19.8582V80.6097ZM26.9504 80.6097H30.4965V84.1558H26.9504V80.6097ZM37.5887 80.6097H41.1348V84.1558H37.5887V80.6097ZM41.1348 80.6097H44.6809V84.1558H41.1348V80.6097ZM44.6809 80.6097H48.227V84.1558H44.6809V80.6097ZM48.227 80.6097H51.7731V84.1558H48.227V80.6097ZM58.8653 80.6097H62.4114V84.1558H58.8653V80.6097ZM65.9575 80.6097H69.5036V84.1558H65.9575V80.6097ZM76.5958 80.6097H80.1419V84.1558H76.5958V80.6097ZM83.688 80.6097H87.2341V84.1558H83.688V80.6097ZM87.2341 80.6097H90.7802V84.1558H87.2341V80.6097ZM5.67383 84.1558H9.21993V87.7019H5.67383V84.1558ZM12.766 84.1558H16.3121V87.7019H12.766V84.1558ZM16.3121 84.1558H19.8582V87.7019H16.3121V84.1558ZM19.8582 84.1558H23.4043V87.7019H19.8582V84.1558ZM26.9504 84.1558H30.4965V87.7019H26.9504V84.1558ZM34.0426 84.1558H37.5887V87.7019H34.0426V84.1558ZM51.7731 84.1558H55.3192V87.7019H51.7731V84.1558ZM55.3192 84.1558H58.8653V87.7019H55.3192V84.1558ZM58.8653 84.1558H62.4114V87.7019H58.8653V84.1558ZM62.4114 84.1558H65.9575V87.7019H62.4114V84.1558ZM65.9575 84.1558H69.5036V87.7019H65.9575V84.1558ZM73.0497 84.1558H76.5958V87.7019H73.0497V84.1558ZM76.5958 84.1558H80.1419V87.7019H76.5958V84.1558ZM80.1419 84.1558H83.688V87.7019H80.1419V84.1558ZM87.2341 84.1558H90.7802V87.7019H87.2341V84.1558ZM90.7802 84.1558H94.3263V87.7019H90.7802V84.1558ZM5.67383 87.7019H9.21993V91.248H5.67383V87.7019ZM26.9504 87.7019H30.4965V91.248H26.9504V87.7019ZM34.0426 87.7019H37.5887V91.248H34.0426V87.7019ZM37.5887 87.7019H41.1348V91.248H37.5887V87.7019ZM41.1348 87.7019H44.6809V91.248H41.1348V87.7019ZM51.7731 87.7019H55.3192V91.248H51.7731V87.7019ZM62.4114 87.7019H65.9575V91.248H62.4114V87.7019ZM65.9575 87.7019H69.5036V91.248H65.9575V87.7019ZM69.5036 87.7019H73.0497V91.248H69.5036V87.7019ZM73.0497 87.7019H76.5958V91.248H73.0497V87.7019ZM76.5958 87.7019H80.1419V91.248H76.5958V87.7019ZM5.67383 91.248H9.21993V94.7941H5.67383V91.248ZM9.21993 91.248H12.766V94.7941H9.21993V91.248ZM12.766 91.248H16.3121V94.7941H12.766V91.248ZM16.3121 91.248H19.8582V94.7941H16.3121V91.248ZM19.8582 91.248H23.4043V94.7941H19.8582V91.248ZM23.4043 91.248H26.9504V94.7941H23.4043V91.248ZM26.9504 91.248H30.4965V94.7941H26.9504V91.248ZM41.1348 91.248H44.6809V94.7941H41.1348V91.248ZM48.227 91.248H51.7731V94.7941H48.227V91.248ZM62.4114 91.248H65.9575V94.7941H62.4114V91.248ZM69.5036 91.248H73.0497V94.7941H69.5036V91.248ZM80.1419 91.248H83.688V94.7941H80.1419V91.248ZM90.7802 91.248H94.3263V94.7941H90.7802V91.248Z" fill="black"/>
</svg>
