<svg width="101" height="101" viewBox="0 0 101 101" fill="none" xmlns="http://www.w3.org/2000/svg">
<rect width="100" height="100" transform="translate(0.857422 0.467773)" fill="white"/>
<path d="M6.53125 6.1416H10.0773V9.6877H6.53125V6.1416ZM10.0773 6.1416H13.6234V9.6877H10.0773V6.1416ZM13.6234 6.1416H17.1695V9.6877H13.6234V6.1416ZM17.1695 6.1416H20.7156V9.6877H17.1695V6.1416ZM20.7156 6.1416H24.2617V9.6877H20.7156V6.1416ZM24.2617 6.1416H27.8078V9.6877H24.2617V6.1416ZM27.8078 6.1416H31.3539V9.6877H27.8078V6.1416ZM45.5383 6.1416H49.0844V9.6877H45.5383V6.1416ZM56.1766 6.1416H59.7227V9.6877H56.1766V6.1416ZM59.7227 6.1416H63.2688V9.6877H59.7227V6.1416ZM63.2688 6.1416H66.8149V9.6877H63.2688V6.1416ZM70.361 6.1416H73.9071V9.6877H70.361V6.1416ZM73.9071 6.1416H77.4532V9.6877H73.9071V6.1416ZM77.4532 6.1416H80.9993V9.6877H77.4532V6.1416ZM80.9993 6.1416H84.5454V9.6877H80.9993V6.1416ZM84.5454 6.1416H88.0915V9.6877H84.5454V6.1416ZM88.0915 6.1416H91.6376V9.6877H88.0915V6.1416ZM91.6376 6.1416H95.1837V9.6877H91.6376V6.1416ZM6.53125 9.6877H10.0773V13.2338H6.53125V9.6877ZM27.8078 9.6877H31.3539V13.2338H27.8078V9.6877ZM38.4461 9.6877H41.9922V13.2338H38.4461V9.6877ZM52.6305 9.6877H56.1766V13.2338H52.6305V9.6877ZM56.1766 9.6877H59.7227V13.2338H56.1766V9.6877ZM63.2688 9.6877H66.8149V13.2338H63.2688V9.6877ZM70.361 9.6877H73.9071V13.2338H70.361V9.6877ZM91.6376 9.6877H95.1837V13.2338H91.6376V9.6877ZM6.53125 13.2338H10.0773V16.7799H6.53125V13.2338ZM13.6234 13.2338H17.1695V16.7799H13.6234V13.2338ZM17.1695 13.2338H20.7156V16.7799H17.1695V13.2338ZM20.7156 13.2338H24.2617V16.7799H20.7156V13.2338ZM27.8078 13.2338H31.3539V16.7799H27.8078V13.2338ZM38.4461 13.2338H41.9922V16.7799H38.4461V13.2338ZM41.9922 13.2338H45.5383V16.7799H41.9922V13.2338ZM49.0844 13.2338H52.6305V16.7799H49.0844V13.2338ZM56.1766 13.2338H59.7227V16.7799H56.1766V13.2338ZM59.7227 13.2338H63.2688V16.7799H59.7227V13.2338ZM70.361 13.2338H73.9071V16.7799H70.361V13.2338ZM77.4532 13.2338H80.9993V16.7799H77.4532V13.2338ZM80.9993 13.2338H84.5454V16.7799H80.9993V13.2338ZM84.5454 13.2338H88.0915V16.7799H84.5454V13.2338ZM91.6376 13.2338H95.1837V16.7799H91.6376V13.2338ZM6.53125 16.7799H10.0773V20.326H6.53125V16.7799ZM13.6234 16.7799H17.1695V20.326H13.6234V16.7799ZM17.1695 16.7799H20.7156V20.326H17.1695V16.7799ZM20.7156 16.7799H24.2617V20.326H20.7156V16.7799ZM27.8078 16.7799H31.3539V20.326H27.8078V16.7799ZM34.9 16.7799H38.4461V20.326H34.9V16.7799ZM38.4461 16.7799H41.9922V20.326H38.4461V16.7799ZM49.0844 16.7799H52.6305V20.326H49.0844V16.7799ZM56.1766 16.7799H59.7227V20.326H56.1766V16.7799ZM59.7227 16.7799H63.2688V20.326H59.7227V16.7799ZM70.361 16.7799H73.9071V20.326H70.361V16.7799ZM77.4532 16.7799H80.9993V20.326H77.4532V16.7799ZM80.9993 16.7799H84.5454V20.326H80.9993V16.7799ZM84.5454 16.7799H88.0915V20.326H84.5454V16.7799ZM91.6376 16.7799H95.1837V20.326H91.6376V16.7799ZM6.53125 20.326H10.0773V23.8721H6.53125V20.326ZM13.6234 20.326H17.1695V23.8721H13.6234V20.326ZM17.1695 20.326H20.7156V23.8721H17.1695V20.326ZM20.7156 20.326H24.2617V23.8721H20.7156V20.326ZM27.8078 20.326H31.3539V23.8721H27.8078V20.326ZM41.9922 20.326H45.5383V23.8721H41.9922V20.326ZM45.5383 20.326H49.0844V23.8721H45.5383V20.326ZM49.0844 20.326H52.6305V23.8721H49.0844V20.326ZM52.6305 20.326H56.1766V23.8721H52.6305V20.326ZM56.1766 20.326H59.7227V23.8721H56.1766V20.326ZM70.361 20.326H73.9071V23.8721H70.361V20.326ZM77.4532 20.326H80.9993V23.8721H77.4532V20.326ZM80.9993 20.326H84.5454V23.8721H80.9993V20.326ZM84.5454 20.326H88.0915V23.8721H84.5454V20.326ZM91.6376 20.326H95.1837V23.8721H91.6376V20.326ZM6.53125 23.8721H10.0773V27.4182H6.53125V23.8721ZM27.8078 23.8721H31.3539V27.4182H27.8078V23.8721ZM34.9 23.8721H38.4461V27.4182H34.9V23.8721ZM45.5383 23.8721H49.0844V27.4182H45.5383V23.8721ZM63.2688 23.8721H66.8149V27.4182H63.2688V23.8721ZM70.361 23.8721H73.9071V27.4182H70.361V23.8721ZM91.6376 23.8721H95.1837V27.4182H91.6376V23.8721ZM6.53125 27.4182H10.0773V30.9643H6.53125V27.4182ZM10.0773 27.4182H13.6234V30.9643H10.0773V27.4182ZM13.6234 27.4182H17.1695V30.9643H13.6234V27.4182ZM17.1695 27.4182H20.7156V30.9643H17.1695V27.4182ZM20.7156 27.4182H24.2617V30.9643H20.7156V27.4182ZM24.2617 27.4182H27.8078V30.9643H24.2617V27.4182ZM27.8078 27.4182H31.3539V30.9643H27.8078V27.4182ZM34.9 27.4182H38.4461V30.9643H34.9V27.4182ZM41.9922 27.4182H45.5383V30.9643H41.9922V27.4182ZM49.0844 27.4182H52.6305V30.9643H49.0844V27.4182ZM56.1766 27.4182H59.7227V30.9643H56.1766V27.4182ZM63.2688 27.4182H66.8149V30.9643H63.2688V27.4182ZM70.361 27.4182H73.9071V30.9643H70.361V27.4182ZM73.9071 27.4182H77.4532V30.9643H73.9071V27.4182ZM77.4532 27.4182H80.9993V30.9643H77.4532V27.4182ZM80.9993 27.4182H84.5454V30.9643H80.9993V27.4182ZM84.5454 27.4182H88.0915V30.9643H84.5454V27.4182ZM88.0915 27.4182H91.6376V30.9643H88.0915V27.4182ZM91.6376 27.4182H95.1837V30.9643H91.6376V27.4182ZM34.9 30.9643H38.4461V34.5104H34.9V30.9643ZM38.4461 30.9643H41.9922V34.5104H38.4461V30.9643ZM41.9922 30.9643H45.5383V34.5104H41.9922V30.9643ZM56.1766 30.9643H59.7227V34.5104H56.1766V30.9643ZM59.7227 30.9643H63.2688V34.5104H59.7227V30.9643ZM63.2688 30.9643H66.8149V34.5104H63.2688V30.9643ZM10.0773 34.5104H13.6234V38.0565H10.0773V34.5104ZM13.6234 34.5104H17.1695V38.0565H13.6234V34.5104ZM27.8078 34.5104H31.3539V38.0565H27.8078V34.5104ZM52.6305 34.5104H56.1766V38.0565H52.6305V34.5104ZM56.1766 34.5104H59.7227V38.0565H56.1766V34.5104ZM63.2688 34.5104H66.8149V38.0565H63.2688V34.5104ZM70.361 34.5104H73.9071V38.0565H70.361V34.5104ZM73.9071 34.5104H77.4532V38.0565H73.9071V34.5104ZM80.9993 34.5104H84.5454V38.0565H80.9993V34.5104ZM10.0773 38.0565H13.6234V41.6026H10.0773V38.0565ZM13.6234 38.0565H17.1695V41.6026H13.6234V38.0565ZM20.7156 38.0565H24.2617V41.6026H20.7156V38.0565ZM31.3539 38.0565H34.9V41.6026H31.3539V38.0565ZM41.9922 38.0565H45.5383V41.6026H41.9922V38.0565ZM45.5383 38.0565H49.0844V41.6026H45.5383V38.0565ZM49.0844 38.0565H52.6305V41.6026H49.0844V38.0565ZM52.6305 38.0565H56.1766V41.6026H52.6305V38.0565ZM56.1766 38.0565H59.7227V41.6026H56.1766V38.0565ZM59.7227 38.0565H63.2688V41.6026H59.7227V38.0565ZM63.2688 38.0565H66.8149V41.6026H63.2688V38.0565ZM70.361 38.0565H73.9071V41.6026H70.361V38.0565ZM73.9071 38.0565H77.4532V41.6026H73.9071V38.0565ZM80.9993 38.0565H84.5454V41.6026H80.9993V38.0565ZM88.0915 38.0565H91.6376V41.6026H88.0915V38.0565ZM91.6376 38.0565H95.1837V41.6026H91.6376V38.0565ZM27.8078 41.6026H31.3539V45.1487H27.8078V41.6026ZM45.5383 41.6026H49.0844V45.1487H45.5383V41.6026ZM59.7227 41.6026H63.2688V45.1487H59.7227V41.6026ZM66.8149 41.6026H70.361V45.1487H66.8149V41.6026ZM73.9071 41.6026H77.4532V45.1487H73.9071V41.6026ZM80.9993 41.6026H84.5454V45.1487H80.9993V41.6026ZM84.5454 41.6026H88.0915V45.1487H84.5454V41.6026ZM91.6376 41.6026H95.1837V45.1487H91.6376V41.6026ZM6.53125 45.1487H10.0773V48.6948H6.53125V45.1487ZM10.0773 45.1487H13.6234V48.6948H10.0773V45.1487ZM20.7156 45.1487H24.2617V48.6948H20.7156V45.1487ZM31.3539 45.1487H34.9V48.6948H31.3539V45.1487ZM38.4461 45.1487H41.9922V48.6948H38.4461V45.1487ZM41.9922 45.1487H45.5383V48.6948H41.9922V45.1487ZM52.6305 45.1487H56.1766V48.6948H52.6305V45.1487ZM59.7227 45.1487H63.2688V48.6948H59.7227V45.1487ZM66.8149 45.1487H70.361V48.6948H66.8149V45.1487ZM73.9071 45.1487H77.4532V48.6948H73.9071V45.1487ZM80.9993 45.1487H84.5454V48.6948H80.9993V45.1487ZM6.53125 48.6948H10.0773V52.2409H6.53125V48.6948ZM10.0773 48.6948H13.6234V52.2409H10.0773V48.6948ZM17.1695 48.6948H20.7156V52.2409H17.1695V48.6948ZM27.8078 48.6948H31.3539V52.2409H27.8078V48.6948ZM31.3539 48.6948H34.9V52.2409H31.3539V48.6948ZM34.9 48.6948H38.4461V52.2409H34.9V48.6948ZM38.4461 48.6948H41.9922V52.2409H38.4461V48.6948ZM41.9922 48.6948H45.5383V52.2409H41.9922V48.6948ZM52.6305 48.6948H56.1766V52.2409H52.6305V48.6948ZM59.7227 48.6948H63.2688V52.2409H59.7227V48.6948ZM63.2688 48.6948H66.8149V52.2409H63.2688V48.6948ZM70.361 48.6948H73.9071V52.2409H70.361V48.6948ZM73.9071 48.6948H77.4532V52.2409H73.9071V48.6948ZM91.6376 48.6948H95.1837V52.2409H91.6376V48.6948ZM13.6234 52.2409H17.1695V55.787H13.6234V52.2409ZM17.1695 52.2409H20.7156V55.787H17.1695V52.2409ZM20.7156 52.2409H24.2617V55.787H20.7156V52.2409ZM41.9922 52.2409H45.5383V55.787H41.9922V52.2409ZM45.5383 52.2409H49.0844V55.787H45.5383V52.2409ZM49.0844 52.2409H52.6305V55.787H49.0844V52.2409ZM59.7227 52.2409H63.2688V55.787H59.7227V52.2409ZM63.2688 52.2409H66.8149V55.787H63.2688V52.2409ZM70.361 52.2409H73.9071V55.787H70.361V52.2409ZM73.9071 52.2409H77.4532V55.787H73.9071V52.2409ZM88.0915 52.2409H91.6376V55.787H88.0915V52.2409ZM91.6376 52.2409H95.1837V55.787H91.6376V52.2409ZM6.53125 55.787H10.0773V59.3331H6.53125V55.787ZM10.0773 55.787H13.6234V59.3331H10.0773V55.787ZM17.1695 55.787H20.7156V59.3331H17.1695V55.787ZM24.2617 55.787H27.8078V59.3331H24.2617V55.787ZM27.8078 55.787H31.3539V59.3331H27.8078V55.787ZM34.9 55.787H38.4461V59.3331H34.9V55.787ZM38.4461 55.787H41.9922V59.3331H38.4461V55.787ZM41.9922 55.787H45.5383V59.3331H41.9922V55.787ZM49.0844 55.787H52.6305V59.3331H49.0844V55.787ZM59.7227 55.787H63.2688V59.3331H59.7227V55.787ZM63.2688 55.787H66.8149V59.3331H63.2688V55.787ZM70.361 55.787H73.9071V59.3331H70.361V55.787ZM80.9993 55.787H84.5454V59.3331H80.9993V55.787ZM84.5454 55.787H88.0915V59.3331H84.5454V55.787ZM91.6376 55.787H95.1837V59.3331H91.6376V55.787ZM13.6234 59.3331H17.1695V62.8792H13.6234V59.3331ZM17.1695 59.3331H20.7156V62.8792H17.1695V59.3331ZM20.7156 59.3331H24.2617V62.8792H20.7156V59.3331ZM31.3539 59.3331H34.9V62.8792H31.3539V59.3331ZM41.9922 59.3331H45.5383V62.8792H41.9922V59.3331ZM56.1766 59.3331H59.7227V62.8792H56.1766V59.3331ZM59.7227 59.3331H63.2688V62.8792H59.7227V59.3331ZM63.2688 59.3331H66.8149V62.8792H63.2688V59.3331ZM66.8149 59.3331H70.361V62.8792H66.8149V59.3331ZM70.361 59.3331H73.9071V62.8792H70.361V59.3331ZM73.9071 59.3331H77.4532V62.8792H73.9071V59.3331ZM77.4532 59.3331H80.9993V62.8792H77.4532V59.3331ZM80.9993 59.3331H84.5454V62.8792H80.9993V59.3331ZM6.53125 62.8792H10.0773V66.4253H6.53125V62.8792ZM10.0773 62.8792H13.6234V66.4253H10.0773V62.8792ZM13.6234 62.8792H17.1695V66.4253H13.6234V62.8792ZM20.7156 62.8792H24.2617V66.4253H20.7156V62.8792ZM27.8078 62.8792H31.3539V66.4253H27.8078V62.8792ZM34.9 62.8792H38.4461V66.4253H34.9V62.8792ZM45.5383 62.8792H49.0844V66.4253H45.5383V62.8792ZM63.2688 62.8792H66.8149V66.4253H63.2688V62.8792ZM66.8149 62.8792H70.361V66.4253H66.8149V62.8792ZM70.361 62.8792H73.9071V66.4253H70.361V62.8792ZM73.9071 62.8792H77.4532V66.4253H73.9071V62.8792ZM77.4532 62.8792H80.9993V66.4253H77.4532V62.8792ZM88.0915 62.8792H91.6376V66.4253H88.0915V62.8792ZM34.9 66.4253H38.4461V69.9714H34.9V66.4253ZM38.4461 66.4253H41.9922V69.9714H38.4461V66.4253ZM41.9922 66.4253H45.5383V69.9714H41.9922V66.4253ZM45.5383 66.4253H49.0844V69.9714H45.5383V66.4253ZM52.6305 66.4253H56.1766V69.9714H52.6305V66.4253ZM56.1766 66.4253H59.7227V69.9714H56.1766V66.4253ZM63.2688 66.4253H66.8149V69.9714H63.2688V66.4253ZM77.4532 66.4253H80.9993V69.9714H77.4532V66.4253ZM91.6376 66.4253H95.1837V69.9714H91.6376V66.4253ZM6.53125 69.9714H10.0773V73.5175H6.53125V69.9714ZM10.0773 69.9714H13.6234V73.5175H10.0773V69.9714ZM13.6234 69.9714H17.1695V73.5175H13.6234V69.9714ZM17.1695 69.9714H20.7156V73.5175H17.1695V69.9714ZM20.7156 69.9714H24.2617V73.5175H20.7156V69.9714ZM24.2617 69.9714H27.8078V73.5175H24.2617V69.9714ZM27.8078 69.9714H31.3539V73.5175H27.8078V69.9714ZM41.9922 69.9714H45.5383V73.5175H41.9922V69.9714ZM45.5383 69.9714H49.0844V73.5175H45.5383V69.9714ZM56.1766 69.9714H59.7227V73.5175H56.1766V69.9714ZM63.2688 69.9714H66.8149V73.5175H63.2688V69.9714ZM70.361 69.9714H73.9071V73.5175H70.361V69.9714ZM77.4532 69.9714H80.9993V73.5175H77.4532V69.9714ZM91.6376 69.9714H95.1837V73.5175H91.6376V69.9714ZM6.53125 73.5175H10.0773V77.0636H6.53125V73.5175ZM27.8078 73.5175H31.3539V77.0636H27.8078V73.5175ZM38.4461 73.5175H41.9922V77.0636H38.4461V73.5175ZM41.9922 73.5175H45.5383V77.0636H41.9922V73.5175ZM49.0844 73.5175H52.6305V77.0636H49.0844V73.5175ZM52.6305 73.5175H56.1766V77.0636H52.6305V73.5175ZM63.2688 73.5175H66.8149V77.0636H63.2688V73.5175ZM77.4532 73.5175H80.9993V77.0636H77.4532V73.5175ZM88.0915 73.5175H91.6376V77.0636H88.0915V73.5175ZM6.53125 77.0636H10.0773V80.6097H6.53125V77.0636ZM13.6234 77.0636H17.1695V80.6097H13.6234V77.0636ZM17.1695 77.0636H20.7156V80.6097H17.1695V77.0636ZM20.7156 77.0636H24.2617V80.6097H20.7156V77.0636ZM27.8078 77.0636H31.3539V80.6097H27.8078V77.0636ZM38.4461 77.0636H41.9922V80.6097H38.4461V77.0636ZM41.9922 77.0636H45.5383V80.6097H41.9922V77.0636ZM56.1766 77.0636H59.7227V80.6097H56.1766V77.0636ZM59.7227 77.0636H63.2688V80.6097H59.7227V77.0636ZM63.2688 77.0636H66.8149V80.6097H63.2688V77.0636ZM66.8149 77.0636H70.361V80.6097H66.8149V77.0636ZM70.361 77.0636H73.9071V80.6097H70.361V77.0636ZM73.9071 77.0636H77.4532V80.6097H73.9071V77.0636ZM77.4532 77.0636H80.9993V80.6097H77.4532V77.0636ZM88.0915 77.0636H91.6376V80.6097H88.0915V77.0636ZM91.6376 77.0636H95.1837V80.6097H91.6376V77.0636ZM6.53125 80.6097H10.0773V84.1558H6.53125V80.6097ZM13.6234 80.6097H17.1695V84.1558H13.6234V80.6097ZM17.1695 80.6097H20.7156V84.1558H17.1695V80.6097ZM20.7156 80.6097H24.2617V84.1558H20.7156V80.6097ZM27.8078 80.6097H31.3539V84.1558H27.8078V80.6097ZM38.4461 80.6097H41.9922V84.1558H38.4461V80.6097ZM41.9922 80.6097H45.5383V84.1558H41.9922V80.6097ZM45.5383 80.6097H49.0844V84.1558H45.5383V80.6097ZM49.0844 80.6097H52.6305V84.1558H49.0844V80.6097ZM59.7227 80.6097H63.2688V84.1558H59.7227V80.6097ZM66.8149 80.6097H70.361V84.1558H66.8149V80.6097ZM77.4532 80.6097H80.9993V84.1558H77.4532V80.6097ZM84.5454 80.6097H88.0915V84.1558H84.5454V80.6097ZM88.0915 80.6097H91.6376V84.1558H88.0915V80.6097ZM6.53125 84.1558H10.0773V87.7019H6.53125V84.1558ZM13.6234 84.1558H17.1695V87.7019H13.6234V84.1558ZM17.1695 84.1558H20.7156V87.7019H17.1695V84.1558ZM20.7156 84.1558H24.2617V87.7019H20.7156V84.1558ZM27.8078 84.1558H31.3539V87.7019H27.8078V84.1558ZM34.9 84.1558H38.4461V87.7019H34.9V84.1558ZM52.6305 84.1558H56.1766V87.7019H52.6305V84.1558ZM56.1766 84.1558H59.7227V87.7019H56.1766V84.1558ZM59.7227 84.1558H63.2688V87.7019H59.7227V84.1558ZM63.2688 84.1558H66.8149V87.7019H63.2688V84.1558ZM66.8149 84.1558H70.361V87.7019H66.8149V84.1558ZM73.9071 84.1558H77.4532V87.7019H73.9071V84.1558ZM77.4532 84.1558H80.9993V87.7019H77.4532V84.1558ZM80.9993 84.1558H84.5454V87.7019H80.9993V84.1558ZM88.0915 84.1558H91.6376V87.7019H88.0915V84.1558ZM91.6376 84.1558H95.1837V87.7019H91.6376V84.1558ZM6.53125 87.7019H10.0773V91.248H6.53125V87.7019ZM27.8078 87.7019H31.3539V91.248H27.8078V87.7019ZM34.9 87.7019H38.4461V91.248H34.9V87.7019ZM38.4461 87.7019H41.9922V91.248H38.4461V87.7019ZM41.9922 87.7019H45.5383V91.248H41.9922V87.7019ZM52.6305 87.7019H56.1766V91.248H52.6305V87.7019ZM63.2688 87.7019H66.8149V91.248H63.2688V87.7019ZM66.8149 87.7019H70.361V91.248H66.8149V87.7019ZM70.361 87.7019H73.9071V91.248H70.361V87.7019ZM73.9071 87.7019H77.4532V91.248H73.9071V87.7019ZM77.4532 87.7019H80.9993V91.248H77.4532V87.7019ZM6.53125 91.248H10.0773V94.7941H6.53125V91.248ZM10.0773 91.248H13.6234V94.7941H10.0773V91.248ZM13.6234 91.248H17.1695V94.7941H13.6234V91.248ZM17.1695 91.248H20.7156V94.7941H17.1695V91.248ZM20.7156 91.248H24.2617V94.7941H20.7156V91.248ZM24.2617 91.248H27.8078V94.7941H24.2617V91.248ZM27.8078 91.248H31.3539V94.7941H27.8078V91.248ZM41.9922 91.248H45.5383V94.7941H41.9922V91.248ZM49.0844 91.248H52.6305V94.7941H49.0844V91.248ZM63.2688 91.248H66.8149V94.7941H63.2688V91.248ZM70.361 91.248H73.9071V94.7941H70.361V91.248ZM80.9993 91.248H84.5454V94.7941H80.9993V91.248ZM91.6376 91.248H95.1837V94.7941H91.6376V91.248Z" fill="black"/>
</svg>
