<svg width="101" height="101" viewBox="0 0 101 101" fill="none" xmlns="http://www.w3.org/2000/svg">
<rect width="100" height="100" transform="translate(0.713867 0.467773)" fill="white"/>
<path d="M6.3877 6.1416H9.93379V9.6877H6.3877V6.1416ZM9.93379 6.1416H13.4799V9.6877H9.93379V6.1416ZM13.4799 6.1416H17.026V9.6877H13.4799V6.1416ZM17.026 6.1416H20.5721V9.6877H17.026V6.1416ZM20.5721 6.1416H24.1182V9.6877H20.5721V6.1416ZM24.1182 6.1416H27.6643V9.6877H24.1182V6.1416ZM27.6643 6.1416H31.2104V9.6877H27.6643V6.1416ZM45.3948 6.1416H48.9409V9.6877H45.3948V6.1416ZM56.0331 6.1416H59.5792V9.6877H56.0331V6.1416ZM59.5792 6.1416H63.1253V9.6877H59.5792V6.1416ZM63.1253 6.1416H66.6714V9.6877H63.1253V6.1416ZM70.2175 6.1416H73.7636V9.6877H70.2175V6.1416ZM73.7636 6.1416H77.3097V9.6877H73.7636V6.1416ZM77.3097 6.1416H80.8558V9.6877H77.3097V6.1416ZM80.8558 6.1416H84.4019V9.6877H80.8558V6.1416ZM84.4019 6.1416H87.948V9.6877H84.4019V6.1416ZM87.948 6.1416H91.4941V9.6877H87.948V6.1416ZM91.4941 6.1416H95.0402V9.6877H91.4941V6.1416ZM6.3877 9.6877H9.93379V13.2338H6.3877V9.6877ZM27.6643 9.6877H31.2104V13.2338H27.6643V9.6877ZM38.3026 9.6877H41.8487V13.2338H38.3026V9.6877ZM52.487 9.6877H56.0331V13.2338H52.487V9.6877ZM56.0331 9.6877H59.5792V13.2338H56.0331V9.6877ZM63.1253 9.6877H66.6714V13.2338H63.1253V9.6877ZM70.2175 9.6877H73.7636V13.2338H70.2175V9.6877ZM91.4941 9.6877H95.0402V13.2338H91.4941V9.6877ZM6.3877 13.2338H9.93379V16.7799H6.3877V13.2338ZM13.4799 13.2338H17.026V16.7799H13.4799V13.2338ZM17.026 13.2338H20.5721V16.7799H17.026V13.2338ZM20.5721 13.2338H24.1182V16.7799H20.5721V13.2338ZM27.6643 13.2338H31.2104V16.7799H27.6643V13.2338ZM38.3026 13.2338H41.8487V16.7799H38.3026V13.2338ZM41.8487 13.2338H45.3948V16.7799H41.8487V13.2338ZM48.9409 13.2338H52.487V16.7799H48.9409V13.2338ZM56.0331 13.2338H59.5792V16.7799H56.0331V13.2338ZM59.5792 13.2338H63.1253V16.7799H59.5792V13.2338ZM70.2175 13.2338H73.7636V16.7799H70.2175V13.2338ZM77.3097 13.2338H80.8558V16.7799H77.3097V13.2338ZM80.8558 13.2338H84.4019V16.7799H80.8558V13.2338ZM84.4019 13.2338H87.948V16.7799H84.4019V13.2338ZM91.4941 13.2338H95.0402V16.7799H91.4941V13.2338ZM6.3877 16.7799H9.93379V20.326H6.3877V16.7799ZM13.4799 16.7799H17.026V20.326H13.4799V16.7799ZM17.026 16.7799H20.5721V20.326H17.026V16.7799ZM20.5721 16.7799H24.1182V20.326H20.5721V16.7799ZM27.6643 16.7799H31.2104V20.326H27.6643V16.7799ZM34.7565 16.7799H38.3026V20.326H34.7565V16.7799ZM38.3026 16.7799H41.8487V20.326H38.3026V16.7799ZM48.9409 16.7799H52.487V20.326H48.9409V16.7799ZM56.0331 16.7799H59.5792V20.326H56.0331V16.7799ZM59.5792 16.7799H63.1253V20.326H59.5792V16.7799ZM70.2175 16.7799H73.7636V20.326H70.2175V16.7799ZM77.3097 16.7799H80.8558V20.326H77.3097V16.7799ZM80.8558 16.7799H84.4019V20.326H80.8558V16.7799ZM84.4019 16.7799H87.948V20.326H84.4019V16.7799ZM91.4941 16.7799H95.0402V20.326H91.4941V16.7799ZM6.3877 20.326H9.93379V23.8721H6.3877V20.326ZM13.4799 20.326H17.026V23.8721H13.4799V20.326ZM17.026 20.326H20.5721V23.8721H17.026V20.326ZM20.5721 20.326H24.1182V23.8721H20.5721V20.326ZM27.6643 20.326H31.2104V23.8721H27.6643V20.326ZM41.8487 20.326H45.3948V23.8721H41.8487V20.326ZM45.3948 20.326H48.9409V23.8721H45.3948V20.326ZM48.9409 20.326H52.487V23.8721H48.9409V20.326ZM52.487 20.326H56.0331V23.8721H52.487V20.326ZM56.0331 20.326H59.5792V23.8721H56.0331V20.326ZM70.2175 20.326H73.7636V23.8721H70.2175V20.326ZM77.3097 20.326H80.8558V23.8721H77.3097V20.326ZM80.8558 20.326H84.4019V23.8721H80.8558V20.326ZM84.4019 20.326H87.948V23.8721H84.4019V20.326ZM91.4941 20.326H95.0402V23.8721H91.4941V20.326ZM6.3877 23.8721H9.93379V27.4182H6.3877V23.8721ZM27.6643 23.8721H31.2104V27.4182H27.6643V23.8721ZM34.7565 23.8721H38.3026V27.4182H34.7565V23.8721ZM45.3948 23.8721H48.9409V27.4182H45.3948V23.8721ZM63.1253 23.8721H66.6714V27.4182H63.1253V23.8721ZM70.2175 23.8721H73.7636V27.4182H70.2175V23.8721ZM91.4941 23.8721H95.0402V27.4182H91.4941V23.8721ZM6.3877 27.4182H9.93379V30.9643H6.3877V27.4182ZM9.93379 27.4182H13.4799V30.9643H9.93379V27.4182ZM13.4799 27.4182H17.026V30.9643H13.4799V27.4182ZM17.026 27.4182H20.5721V30.9643H17.026V27.4182ZM20.5721 27.4182H24.1182V30.9643H20.5721V27.4182ZM24.1182 27.4182H27.6643V30.9643H24.1182V27.4182ZM27.6643 27.4182H31.2104V30.9643H27.6643V27.4182ZM34.7565 27.4182H38.3026V30.9643H34.7565V27.4182ZM41.8487 27.4182H45.3948V30.9643H41.8487V27.4182ZM48.9409 27.4182H52.487V30.9643H48.9409V27.4182ZM56.0331 27.4182H59.5792V30.9643H56.0331V27.4182ZM63.1253 27.4182H66.6714V30.9643H63.1253V27.4182ZM70.2175 27.4182H73.7636V30.9643H70.2175V27.4182ZM73.7636 27.4182H77.3097V30.9643H73.7636V27.4182ZM77.3097 27.4182H80.8558V30.9643H77.3097V27.4182ZM80.8558 27.4182H84.4019V30.9643H80.8558V27.4182ZM84.4019 27.4182H87.948V30.9643H84.4019V27.4182ZM87.948 27.4182H91.4941V30.9643H87.948V27.4182ZM91.4941 27.4182H95.0402V30.9643H91.4941V27.4182ZM34.7565 30.9643H38.3026V34.5104H34.7565V30.9643ZM38.3026 30.9643H41.8487V34.5104H38.3026V30.9643ZM41.8487 30.9643H45.3948V34.5104H41.8487V30.9643ZM56.0331 30.9643H59.5792V34.5104H56.0331V30.9643ZM59.5792 30.9643H63.1253V34.5104H59.5792V30.9643ZM63.1253 30.9643H66.6714V34.5104H63.1253V30.9643ZM9.93379 34.5104H13.4799V38.0565H9.93379V34.5104ZM13.4799 34.5104H17.026V38.0565H13.4799V34.5104ZM27.6643 34.5104H31.2104V38.0565H27.6643V34.5104ZM52.487 34.5104H56.0331V38.0565H52.487V34.5104ZM56.0331 34.5104H59.5792V38.0565H56.0331V34.5104ZM63.1253 34.5104H66.6714V38.0565H63.1253V34.5104ZM70.2175 34.5104H73.7636V38.0565H70.2175V34.5104ZM73.7636 34.5104H77.3097V38.0565H73.7636V34.5104ZM80.8558 34.5104H84.4019V38.0565H80.8558V34.5104ZM9.93379 38.0565H13.4799V41.6026H9.93379V38.0565ZM13.4799 38.0565H17.026V41.6026H13.4799V38.0565ZM20.5721 38.0565H24.1182V41.6026H20.5721V38.0565ZM31.2104 38.0565H34.7565V41.6026H31.2104V38.0565ZM41.8487 38.0565H45.3948V41.6026H41.8487V38.0565ZM45.3948 38.0565H48.9409V41.6026H45.3948V38.0565ZM48.9409 38.0565H52.487V41.6026H48.9409V38.0565ZM52.487 38.0565H56.0331V41.6026H52.487V38.0565ZM56.0331 38.0565H59.5792V41.6026H56.0331V38.0565ZM59.5792 38.0565H63.1253V41.6026H59.5792V38.0565ZM63.1253 38.0565H66.6714V41.6026H63.1253V38.0565ZM70.2175 38.0565H73.7636V41.6026H70.2175V38.0565ZM73.7636 38.0565H77.3097V41.6026H73.7636V38.0565ZM80.8558 38.0565H84.4019V41.6026H80.8558V38.0565ZM87.948 38.0565H91.4941V41.6026H87.948V38.0565ZM91.4941 38.0565H95.0402V41.6026H91.4941V38.0565ZM27.6643 41.6026H31.2104V45.1487H27.6643V41.6026ZM45.3948 41.6026H48.9409V45.1487H45.3948V41.6026ZM59.5792 41.6026H63.1253V45.1487H59.5792V41.6026ZM66.6714 41.6026H70.2175V45.1487H66.6714V41.6026ZM73.7636 41.6026H77.3097V45.1487H73.7636V41.6026ZM80.8558 41.6026H84.4019V45.1487H80.8558V41.6026ZM84.4019 41.6026H87.948V45.1487H84.4019V41.6026ZM91.4941 41.6026H95.0402V45.1487H91.4941V41.6026ZM6.3877 45.1487H9.93379V48.6948H6.3877V45.1487ZM9.93379 45.1487H13.4799V48.6948H9.93379V45.1487ZM20.5721 45.1487H24.1182V48.6948H20.5721V45.1487ZM31.2104 45.1487H34.7565V48.6948H31.2104V45.1487ZM38.3026 45.1487H41.8487V48.6948H38.3026V45.1487ZM41.8487 45.1487H45.3948V48.6948H41.8487V45.1487ZM52.487 45.1487H56.0331V48.6948H52.487V45.1487ZM59.5792 45.1487H63.1253V48.6948H59.5792V45.1487ZM66.6714 45.1487H70.2175V48.6948H66.6714V45.1487ZM73.7636 45.1487H77.3097V48.6948H73.7636V45.1487ZM80.8558 45.1487H84.4019V48.6948H80.8558V45.1487ZM6.3877 48.6948H9.93379V52.2409H6.3877V48.6948ZM9.93379 48.6948H13.4799V52.2409H9.93379V48.6948ZM17.026 48.6948H20.5721V52.2409H17.026V48.6948ZM27.6643 48.6948H31.2104V52.2409H27.6643V48.6948ZM31.2104 48.6948H34.7565V52.2409H31.2104V48.6948ZM34.7565 48.6948H38.3026V52.2409H34.7565V48.6948ZM38.3026 48.6948H41.8487V52.2409H38.3026V48.6948ZM41.8487 48.6948H45.3948V52.2409H41.8487V48.6948ZM52.487 48.6948H56.0331V52.2409H52.487V48.6948ZM59.5792 48.6948H63.1253V52.2409H59.5792V48.6948ZM63.1253 48.6948H66.6714V52.2409H63.1253V48.6948ZM70.2175 48.6948H73.7636V52.2409H70.2175V48.6948ZM73.7636 48.6948H77.3097V52.2409H73.7636V48.6948ZM91.4941 48.6948H95.0402V52.2409H91.4941V48.6948ZM13.4799 52.2409H17.026V55.787H13.4799V52.2409ZM17.026 52.2409H20.5721V55.787H17.026V52.2409ZM20.5721 52.2409H24.1182V55.787H20.5721V52.2409ZM41.8487 52.2409H45.3948V55.787H41.8487V52.2409ZM45.3948 52.2409H48.9409V55.787H45.3948V52.2409ZM48.9409 52.2409H52.487V55.787H48.9409V52.2409ZM59.5792 52.2409H63.1253V55.787H59.5792V52.2409ZM63.1253 52.2409H66.6714V55.787H63.1253V52.2409ZM70.2175 52.2409H73.7636V55.787H70.2175V52.2409ZM73.7636 52.2409H77.3097V55.787H73.7636V52.2409ZM87.948 52.2409H91.4941V55.787H87.948V52.2409ZM91.4941 52.2409H95.0402V55.787H91.4941V52.2409ZM6.3877 55.787H9.93379V59.3331H6.3877V55.787ZM9.93379 55.787H13.4799V59.3331H9.93379V55.787ZM17.026 55.787H20.5721V59.3331H17.026V55.787ZM24.1182 55.787H27.6643V59.3331H24.1182V55.787ZM27.6643 55.787H31.2104V59.3331H27.6643V55.787ZM34.7565 55.787H38.3026V59.3331H34.7565V55.787ZM38.3026 55.787H41.8487V59.3331H38.3026V55.787ZM41.8487 55.787H45.3948V59.3331H41.8487V55.787ZM48.9409 55.787H52.487V59.3331H48.9409V55.787ZM59.5792 55.787H63.1253V59.3331H59.5792V55.787ZM63.1253 55.787H66.6714V59.3331H63.1253V55.787ZM70.2175 55.787H73.7636V59.3331H70.2175V55.787ZM80.8558 55.787H84.4019V59.3331H80.8558V55.787ZM84.4019 55.787H87.948V59.3331H84.4019V55.787ZM91.4941 55.787H95.0402V59.3331H91.4941V55.787ZM13.4799 59.3331H17.026V62.8792H13.4799V59.3331ZM17.026 59.3331H20.5721V62.8792H17.026V59.3331ZM20.5721 59.3331H24.1182V62.8792H20.5721V59.3331ZM31.2104 59.3331H34.7565V62.8792H31.2104V59.3331ZM41.8487 59.3331H45.3948V62.8792H41.8487V59.3331ZM56.0331 59.3331H59.5792V62.8792H56.0331V59.3331ZM59.5792 59.3331H63.1253V62.8792H59.5792V59.3331ZM63.1253 59.3331H66.6714V62.8792H63.1253V59.3331ZM66.6714 59.3331H70.2175V62.8792H66.6714V59.3331ZM70.2175 59.3331H73.7636V62.8792H70.2175V59.3331ZM73.7636 59.3331H77.3097V62.8792H73.7636V59.3331ZM77.3097 59.3331H80.8558V62.8792H77.3097V59.3331ZM80.8558 59.3331H84.4019V62.8792H80.8558V59.3331ZM6.3877 62.8792H9.93379V66.4253H6.3877V62.8792ZM9.93379 62.8792H13.4799V66.4253H9.93379V62.8792ZM13.4799 62.8792H17.026V66.4253H13.4799V62.8792ZM20.5721 62.8792H24.1182V66.4253H20.5721V62.8792ZM27.6643 62.8792H31.2104V66.4253H27.6643V62.8792ZM34.7565 62.8792H38.3026V66.4253H34.7565V62.8792ZM45.3948 62.8792H48.9409V66.4253H45.3948V62.8792ZM63.1253 62.8792H66.6714V66.4253H63.1253V62.8792ZM66.6714 62.8792H70.2175V66.4253H66.6714V62.8792ZM70.2175 62.8792H73.7636V66.4253H70.2175V62.8792ZM73.7636 62.8792H77.3097V66.4253H73.7636V62.8792ZM77.3097 62.8792H80.8558V66.4253H77.3097V62.8792ZM87.948 62.8792H91.4941V66.4253H87.948V62.8792ZM34.7565 66.4253H38.3026V69.9714H34.7565V66.4253ZM38.3026 66.4253H41.8487V69.9714H38.3026V66.4253ZM41.8487 66.4253H45.3948V69.9714H41.8487V66.4253ZM45.3948 66.4253H48.9409V69.9714H45.3948V66.4253ZM52.487 66.4253H56.0331V69.9714H52.487V66.4253ZM56.0331 66.4253H59.5792V69.9714H56.0331V66.4253ZM63.1253 66.4253H66.6714V69.9714H63.1253V66.4253ZM77.3097 66.4253H80.8558V69.9714H77.3097V66.4253ZM91.4941 66.4253H95.0402V69.9714H91.4941V66.4253ZM6.3877 69.9714H9.93379V73.5175H6.3877V69.9714ZM9.93379 69.9714H13.4799V73.5175H9.93379V69.9714ZM13.4799 69.9714H17.026V73.5175H13.4799V69.9714ZM17.026 69.9714H20.5721V73.5175H17.026V69.9714ZM20.5721 69.9714H24.1182V73.5175H20.5721V69.9714ZM24.1182 69.9714H27.6643V73.5175H24.1182V69.9714ZM27.6643 69.9714H31.2104V73.5175H27.6643V69.9714ZM41.8487 69.9714H45.3948V73.5175H41.8487V69.9714ZM45.3948 69.9714H48.9409V73.5175H45.3948V69.9714ZM56.0331 69.9714H59.5792V73.5175H56.0331V69.9714ZM63.1253 69.9714H66.6714V73.5175H63.1253V69.9714ZM70.2175 69.9714H73.7636V73.5175H70.2175V69.9714ZM77.3097 69.9714H80.8558V73.5175H77.3097V69.9714ZM91.4941 69.9714H95.0402V73.5175H91.4941V69.9714ZM6.3877 73.5175H9.93379V77.0636H6.3877V73.5175ZM27.6643 73.5175H31.2104V77.0636H27.6643V73.5175ZM38.3026 73.5175H41.8487V77.0636H38.3026V73.5175ZM41.8487 73.5175H45.3948V77.0636H41.8487V73.5175ZM48.9409 73.5175H52.487V77.0636H48.9409V73.5175ZM52.487 73.5175H56.0331V77.0636H52.487V73.5175ZM63.1253 73.5175H66.6714V77.0636H63.1253V73.5175ZM77.3097 73.5175H80.8558V77.0636H77.3097V73.5175ZM87.948 73.5175H91.4941V77.0636H87.948V73.5175ZM6.3877 77.0636H9.93379V80.6097H6.3877V77.0636ZM13.4799 77.0636H17.026V80.6097H13.4799V77.0636ZM17.026 77.0636H20.5721V80.6097H17.026V77.0636ZM20.5721 77.0636H24.1182V80.6097H20.5721V77.0636ZM27.6643 77.0636H31.2104V80.6097H27.6643V77.0636ZM38.3026 77.0636H41.8487V80.6097H38.3026V77.0636ZM41.8487 77.0636H45.3948V80.6097H41.8487V77.0636ZM56.0331 77.0636H59.5792V80.6097H56.0331V77.0636ZM59.5792 77.0636H63.1253V80.6097H59.5792V77.0636ZM63.1253 77.0636H66.6714V80.6097H63.1253V77.0636ZM66.6714 77.0636H70.2175V80.6097H66.6714V77.0636ZM70.2175 77.0636H73.7636V80.6097H70.2175V77.0636ZM73.7636 77.0636H77.3097V80.6097H73.7636V77.0636ZM77.3097 77.0636H80.8558V80.6097H77.3097V77.0636ZM87.948 77.0636H91.4941V80.6097H87.948V77.0636ZM91.4941 77.0636H95.0402V80.6097H91.4941V77.0636ZM6.3877 80.6097H9.93379V84.1558H6.3877V80.6097ZM13.4799 80.6097H17.026V84.1558H13.4799V80.6097ZM17.026 80.6097H20.5721V84.1558H17.026V80.6097ZM20.5721 80.6097H24.1182V84.1558H20.5721V80.6097ZM27.6643 80.6097H31.2104V84.1558H27.6643V80.6097ZM38.3026 80.6097H41.8487V84.1558H38.3026V80.6097ZM41.8487 80.6097H45.3948V84.1558H41.8487V80.6097ZM45.3948 80.6097H48.9409V84.1558H45.3948V80.6097ZM48.9409 80.6097H52.487V84.1558H48.9409V80.6097ZM59.5792 80.6097H63.1253V84.1558H59.5792V80.6097ZM66.6714 80.6097H70.2175V84.1558H66.6714V80.6097ZM77.3097 80.6097H80.8558V84.1558H77.3097V80.6097ZM84.4019 80.6097H87.948V84.1558H84.4019V80.6097ZM87.948 80.6097H91.4941V84.1558H87.948V80.6097ZM6.3877 84.1558H9.93379V87.7019H6.3877V84.1558ZM13.4799 84.1558H17.026V87.7019H13.4799V84.1558ZM17.026 84.1558H20.5721V87.7019H17.026V84.1558ZM20.5721 84.1558H24.1182V87.7019H20.5721V84.1558ZM27.6643 84.1558H31.2104V87.7019H27.6643V84.1558ZM34.7565 84.1558H38.3026V87.7019H34.7565V84.1558ZM52.487 84.1558H56.0331V87.7019H52.487V84.1558ZM56.0331 84.1558H59.5792V87.7019H56.0331V84.1558ZM59.5792 84.1558H63.1253V87.7019H59.5792V84.1558ZM63.1253 84.1558H66.6714V87.7019H63.1253V84.1558ZM66.6714 84.1558H70.2175V87.7019H66.6714V84.1558ZM73.7636 84.1558H77.3097V87.7019H73.7636V84.1558ZM77.3097 84.1558H80.8558V87.7019H77.3097V84.1558ZM80.8558 84.1558H84.4019V87.7019H80.8558V84.1558ZM87.948 84.1558H91.4941V87.7019H87.948V84.1558ZM91.4941 84.1558H95.0402V87.7019H91.4941V84.1558ZM6.3877 87.7019H9.93379V91.248H6.3877V87.7019ZM27.6643 87.7019H31.2104V91.248H27.6643V87.7019ZM34.7565 87.7019H38.3026V91.248H34.7565V87.7019ZM38.3026 87.7019H41.8487V91.248H38.3026V87.7019ZM41.8487 87.7019H45.3948V91.248H41.8487V87.7019ZM52.487 87.7019H56.0331V91.248H52.487V87.7019ZM63.1253 87.7019H66.6714V91.248H63.1253V87.7019ZM66.6714 87.7019H70.2175V91.248H66.6714V87.7019ZM70.2175 87.7019H73.7636V91.248H70.2175V87.7019ZM73.7636 87.7019H77.3097V91.248H73.7636V87.7019ZM77.3097 87.7019H80.8558V91.248H77.3097V87.7019ZM6.3877 91.248H9.93379V94.7941H6.3877V91.248ZM9.93379 91.248H13.4799V94.7941H9.93379V91.248ZM13.4799 91.248H17.026V94.7941H13.4799V91.248ZM17.026 91.248H20.5721V94.7941H17.026V91.248ZM20.5721 91.248H24.1182V94.7941H20.5721V91.248ZM24.1182 91.248H27.6643V94.7941H24.1182V91.248ZM27.6643 91.248H31.2104V94.7941H27.6643V91.248ZM41.8487 91.248H45.3948V94.7941H41.8487V91.248ZM48.9409 91.248H52.487V94.7941H48.9409V91.248ZM63.1253 91.248H66.6714V94.7941H63.1253V91.248ZM70.2175 91.248H73.7636V94.7941H70.2175V91.248ZM80.8558 91.248H84.4019V94.7941H80.8558V91.248ZM91.4941 91.248H95.0402V94.7941H91.4941V91.248Z" fill="black"/>
</svg>
