<svg width="100" height="101" viewBox="0 0 100 101" fill="none" xmlns="http://www.w3.org/2000/svg">
<rect width="100" height="100" transform="translate(0 0.967773)" fill="white"/>
<path d="M5.67383 6.6416H9.21993V10.1877H5.67383V6.6416ZM9.21993 6.6416H12.766V10.1877H9.21993V6.6416ZM12.766 6.6416H16.3121V10.1877H12.766V6.6416ZM16.3121 6.6416H19.8582V10.1877H16.3121V6.6416ZM19.8582 6.6416H23.4043V10.1877H19.8582V6.6416ZM23.4043 6.6416H26.9504V10.1877H23.4043V6.6416ZM26.9504 6.6416H30.4965V10.1877H26.9504V6.6416ZM44.6809 6.6416H48.227V10.1877H44.6809V6.6416ZM55.3192 6.6416H58.8653V10.1877H55.3192V6.6416ZM58.8653 6.6416H62.4114V10.1877H58.8653V6.6416ZM62.4114 6.6416H65.9575V10.1877H62.4114V6.6416ZM69.5036 6.6416H73.0497V10.1877H69.5036V6.6416ZM73.0497 6.6416H76.5958V10.1877H73.0497V6.6416ZM76.5958 6.6416H80.1419V10.1877H76.5958V6.6416ZM80.1419 6.6416H83.688V10.1877H80.1419V6.6416ZM83.688 6.6416H87.2341V10.1877H83.688V6.6416ZM87.2341 6.6416H90.7802V10.1877H87.2341V6.6416ZM90.7802 6.6416H94.3263V10.1877H90.7802V6.6416ZM5.67383 10.1877H9.21993V13.7338H5.67383V10.1877ZM26.9504 10.1877H30.4965V13.7338H26.9504V10.1877ZM37.5887 10.1877H41.1348V13.7338H37.5887V10.1877ZM51.7731 10.1877H55.3192V13.7338H51.7731V10.1877ZM55.3192 10.1877H58.8653V13.7338H55.3192V10.1877ZM62.4114 10.1877H65.9575V13.7338H62.4114V10.1877ZM69.5036 10.1877H73.0497V13.7338H69.5036V10.1877ZM90.7802 10.1877H94.3263V13.7338H90.7802V10.1877ZM5.67383 13.7338H9.21993V17.2799H5.67383V13.7338ZM12.766 13.7338H16.3121V17.2799H12.766V13.7338ZM16.3121 13.7338H19.8582V17.2799H16.3121V13.7338ZM19.8582 13.7338H23.4043V17.2799H19.8582V13.7338ZM26.9504 13.7338H30.4965V17.2799H26.9504V13.7338ZM37.5887 13.7338H41.1348V17.2799H37.5887V13.7338ZM41.1348 13.7338H44.6809V17.2799H41.1348V13.7338ZM48.227 13.7338H51.7731V17.2799H48.227V13.7338ZM55.3192 13.7338H58.8653V17.2799H55.3192V13.7338ZM58.8653 13.7338H62.4114V17.2799H58.8653V13.7338ZM69.5036 13.7338H73.0497V17.2799H69.5036V13.7338ZM76.5958 13.7338H80.1419V17.2799H76.5958V13.7338ZM80.1419 13.7338H83.688V17.2799H80.1419V13.7338ZM83.688 13.7338H87.2341V17.2799H83.688V13.7338ZM90.7802 13.7338H94.3263V17.2799H90.7802V13.7338ZM5.67383 17.2799H9.21993V20.826H5.67383V17.2799ZM12.766 17.2799H16.3121V20.826H12.766V17.2799ZM16.3121 17.2799H19.8582V20.826H16.3121V17.2799ZM19.8582 17.2799H23.4043V20.826H19.8582V17.2799ZM26.9504 17.2799H30.4965V20.826H26.9504V17.2799ZM34.0426 17.2799H37.5887V20.826H34.0426V17.2799ZM37.5887 17.2799H41.1348V20.826H37.5887V17.2799ZM48.227 17.2799H51.7731V20.826H48.227V17.2799ZM55.3192 17.2799H58.8653V20.826H55.3192V17.2799ZM58.8653 17.2799H62.4114V20.826H58.8653V17.2799ZM69.5036 17.2799H73.0497V20.826H69.5036V17.2799ZM76.5958 17.2799H80.1419V20.826H76.5958V17.2799ZM80.1419 17.2799H83.688V20.826H80.1419V17.2799ZM83.688 17.2799H87.2341V20.826H83.688V17.2799ZM90.7802 17.2799H94.3263V20.826H90.7802V17.2799ZM5.67383 20.826H9.21993V24.3721H5.67383V20.826ZM12.766 20.826H16.3121V24.3721H12.766V20.826ZM16.3121 20.826H19.8582V24.3721H16.3121V20.826ZM19.8582 20.826H23.4043V24.3721H19.8582V20.826ZM26.9504 20.826H30.4965V24.3721H26.9504V20.826ZM41.1348 20.826H44.6809V24.3721H41.1348V20.826ZM44.6809 20.826H48.227V24.3721H44.6809V20.826ZM48.227 20.826H51.7731V24.3721H48.227V20.826ZM51.7731 20.826H55.3192V24.3721H51.7731V20.826ZM55.3192 20.826H58.8653V24.3721H55.3192V20.826ZM69.5036 20.826H73.0497V24.3721H69.5036V20.826ZM76.5958 20.826H80.1419V24.3721H76.5958V20.826ZM80.1419 20.826H83.688V24.3721H80.1419V20.826ZM83.688 20.826H87.2341V24.3721H83.688V20.826ZM90.7802 20.826H94.3263V24.3721H90.7802V20.826ZM5.67383 24.3721H9.21993V27.9182H5.67383V24.3721ZM26.9504 24.3721H30.4965V27.9182H26.9504V24.3721ZM34.0426 24.3721H37.5887V27.9182H34.0426V24.3721ZM44.6809 24.3721H48.227V27.9182H44.6809V24.3721ZM62.4114 24.3721H65.9575V27.9182H62.4114V24.3721ZM69.5036 24.3721H73.0497V27.9182H69.5036V24.3721ZM90.7802 24.3721H94.3263V27.9182H90.7802V24.3721ZM5.67383 27.9182H9.21993V31.4643H5.67383V27.9182ZM9.21993 27.9182H12.766V31.4643H9.21993V27.9182ZM12.766 27.9182H16.3121V31.4643H12.766V27.9182ZM16.3121 27.9182H19.8582V31.4643H16.3121V27.9182ZM19.8582 27.9182H23.4043V31.4643H19.8582V27.9182ZM23.4043 27.9182H26.9504V31.4643H23.4043V27.9182ZM26.9504 27.9182H30.4965V31.4643H26.9504V27.9182ZM34.0426 27.9182H37.5887V31.4643H34.0426V27.9182ZM41.1348 27.9182H44.6809V31.4643H41.1348V27.9182ZM48.227 27.9182H51.7731V31.4643H48.227V27.9182ZM55.3192 27.9182H58.8653V31.4643H55.3192V27.9182ZM62.4114 27.9182H65.9575V31.4643H62.4114V27.9182ZM69.5036 27.9182H73.0497V31.4643H69.5036V27.9182ZM73.0497 27.9182H76.5958V31.4643H73.0497V27.9182ZM76.5958 27.9182H80.1419V31.4643H76.5958V27.9182ZM80.1419 27.9182H83.688V31.4643H80.1419V27.9182ZM83.688 27.9182H87.2341V31.4643H83.688V27.9182ZM87.2341 27.9182H90.7802V31.4643H87.2341V27.9182ZM90.7802 27.9182H94.3263V31.4643H90.7802V27.9182ZM34.0426 31.4643H37.5887V35.0104H34.0426V31.4643ZM37.5887 31.4643H41.1348V35.0104H37.5887V31.4643ZM41.1348 31.4643H44.6809V35.0104H41.1348V31.4643ZM55.3192 31.4643H58.8653V35.0104H55.3192V31.4643ZM58.8653 31.4643H62.4114V35.0104H58.8653V31.4643ZM62.4114 31.4643H65.9575V35.0104H62.4114V31.4643ZM9.21993 35.0104H12.766V38.5565H9.21993V35.0104ZM12.766 35.0104H16.3121V38.5565H12.766V35.0104ZM26.9504 35.0104H30.4965V38.5565H26.9504V35.0104ZM51.7731 35.0104H55.3192V38.5565H51.7731V35.0104ZM55.3192 35.0104H58.8653V38.5565H55.3192V35.0104ZM62.4114 35.0104H65.9575V38.5565H62.4114V35.0104ZM69.5036 35.0104H73.0497V38.5565H69.5036V35.0104ZM73.0497 35.0104H76.5958V38.5565H73.0497V35.0104ZM80.1419 35.0104H83.688V38.5565H80.1419V35.0104ZM9.21993 38.5565H12.766V42.1026H9.21993V38.5565ZM12.766 38.5565H16.3121V42.1026H12.766V38.5565ZM19.8582 38.5565H23.4043V42.1026H19.8582V38.5565ZM30.4965 38.5565H34.0426V42.1026H30.4965V38.5565ZM41.1348 38.5565H44.6809V42.1026H41.1348V38.5565ZM44.6809 38.5565H48.227V42.1026H44.6809V38.5565ZM48.227 38.5565H51.7731V42.1026H48.227V38.5565ZM51.7731 38.5565H55.3192V42.1026H51.7731V38.5565ZM55.3192 38.5565H58.8653V42.1026H55.3192V38.5565ZM58.8653 38.5565H62.4114V42.1026H58.8653V38.5565ZM62.4114 38.5565H65.9575V42.1026H62.4114V38.5565ZM69.5036 38.5565H73.0497V42.1026H69.5036V38.5565ZM73.0497 38.5565H76.5958V42.1026H73.0497V38.5565ZM80.1419 38.5565H83.688V42.1026H80.1419V38.5565ZM87.2341 38.5565H90.7802V42.1026H87.2341V38.5565ZM90.7802 38.5565H94.3263V42.1026H90.7802V38.5565ZM26.9504 42.1026H30.4965V45.6487H26.9504V42.1026ZM44.6809 42.1026H48.227V45.6487H44.6809V42.1026ZM58.8653 42.1026H62.4114V45.6487H58.8653V42.1026ZM65.9575 42.1026H69.5036V45.6487H65.9575V42.1026ZM73.0497 42.1026H76.5958V45.6487H73.0497V42.1026ZM80.1419 42.1026H83.688V45.6487H80.1419V42.1026ZM83.688 42.1026H87.2341V45.6487H83.688V42.1026ZM90.7802 42.1026H94.3263V45.6487H90.7802V42.1026ZM5.67383 45.6487H9.21993V49.1948H5.67383V45.6487ZM9.21993 45.6487H12.766V49.1948H9.21993V45.6487ZM19.8582 45.6487H23.4043V49.1948H19.8582V45.6487ZM30.4965 45.6487H34.0426V49.1948H30.4965V45.6487ZM37.5887 45.6487H41.1348V49.1948H37.5887V45.6487ZM41.1348 45.6487H44.6809V49.1948H41.1348V45.6487ZM51.7731 45.6487H55.3192V49.1948H51.7731V45.6487ZM58.8653 45.6487H62.4114V49.1948H58.8653V45.6487ZM65.9575 45.6487H69.5036V49.1948H65.9575V45.6487ZM73.0497 45.6487H76.5958V49.1948H73.0497V45.6487ZM80.1419 45.6487H83.688V49.1948H80.1419V45.6487ZM5.67383 49.1948H9.21993V52.7409H5.67383V49.1948ZM9.21993 49.1948H12.766V52.7409H9.21993V49.1948ZM16.3121 49.1948H19.8582V52.7409H16.3121V49.1948ZM26.9504 49.1948H30.4965V52.7409H26.9504V49.1948ZM30.4965 49.1948H34.0426V52.7409H30.4965V49.1948ZM34.0426 49.1948H37.5887V52.7409H34.0426V49.1948ZM37.5887 49.1948H41.1348V52.7409H37.5887V49.1948ZM41.1348 49.1948H44.6809V52.7409H41.1348V49.1948ZM51.7731 49.1948H55.3192V52.7409H51.7731V49.1948ZM58.8653 49.1948H62.4114V52.7409H58.8653V49.1948ZM62.4114 49.1948H65.9575V52.7409H62.4114V49.1948ZM69.5036 49.1948H73.0497V52.7409H69.5036V49.1948ZM73.0497 49.1948H76.5958V52.7409H73.0497V49.1948ZM90.7802 49.1948H94.3263V52.7409H90.7802V49.1948ZM12.766 52.7409H16.3121V56.287H12.766V52.7409ZM16.3121 52.7409H19.8582V56.287H16.3121V52.7409ZM19.8582 52.7409H23.4043V56.287H19.8582V52.7409ZM41.1348 52.7409H44.6809V56.287H41.1348V52.7409ZM44.6809 52.7409H48.227V56.287H44.6809V52.7409ZM48.227 52.7409H51.7731V56.287H48.227V52.7409ZM58.8653 52.7409H62.4114V56.287H58.8653V52.7409ZM62.4114 52.7409H65.9575V56.287H62.4114V52.7409ZM69.5036 52.7409H73.0497V56.287H69.5036V52.7409ZM73.0497 52.7409H76.5958V56.287H73.0497V52.7409ZM87.2341 52.7409H90.7802V56.287H87.2341V52.7409ZM90.7802 52.7409H94.3263V56.287H90.7802V52.7409ZM5.67383 56.287H9.21993V59.8331H5.67383V56.287ZM9.21993 56.287H12.766V59.8331H9.21993V56.287ZM16.3121 56.287H19.8582V59.8331H16.3121V56.287ZM23.4043 56.287H26.9504V59.8331H23.4043V56.287ZM26.9504 56.287H30.4965V59.8331H26.9504V56.287ZM34.0426 56.287H37.5887V59.8331H34.0426V56.287ZM37.5887 56.287H41.1348V59.8331H37.5887V56.287ZM41.1348 56.287H44.6809V59.8331H41.1348V56.287ZM48.227 56.287H51.7731V59.8331H48.227V56.287ZM58.8653 56.287H62.4114V59.8331H58.8653V56.287ZM62.4114 56.287H65.9575V59.8331H62.4114V56.287ZM69.5036 56.287H73.0497V59.8331H69.5036V56.287ZM80.1419 56.287H83.688V59.8331H80.1419V56.287ZM83.688 56.287H87.2341V59.8331H83.688V56.287ZM90.7802 56.287H94.3263V59.8331H90.7802V56.287ZM12.766 59.8331H16.3121V63.3792H12.766V59.8331ZM16.3121 59.8331H19.8582V63.3792H16.3121V59.8331ZM19.8582 59.8331H23.4043V63.3792H19.8582V59.8331ZM30.4965 59.8331H34.0426V63.3792H30.4965V59.8331ZM41.1348 59.8331H44.6809V63.3792H41.1348V59.8331ZM55.3192 59.8331H58.8653V63.3792H55.3192V59.8331ZM58.8653 59.8331H62.4114V63.3792H58.8653V59.8331ZM62.4114 59.8331H65.9575V63.3792H62.4114V59.8331ZM65.9575 59.8331H69.5036V63.3792H65.9575V59.8331ZM69.5036 59.8331H73.0497V63.3792H69.5036V59.8331ZM73.0497 59.8331H76.5958V63.3792H73.0497V59.8331ZM76.5958 59.8331H80.1419V63.3792H76.5958V59.8331ZM80.1419 59.8331H83.688V63.3792H80.1419V59.8331ZM5.67383 63.3792H9.21993V66.9253H5.67383V63.3792ZM9.21993 63.3792H12.766V66.9253H9.21993V63.3792ZM12.766 63.3792H16.3121V66.9253H12.766V63.3792ZM19.8582 63.3792H23.4043V66.9253H19.8582V63.3792ZM26.9504 63.3792H30.4965V66.9253H26.9504V63.3792ZM34.0426 63.3792H37.5887V66.9253H34.0426V63.3792ZM44.6809 63.3792H48.227V66.9253H44.6809V63.3792ZM62.4114 63.3792H65.9575V66.9253H62.4114V63.3792ZM65.9575 63.3792H69.5036V66.9253H65.9575V63.3792ZM69.5036 63.3792H73.0497V66.9253H69.5036V63.3792ZM73.0497 63.3792H76.5958V66.9253H73.0497V63.3792ZM76.5958 63.3792H80.1419V66.9253H76.5958V63.3792ZM87.2341 63.3792H90.7802V66.9253H87.2341V63.3792ZM34.0426 66.9253H37.5887V70.4714H34.0426V66.9253ZM37.5887 66.9253H41.1348V70.4714H37.5887V66.9253ZM41.1348 66.9253H44.6809V70.4714H41.1348V66.9253ZM44.6809 66.9253H48.227V70.4714H44.6809V66.9253ZM51.7731 66.9253H55.3192V70.4714H51.7731V66.9253ZM55.3192 66.9253H58.8653V70.4714H55.3192V66.9253ZM62.4114 66.9253H65.9575V70.4714H62.4114V66.9253ZM76.5958 66.9253H80.1419V70.4714H76.5958V66.9253ZM90.7802 66.9253H94.3263V70.4714H90.7802V66.9253ZM5.67383 70.4714H9.21993V74.0175H5.67383V70.4714ZM9.21993 70.4714H12.766V74.0175H9.21993V70.4714ZM12.766 70.4714H16.3121V74.0175H12.766V70.4714ZM16.3121 70.4714H19.8582V74.0175H16.3121V70.4714ZM19.8582 70.4714H23.4043V74.0175H19.8582V70.4714ZM23.4043 70.4714H26.9504V74.0175H23.4043V70.4714ZM26.9504 70.4714H30.4965V74.0175H26.9504V70.4714ZM41.1348 70.4714H44.6809V74.0175H41.1348V70.4714ZM44.6809 70.4714H48.227V74.0175H44.6809V70.4714ZM55.3192 70.4714H58.8653V74.0175H55.3192V70.4714ZM62.4114 70.4714H65.9575V74.0175H62.4114V70.4714ZM69.5036 70.4714H73.0497V74.0175H69.5036V70.4714ZM76.5958 70.4714H80.1419V74.0175H76.5958V70.4714ZM90.7802 70.4714H94.3263V74.0175H90.7802V70.4714ZM5.67383 74.0175H9.21993V77.5636H5.67383V74.0175ZM26.9504 74.0175H30.4965V77.5636H26.9504V74.0175ZM37.5887 74.0175H41.1348V77.5636H37.5887V74.0175ZM41.1348 74.0175H44.6809V77.5636H41.1348V74.0175ZM48.227 74.0175H51.7731V77.5636H48.227V74.0175ZM51.7731 74.0175H55.3192V77.5636H51.7731V74.0175ZM62.4114 74.0175H65.9575V77.5636H62.4114V74.0175ZM76.5958 74.0175H80.1419V77.5636H76.5958V74.0175ZM87.2341 74.0175H90.7802V77.5636H87.2341V74.0175ZM5.67383 77.5636H9.21993V81.1097H5.67383V77.5636ZM12.766 77.5636H16.3121V81.1097H12.766V77.5636ZM16.3121 77.5636H19.8582V81.1097H16.3121V77.5636ZM19.8582 77.5636H23.4043V81.1097H19.8582V77.5636ZM26.9504 77.5636H30.4965V81.1097H26.9504V77.5636ZM37.5887 77.5636H41.1348V81.1097H37.5887V77.5636ZM41.1348 77.5636H44.6809V81.1097H41.1348V77.5636ZM55.3192 77.5636H58.8653V81.1097H55.3192V77.5636ZM58.8653 77.5636H62.4114V81.1097H58.8653V77.5636ZM62.4114 77.5636H65.9575V81.1097H62.4114V77.5636ZM65.9575 77.5636H69.5036V81.1097H65.9575V77.5636ZM69.5036 77.5636H73.0497V81.1097H69.5036V77.5636ZM73.0497 77.5636H76.5958V81.1097H73.0497V77.5636ZM76.5958 77.5636H80.1419V81.1097H76.5958V77.5636ZM87.2341 77.5636H90.7802V81.1097H87.2341V77.5636ZM90.7802 77.5636H94.3263V81.1097H90.7802V77.5636ZM5.67383 81.1097H9.21993V84.6558H5.67383V81.1097ZM12.766 81.1097H16.3121V84.6558H12.766V81.1097ZM16.3121 81.1097H19.8582V84.6558H16.3121V81.1097ZM19.8582 81.1097H23.4043V84.6558H19.8582V81.1097ZM26.9504 81.1097H30.4965V84.6558H26.9504V81.1097ZM37.5887 81.1097H41.1348V84.6558H37.5887V81.1097ZM41.1348 81.1097H44.6809V84.6558H41.1348V81.1097ZM44.6809 81.1097H48.227V84.6558H44.6809V81.1097ZM48.227 81.1097H51.7731V84.6558H48.227V81.1097ZM58.8653 81.1097H62.4114V84.6558H58.8653V81.1097ZM65.9575 81.1097H69.5036V84.6558H65.9575V81.1097ZM76.5958 81.1097H80.1419V84.6558H76.5958V81.1097ZM83.688 81.1097H87.2341V84.6558H83.688V81.1097ZM87.2341 81.1097H90.7802V84.6558H87.2341V81.1097ZM5.67383 84.6558H9.21993V88.2019H5.67383V84.6558ZM12.766 84.6558H16.3121V88.2019H12.766V84.6558ZM16.3121 84.6558H19.8582V88.2019H16.3121V84.6558ZM19.8582 84.6558H23.4043V88.2019H19.8582V84.6558ZM26.9504 84.6558H30.4965V88.2019H26.9504V84.6558ZM34.0426 84.6558H37.5887V88.2019H34.0426V84.6558ZM51.7731 84.6558H55.3192V88.2019H51.7731V84.6558ZM55.3192 84.6558H58.8653V88.2019H55.3192V84.6558ZM58.8653 84.6558H62.4114V88.2019H58.8653V84.6558ZM62.4114 84.6558H65.9575V88.2019H62.4114V84.6558ZM65.9575 84.6558H69.5036V88.2019H65.9575V84.6558ZM73.0497 84.6558H76.5958V88.2019H73.0497V84.6558ZM76.5958 84.6558H80.1419V88.2019H76.5958V84.6558ZM80.1419 84.6558H83.688V88.2019H80.1419V84.6558ZM87.2341 84.6558H90.7802V88.2019H87.2341V84.6558ZM90.7802 84.6558H94.3263V88.2019H90.7802V84.6558ZM5.67383 88.2019H9.21993V91.748H5.67383V88.2019ZM26.9504 88.2019H30.4965V91.748H26.9504V88.2019ZM34.0426 88.2019H37.5887V91.748H34.0426V88.2019ZM37.5887 88.2019H41.1348V91.748H37.5887V88.2019ZM41.1348 88.2019H44.6809V91.748H41.1348V88.2019ZM51.7731 88.2019H55.3192V91.748H51.7731V88.2019ZM62.4114 88.2019H65.9575V91.748H62.4114V88.2019ZM65.9575 88.2019H69.5036V91.748H65.9575V88.2019ZM69.5036 88.2019H73.0497V91.748H69.5036V88.2019ZM73.0497 88.2019H76.5958V91.748H73.0497V88.2019ZM76.5958 88.2019H80.1419V91.748H76.5958V88.2019ZM5.67383 91.748H9.21993V95.2941H5.67383V91.748ZM9.21993 91.748H12.766V95.2941H9.21993V91.748ZM12.766 91.748H16.3121V95.2941H12.766V91.748ZM16.3121 91.748H19.8582V95.2941H16.3121V91.748ZM19.8582 91.748H23.4043V95.2941H19.8582V91.748ZM23.4043 91.748H26.9504V95.2941H23.4043V91.748ZM26.9504 91.748H30.4965V95.2941H26.9504V91.748ZM41.1348 91.748H44.6809V95.2941H41.1348V91.748ZM48.227 91.748H51.7731V95.2941H48.227V91.748ZM62.4114 91.748H65.9575V95.2941H62.4114V91.748ZM69.5036 91.748H73.0497V95.2941H69.5036V91.748ZM80.1419 91.748H83.688V95.2941H80.1419V91.748ZM90.7802 91.748H94.3263V95.2941H90.7802V91.748Z" fill="black"/>
</svg>
