<svg width="101" height="101" viewBox="0 0 101 101" fill="none" xmlns="http://www.w3.org/2000/svg">
<rect width="100" height="100" transform="translate(0.571289 0.467773)" fill="white"/>
<path d="M6.24512 6.1416H9.79122V9.6877H6.24512V6.1416ZM9.79122 6.1416H13.3373V9.6877H9.79122V6.1416ZM13.3373 6.1416H16.8834V9.6877H13.3373V6.1416ZM16.8834 6.1416H20.4295V9.6877H16.8834V6.1416ZM20.4295 6.1416H23.9756V9.6877H20.4295V6.1416ZM23.9756 6.1416H27.5217V9.6877H23.9756V6.1416ZM27.5217 6.1416H31.0678V9.6877H27.5217V6.1416ZM45.2522 6.1416H48.7983V9.6877H45.2522V6.1416ZM55.8905 6.1416H59.4366V9.6877H55.8905V6.1416ZM59.4366 6.1416H62.9827V9.6877H59.4366V6.1416ZM62.9827 6.1416H66.5288V9.6877H62.9827V6.1416ZM70.0749 6.1416H73.621V9.6877H70.0749V6.1416ZM73.621 6.1416H77.1671V9.6877H73.621V6.1416ZM77.1671 6.1416H80.7132V9.6877H77.1671V6.1416ZM80.7132 6.1416H84.2593V9.6877H80.7132V6.1416ZM84.2593 6.1416H87.8054V9.6877H84.2593V6.1416ZM87.8054 6.1416H91.3515V9.6877H87.8054V6.1416ZM91.3515 6.1416H94.8976V9.6877H91.3515V6.1416ZM6.24512 9.6877H9.79122V13.2338H6.24512V9.6877ZM27.5217 9.6877H31.0678V13.2338H27.5217V9.6877ZM38.16 9.6877H41.7061V13.2338H38.16V9.6877ZM52.3444 9.6877H55.8905V13.2338H52.3444V9.6877ZM55.8905 9.6877H59.4366V13.2338H55.8905V9.6877ZM62.9827 9.6877H66.5288V13.2338H62.9827V9.6877ZM70.0749 9.6877H73.621V13.2338H70.0749V9.6877ZM91.3515 9.6877H94.8976V13.2338H91.3515V9.6877ZM6.24512 13.2338H9.79122V16.7799H6.24512V13.2338ZM13.3373 13.2338H16.8834V16.7799H13.3373V13.2338ZM16.8834 13.2338H20.4295V16.7799H16.8834V13.2338ZM20.4295 13.2338H23.9756V16.7799H20.4295V13.2338ZM27.5217 13.2338H31.0678V16.7799H27.5217V13.2338ZM38.16 13.2338H41.7061V16.7799H38.16V13.2338ZM41.7061 13.2338H45.2522V16.7799H41.7061V13.2338ZM48.7983 13.2338H52.3444V16.7799H48.7983V13.2338ZM55.8905 13.2338H59.4366V16.7799H55.8905V13.2338ZM59.4366 13.2338H62.9827V16.7799H59.4366V13.2338ZM70.0749 13.2338H73.621V16.7799H70.0749V13.2338ZM77.1671 13.2338H80.7132V16.7799H77.1671V13.2338ZM80.7132 13.2338H84.2593V16.7799H80.7132V13.2338ZM84.2593 13.2338H87.8054V16.7799H84.2593V13.2338ZM91.3515 13.2338H94.8976V16.7799H91.3515V13.2338ZM6.24512 16.7799H9.79122V20.326H6.24512V16.7799ZM13.3373 16.7799H16.8834V20.326H13.3373V16.7799ZM16.8834 16.7799H20.4295V20.326H16.8834V16.7799ZM20.4295 16.7799H23.9756V20.326H20.4295V16.7799ZM27.5217 16.7799H31.0678V20.326H27.5217V16.7799ZM34.6139 16.7799H38.16V20.326H34.6139V16.7799ZM38.16 16.7799H41.7061V20.326H38.16V16.7799ZM48.7983 16.7799H52.3444V20.326H48.7983V16.7799ZM55.8905 16.7799H59.4366V20.326H55.8905V16.7799ZM59.4366 16.7799H62.9827V20.326H59.4366V16.7799ZM70.0749 16.7799H73.621V20.326H70.0749V16.7799ZM77.1671 16.7799H80.7132V20.326H77.1671V16.7799ZM80.7132 16.7799H84.2593V20.326H80.7132V16.7799ZM84.2593 16.7799H87.8054V20.326H84.2593V16.7799ZM91.3515 16.7799H94.8976V20.326H91.3515V16.7799ZM6.24512 20.326H9.79122V23.8721H6.24512V20.326ZM13.3373 20.326H16.8834V23.8721H13.3373V20.326ZM16.8834 20.326H20.4295V23.8721H16.8834V20.326ZM20.4295 20.326H23.9756V23.8721H20.4295V20.326ZM27.5217 20.326H31.0678V23.8721H27.5217V20.326ZM41.7061 20.326H45.2522V23.8721H41.7061V20.326ZM45.2522 20.326H48.7983V23.8721H45.2522V20.326ZM48.7983 20.326H52.3444V23.8721H48.7983V20.326ZM52.3444 20.326H55.8905V23.8721H52.3444V20.326ZM55.8905 20.326H59.4366V23.8721H55.8905V20.326ZM70.0749 20.326H73.621V23.8721H70.0749V20.326ZM77.1671 20.326H80.7132V23.8721H77.1671V20.326ZM80.7132 20.326H84.2593V23.8721H80.7132V20.326ZM84.2593 20.326H87.8054V23.8721H84.2593V20.326ZM91.3515 20.326H94.8976V23.8721H91.3515V20.326ZM6.24512 23.8721H9.79122V27.4182H6.24512V23.8721ZM27.5217 23.8721H31.0678V27.4182H27.5217V23.8721ZM34.6139 23.8721H38.16V27.4182H34.6139V23.8721ZM45.2522 23.8721H48.7983V27.4182H45.2522V23.8721ZM62.9827 23.8721H66.5288V27.4182H62.9827V23.8721ZM70.0749 23.8721H73.621V27.4182H70.0749V23.8721ZM91.3515 23.8721H94.8976V27.4182H91.3515V23.8721ZM6.24512 27.4182H9.79122V30.9643H6.24512V27.4182ZM9.79122 27.4182H13.3373V30.9643H9.79122V27.4182ZM13.3373 27.4182H16.8834V30.9643H13.3373V27.4182ZM16.8834 27.4182H20.4295V30.9643H16.8834V27.4182ZM20.4295 27.4182H23.9756V30.9643H20.4295V27.4182ZM23.9756 27.4182H27.5217V30.9643H23.9756V27.4182ZM27.5217 27.4182H31.0678V30.9643H27.5217V27.4182ZM34.6139 27.4182H38.16V30.9643H34.6139V27.4182ZM41.7061 27.4182H45.2522V30.9643H41.7061V27.4182ZM48.7983 27.4182H52.3444V30.9643H48.7983V27.4182ZM55.8905 27.4182H59.4366V30.9643H55.8905V27.4182ZM62.9827 27.4182H66.5288V30.9643H62.9827V27.4182ZM70.0749 27.4182H73.621V30.9643H70.0749V27.4182ZM73.621 27.4182H77.1671V30.9643H73.621V27.4182ZM77.1671 27.4182H80.7132V30.9643H77.1671V27.4182ZM80.7132 27.4182H84.2593V30.9643H80.7132V27.4182ZM84.2593 27.4182H87.8054V30.9643H84.2593V27.4182ZM87.8054 27.4182H91.3515V30.9643H87.8054V27.4182ZM91.3515 27.4182H94.8976V30.9643H91.3515V27.4182ZM34.6139 30.9643H38.16V34.5104H34.6139V30.9643ZM38.16 30.9643H41.7061V34.5104H38.16V30.9643ZM41.7061 30.9643H45.2522V34.5104H41.7061V30.9643ZM55.8905 30.9643H59.4366V34.5104H55.8905V30.9643ZM59.4366 30.9643H62.9827V34.5104H59.4366V30.9643ZM62.9827 30.9643H66.5288V34.5104H62.9827V30.9643ZM9.79122 34.5104H13.3373V38.0565H9.79122V34.5104ZM13.3373 34.5104H16.8834V38.0565H13.3373V34.5104ZM27.5217 34.5104H31.0678V38.0565H27.5217V34.5104ZM52.3444 34.5104H55.8905V38.0565H52.3444V34.5104ZM55.8905 34.5104H59.4366V38.0565H55.8905V34.5104ZM62.9827 34.5104H66.5288V38.0565H62.9827V34.5104ZM70.0749 34.5104H73.621V38.0565H70.0749V34.5104ZM73.621 34.5104H77.1671V38.0565H73.621V34.5104ZM80.7132 34.5104H84.2593V38.0565H80.7132V34.5104ZM9.79122 38.0565H13.3373V41.6026H9.79122V38.0565ZM13.3373 38.0565H16.8834V41.6026H13.3373V38.0565ZM20.4295 38.0565H23.9756V41.6026H20.4295V38.0565ZM31.0678 38.0565H34.6139V41.6026H31.0678V38.0565ZM41.7061 38.0565H45.2522V41.6026H41.7061V38.0565ZM45.2522 38.0565H48.7983V41.6026H45.2522V38.0565ZM48.7983 38.0565H52.3444V41.6026H48.7983V38.0565ZM52.3444 38.0565H55.8905V41.6026H52.3444V38.0565ZM55.8905 38.0565H59.4366V41.6026H55.8905V38.0565ZM59.4366 38.0565H62.9827V41.6026H59.4366V38.0565ZM62.9827 38.0565H66.5288V41.6026H62.9827V38.0565ZM70.0749 38.0565H73.621V41.6026H70.0749V38.0565ZM73.621 38.0565H77.1671V41.6026H73.621V38.0565ZM80.7132 38.0565H84.2593V41.6026H80.7132V38.0565ZM87.8054 38.0565H91.3515V41.6026H87.8054V38.0565ZM91.3515 38.0565H94.8976V41.6026H91.3515V38.0565ZM27.5217 41.6026H31.0678V45.1487H27.5217V41.6026ZM45.2522 41.6026H48.7983V45.1487H45.2522V41.6026ZM59.4366 41.6026H62.9827V45.1487H59.4366V41.6026ZM66.5288 41.6026H70.0749V45.1487H66.5288V41.6026ZM73.621 41.6026H77.1671V45.1487H73.621V41.6026ZM80.7132 41.6026H84.2593V45.1487H80.7132V41.6026ZM84.2593 41.6026H87.8054V45.1487H84.2593V41.6026ZM91.3515 41.6026H94.8976V45.1487H91.3515V41.6026ZM6.24512 45.1487H9.79122V48.6948H6.24512V45.1487ZM9.79122 45.1487H13.3373V48.6948H9.79122V45.1487ZM20.4295 45.1487H23.9756V48.6948H20.4295V45.1487ZM31.0678 45.1487H34.6139V48.6948H31.0678V45.1487ZM38.16 45.1487H41.7061V48.6948H38.16V45.1487ZM41.7061 45.1487H45.2522V48.6948H41.7061V45.1487ZM52.3444 45.1487H55.8905V48.6948H52.3444V45.1487ZM59.4366 45.1487H62.9827V48.6948H59.4366V45.1487ZM66.5288 45.1487H70.0749V48.6948H66.5288V45.1487ZM73.621 45.1487H77.1671V48.6948H73.621V45.1487ZM80.7132 45.1487H84.2593V48.6948H80.7132V45.1487ZM6.24512 48.6948H9.79122V52.2409H6.24512V48.6948ZM9.79122 48.6948H13.3373V52.2409H9.79122V48.6948ZM16.8834 48.6948H20.4295V52.2409H16.8834V48.6948ZM27.5217 48.6948H31.0678V52.2409H27.5217V48.6948ZM31.0678 48.6948H34.6139V52.2409H31.0678V48.6948ZM34.6139 48.6948H38.16V52.2409H34.6139V48.6948ZM38.16 48.6948H41.7061V52.2409H38.16V48.6948ZM41.7061 48.6948H45.2522V52.2409H41.7061V48.6948ZM52.3444 48.6948H55.8905V52.2409H52.3444V48.6948ZM59.4366 48.6948H62.9827V52.2409H59.4366V48.6948ZM62.9827 48.6948H66.5288V52.2409H62.9827V48.6948ZM70.0749 48.6948H73.621V52.2409H70.0749V48.6948ZM73.621 48.6948H77.1671V52.2409H73.621V48.6948ZM91.3515 48.6948H94.8976V52.2409H91.3515V48.6948ZM13.3373 52.2409H16.8834V55.787H13.3373V52.2409ZM16.8834 52.2409H20.4295V55.787H16.8834V52.2409ZM20.4295 52.2409H23.9756V55.787H20.4295V52.2409ZM41.7061 52.2409H45.2522V55.787H41.7061V52.2409ZM45.2522 52.2409H48.7983V55.787H45.2522V52.2409ZM48.7983 52.2409H52.3444V55.787H48.7983V52.2409ZM59.4366 52.2409H62.9827V55.787H59.4366V52.2409ZM62.9827 52.2409H66.5288V55.787H62.9827V52.2409ZM70.0749 52.2409H73.621V55.787H70.0749V52.2409ZM73.621 52.2409H77.1671V55.787H73.621V52.2409ZM87.8054 52.2409H91.3515V55.787H87.8054V52.2409ZM91.3515 52.2409H94.8976V55.787H91.3515V52.2409ZM6.24512 55.787H9.79122V59.3331H6.24512V55.787ZM9.79122 55.787H13.3373V59.3331H9.79122V55.787ZM16.8834 55.787H20.4295V59.3331H16.8834V55.787ZM23.9756 55.787H27.5217V59.3331H23.9756V55.787ZM27.5217 55.787H31.0678V59.3331H27.5217V55.787ZM34.6139 55.787H38.16V59.3331H34.6139V55.787ZM38.16 55.787H41.7061V59.3331H38.16V55.787ZM41.7061 55.787H45.2522V59.3331H41.7061V55.787ZM48.7983 55.787H52.3444V59.3331H48.7983V55.787ZM59.4366 55.787H62.9827V59.3331H59.4366V55.787ZM62.9827 55.787H66.5288V59.3331H62.9827V55.787ZM70.0749 55.787H73.621V59.3331H70.0749V55.787ZM80.7132 55.787H84.2593V59.3331H80.7132V55.787ZM84.2593 55.787H87.8054V59.3331H84.2593V55.787ZM91.3515 55.787H94.8976V59.3331H91.3515V55.787ZM13.3373 59.3331H16.8834V62.8792H13.3373V59.3331ZM16.8834 59.3331H20.4295V62.8792H16.8834V59.3331ZM20.4295 59.3331H23.9756V62.8792H20.4295V59.3331ZM31.0678 59.3331H34.6139V62.8792H31.0678V59.3331ZM41.7061 59.3331H45.2522V62.8792H41.7061V59.3331ZM55.8905 59.3331H59.4366V62.8792H55.8905V59.3331ZM59.4366 59.3331H62.9827V62.8792H59.4366V59.3331ZM62.9827 59.3331H66.5288V62.8792H62.9827V59.3331ZM66.5288 59.3331H70.0749V62.8792H66.5288V59.3331ZM70.0749 59.3331H73.621V62.8792H70.0749V59.3331ZM73.621 59.3331H77.1671V62.8792H73.621V59.3331ZM77.1671 59.3331H80.7132V62.8792H77.1671V59.3331ZM80.7132 59.3331H84.2593V62.8792H80.7132V59.3331ZM6.24512 62.8792H9.79122V66.4253H6.24512V62.8792ZM9.79122 62.8792H13.3373V66.4253H9.79122V62.8792ZM13.3373 62.8792H16.8834V66.4253H13.3373V62.8792ZM20.4295 62.8792H23.9756V66.4253H20.4295V62.8792ZM27.5217 62.8792H31.0678V66.4253H27.5217V62.8792ZM34.6139 62.8792H38.16V66.4253H34.6139V62.8792ZM45.2522 62.8792H48.7983V66.4253H45.2522V62.8792ZM62.9827 62.8792H66.5288V66.4253H62.9827V62.8792ZM66.5288 62.8792H70.0749V66.4253H66.5288V62.8792ZM70.0749 62.8792H73.621V66.4253H70.0749V62.8792ZM73.621 62.8792H77.1671V66.4253H73.621V62.8792ZM77.1671 62.8792H80.7132V66.4253H77.1671V62.8792ZM87.8054 62.8792H91.3515V66.4253H87.8054V62.8792ZM34.6139 66.4253H38.16V69.9714H34.6139V66.4253ZM38.16 66.4253H41.7061V69.9714H38.16V66.4253ZM41.7061 66.4253H45.2522V69.9714H41.7061V66.4253ZM45.2522 66.4253H48.7983V69.9714H45.2522V66.4253ZM52.3444 66.4253H55.8905V69.9714H52.3444V66.4253ZM55.8905 66.4253H59.4366V69.9714H55.8905V66.4253ZM62.9827 66.4253H66.5288V69.9714H62.9827V66.4253ZM77.1671 66.4253H80.7132V69.9714H77.1671V66.4253ZM91.3515 66.4253H94.8976V69.9714H91.3515V66.4253ZM6.24512 69.9714H9.79122V73.5175H6.24512V69.9714ZM9.79122 69.9714H13.3373V73.5175H9.79122V69.9714ZM13.3373 69.9714H16.8834V73.5175H13.3373V69.9714ZM16.8834 69.9714H20.4295V73.5175H16.8834V69.9714ZM20.4295 69.9714H23.9756V73.5175H20.4295V69.9714ZM23.9756 69.9714H27.5217V73.5175H23.9756V69.9714ZM27.5217 69.9714H31.0678V73.5175H27.5217V69.9714ZM41.7061 69.9714H45.2522V73.5175H41.7061V69.9714ZM45.2522 69.9714H48.7983V73.5175H45.2522V69.9714ZM55.8905 69.9714H59.4366V73.5175H55.8905V69.9714ZM62.9827 69.9714H66.5288V73.5175H62.9827V69.9714ZM70.0749 69.9714H73.621V73.5175H70.0749V69.9714ZM77.1671 69.9714H80.7132V73.5175H77.1671V69.9714ZM91.3515 69.9714H94.8976V73.5175H91.3515V69.9714ZM6.24512 73.5175H9.79122V77.0636H6.24512V73.5175ZM27.5217 73.5175H31.0678V77.0636H27.5217V73.5175ZM38.16 73.5175H41.7061V77.0636H38.16V73.5175ZM41.7061 73.5175H45.2522V77.0636H41.7061V73.5175ZM48.7983 73.5175H52.3444V77.0636H48.7983V73.5175ZM52.3444 73.5175H55.8905V77.0636H52.3444V73.5175ZM62.9827 73.5175H66.5288V77.0636H62.9827V73.5175ZM77.1671 73.5175H80.7132V77.0636H77.1671V73.5175ZM87.8054 73.5175H91.3515V77.0636H87.8054V73.5175ZM6.24512 77.0636H9.79122V80.6097H6.24512V77.0636ZM13.3373 77.0636H16.8834V80.6097H13.3373V77.0636ZM16.8834 77.0636H20.4295V80.6097H16.8834V77.0636ZM20.4295 77.0636H23.9756V80.6097H20.4295V77.0636ZM27.5217 77.0636H31.0678V80.6097H27.5217V77.0636ZM38.16 77.0636H41.7061V80.6097H38.16V77.0636ZM41.7061 77.0636H45.2522V80.6097H41.7061V77.0636ZM55.8905 77.0636H59.4366V80.6097H55.8905V77.0636ZM59.4366 77.0636H62.9827V80.6097H59.4366V77.0636ZM62.9827 77.0636H66.5288V80.6097H62.9827V77.0636ZM66.5288 77.0636H70.0749V80.6097H66.5288V77.0636ZM70.0749 77.0636H73.621V80.6097H70.0749V77.0636ZM73.621 77.0636H77.1671V80.6097H73.621V77.0636ZM77.1671 77.0636H80.7132V80.6097H77.1671V77.0636ZM87.8054 77.0636H91.3515V80.6097H87.8054V77.0636ZM91.3515 77.0636H94.8976V80.6097H91.3515V77.0636ZM6.24512 80.6097H9.79122V84.1558H6.24512V80.6097ZM13.3373 80.6097H16.8834V84.1558H13.3373V80.6097ZM16.8834 80.6097H20.4295V84.1558H16.8834V80.6097ZM20.4295 80.6097H23.9756V84.1558H20.4295V80.6097ZM27.5217 80.6097H31.0678V84.1558H27.5217V80.6097ZM38.16 80.6097H41.7061V84.1558H38.16V80.6097ZM41.7061 80.6097H45.2522V84.1558H41.7061V80.6097ZM45.2522 80.6097H48.7983V84.1558H45.2522V80.6097ZM48.7983 80.6097H52.3444V84.1558H48.7983V80.6097ZM59.4366 80.6097H62.9827V84.1558H59.4366V80.6097ZM66.5288 80.6097H70.0749V84.1558H66.5288V80.6097ZM77.1671 80.6097H80.7132V84.1558H77.1671V80.6097ZM84.2593 80.6097H87.8054V84.1558H84.2593V80.6097ZM87.8054 80.6097H91.3515V84.1558H87.8054V80.6097ZM6.24512 84.1558H9.79122V87.7019H6.24512V84.1558ZM13.3373 84.1558H16.8834V87.7019H13.3373V84.1558ZM16.8834 84.1558H20.4295V87.7019H16.8834V84.1558ZM20.4295 84.1558H23.9756V87.7019H20.4295V84.1558ZM27.5217 84.1558H31.0678V87.7019H27.5217V84.1558ZM34.6139 84.1558H38.16V87.7019H34.6139V84.1558ZM52.3444 84.1558H55.8905V87.7019H52.3444V84.1558ZM55.8905 84.1558H59.4366V87.7019H55.8905V84.1558ZM59.4366 84.1558H62.9827V87.7019H59.4366V84.1558ZM62.9827 84.1558H66.5288V87.7019H62.9827V84.1558ZM66.5288 84.1558H70.0749V87.7019H66.5288V84.1558ZM73.621 84.1558H77.1671V87.7019H73.621V84.1558ZM77.1671 84.1558H80.7132V87.7019H77.1671V84.1558ZM80.7132 84.1558H84.2593V87.7019H80.7132V84.1558ZM87.8054 84.1558H91.3515V87.7019H87.8054V84.1558ZM91.3515 84.1558H94.8976V87.7019H91.3515V84.1558ZM6.24512 87.7019H9.79122V91.248H6.24512V87.7019ZM27.5217 87.7019H31.0678V91.248H27.5217V87.7019ZM34.6139 87.7019H38.16V91.248H34.6139V87.7019ZM38.16 87.7019H41.7061V91.248H38.16V87.7019ZM41.7061 87.7019H45.2522V91.248H41.7061V87.7019ZM52.3444 87.7019H55.8905V91.248H52.3444V87.7019ZM62.9827 87.7019H66.5288V91.248H62.9827V87.7019ZM66.5288 87.7019H70.0749V91.248H66.5288V87.7019ZM70.0749 87.7019H73.621V91.248H70.0749V87.7019ZM73.621 87.7019H77.1671V91.248H73.621V87.7019ZM77.1671 87.7019H80.7132V91.248H77.1671V87.7019ZM6.24512 91.248H9.79122V94.7941H6.24512V91.248ZM9.79122 91.248H13.3373V94.7941H9.79122V91.248ZM13.3373 91.248H16.8834V94.7941H13.3373V91.248ZM16.8834 91.248H20.4295V94.7941H16.8834V91.248ZM20.4295 91.248H23.9756V94.7941H20.4295V91.248ZM23.9756 91.248H27.5217V94.7941H23.9756V91.248ZM27.5217 91.248H31.0678V94.7941H27.5217V91.248ZM41.7061 91.248H45.2522V94.7941H41.7061V91.248ZM48.7983 91.248H52.3444V94.7941H48.7983V91.248ZM62.9827 91.248H66.5288V94.7941H62.9827V91.248ZM70.0749 91.248H73.621V94.7941H70.0749V91.248ZM80.7132 91.248H84.2593V94.7941H80.7132V91.248ZM91.3515 91.248H94.8976V94.7941H91.3515V91.248Z" fill="black"/>
</svg>
