<svg width="100" height="101" viewBox="0 0 100 101" fill="none" xmlns="http://www.w3.org/2000/svg">
<rect width="100" height="100" transform="translate(0 0.717773)" fill="white"/>
<path d="M5.67383 6.3916H9.21993V9.9377H5.67383V6.3916ZM9.21993 6.3916H12.766V9.9377H9.21993V6.3916ZM12.766 6.3916H16.3121V9.9377H12.766V6.3916ZM16.3121 6.3916H19.8582V9.9377H16.3121V6.3916ZM19.8582 6.3916H23.4043V9.9377H19.8582V6.3916ZM23.4043 6.3916H26.9504V9.9377H23.4043V6.3916ZM26.9504 6.3916H30.4965V9.9377H26.9504V6.3916ZM44.6809 6.3916H48.227V9.9377H44.6809V6.3916ZM55.3192 6.3916H58.8653V9.9377H55.3192V6.3916ZM58.8653 6.3916H62.4114V9.9377H58.8653V6.3916ZM62.4114 6.3916H65.9575V9.9377H62.4114V6.3916ZM69.5036 6.3916H73.0497V9.9377H69.5036V6.3916ZM73.0497 6.3916H76.5958V9.9377H73.0497V6.3916ZM76.5958 6.3916H80.1419V9.9377H76.5958V6.3916ZM80.1419 6.3916H83.688V9.9377H80.1419V6.3916ZM83.688 6.3916H87.2341V9.9377H83.688V6.3916ZM87.2341 6.3916H90.7802V9.9377H87.2341V6.3916ZM90.7802 6.3916H94.3263V9.9377H90.7802V6.3916ZM5.67383 9.9377H9.21993V13.4838H5.67383V9.9377ZM26.9504 9.9377H30.4965V13.4838H26.9504V9.9377ZM37.5887 9.9377H41.1348V13.4838H37.5887V9.9377ZM51.7731 9.9377H55.3192V13.4838H51.7731V9.9377ZM55.3192 9.9377H58.8653V13.4838H55.3192V9.9377ZM62.4114 9.9377H65.9575V13.4838H62.4114V9.9377ZM69.5036 9.9377H73.0497V13.4838H69.5036V9.9377ZM90.7802 9.9377H94.3263V13.4838H90.7802V9.9377ZM5.67383 13.4838H9.21993V17.0299H5.67383V13.4838ZM12.766 13.4838H16.3121V17.0299H12.766V13.4838ZM16.3121 13.4838H19.8582V17.0299H16.3121V13.4838ZM19.8582 13.4838H23.4043V17.0299H19.8582V13.4838ZM26.9504 13.4838H30.4965V17.0299H26.9504V13.4838ZM37.5887 13.4838H41.1348V17.0299H37.5887V13.4838ZM41.1348 13.4838H44.6809V17.0299H41.1348V13.4838ZM48.227 13.4838H51.7731V17.0299H48.227V13.4838ZM55.3192 13.4838H58.8653V17.0299H55.3192V13.4838ZM58.8653 13.4838H62.4114V17.0299H58.8653V13.4838ZM69.5036 13.4838H73.0497V17.0299H69.5036V13.4838ZM76.5958 13.4838H80.1419V17.0299H76.5958V13.4838ZM80.1419 13.4838H83.688V17.0299H80.1419V13.4838ZM83.688 13.4838H87.2341V17.0299H83.688V13.4838ZM90.7802 13.4838H94.3263V17.0299H90.7802V13.4838ZM5.67383 17.0299H9.21993V20.576H5.67383V17.0299ZM12.766 17.0299H16.3121V20.576H12.766V17.0299ZM16.3121 17.0299H19.8582V20.576H16.3121V17.0299ZM19.8582 17.0299H23.4043V20.576H19.8582V17.0299ZM26.9504 17.0299H30.4965V20.576H26.9504V17.0299ZM34.0426 17.0299H37.5887V20.576H34.0426V17.0299ZM37.5887 17.0299H41.1348V20.576H37.5887V17.0299ZM48.227 17.0299H51.7731V20.576H48.227V17.0299ZM55.3192 17.0299H58.8653V20.576H55.3192V17.0299ZM58.8653 17.0299H62.4114V20.576H58.8653V17.0299ZM69.5036 17.0299H73.0497V20.576H69.5036V17.0299ZM76.5958 17.0299H80.1419V20.576H76.5958V17.0299ZM80.1419 17.0299H83.688V20.576H80.1419V17.0299ZM83.688 17.0299H87.2341V20.576H83.688V17.0299ZM90.7802 17.0299H94.3263V20.576H90.7802V17.0299ZM5.67383 20.576H9.21993V24.1221H5.67383V20.576ZM12.766 20.576H16.3121V24.1221H12.766V20.576ZM16.3121 20.576H19.8582V24.1221H16.3121V20.576ZM19.8582 20.576H23.4043V24.1221H19.8582V20.576ZM26.9504 20.576H30.4965V24.1221H26.9504V20.576ZM41.1348 20.576H44.6809V24.1221H41.1348V20.576ZM44.6809 20.576H48.227V24.1221H44.6809V20.576ZM48.227 20.576H51.7731V24.1221H48.227V20.576ZM51.7731 20.576H55.3192V24.1221H51.7731V20.576ZM55.3192 20.576H58.8653V24.1221H55.3192V20.576ZM69.5036 20.576H73.0497V24.1221H69.5036V20.576ZM76.5958 20.576H80.1419V24.1221H76.5958V20.576ZM80.1419 20.576H83.688V24.1221H80.1419V20.576ZM83.688 20.576H87.2341V24.1221H83.688V20.576ZM90.7802 20.576H94.3263V24.1221H90.7802V20.576ZM5.67383 24.1221H9.21993V27.6682H5.67383V24.1221ZM26.9504 24.1221H30.4965V27.6682H26.9504V24.1221ZM34.0426 24.1221H37.5887V27.6682H34.0426V24.1221ZM44.6809 24.1221H48.227V27.6682H44.6809V24.1221ZM62.4114 24.1221H65.9575V27.6682H62.4114V24.1221ZM69.5036 24.1221H73.0497V27.6682H69.5036V24.1221ZM90.7802 24.1221H94.3263V27.6682H90.7802V24.1221ZM5.67383 27.6682H9.21993V31.2143H5.67383V27.6682ZM9.21993 27.6682H12.766V31.2143H9.21993V27.6682ZM12.766 27.6682H16.3121V31.2143H12.766V27.6682ZM16.3121 27.6682H19.8582V31.2143H16.3121V27.6682ZM19.8582 27.6682H23.4043V31.2143H19.8582V27.6682ZM23.4043 27.6682H26.9504V31.2143H23.4043V27.6682ZM26.9504 27.6682H30.4965V31.2143H26.9504V27.6682ZM34.0426 27.6682H37.5887V31.2143H34.0426V27.6682ZM41.1348 27.6682H44.6809V31.2143H41.1348V27.6682ZM48.227 27.6682H51.7731V31.2143H48.227V27.6682ZM55.3192 27.6682H58.8653V31.2143H55.3192V27.6682ZM62.4114 27.6682H65.9575V31.2143H62.4114V27.6682ZM69.5036 27.6682H73.0497V31.2143H69.5036V27.6682ZM73.0497 27.6682H76.5958V31.2143H73.0497V27.6682ZM76.5958 27.6682H80.1419V31.2143H76.5958V27.6682ZM80.1419 27.6682H83.688V31.2143H80.1419V27.6682ZM83.688 27.6682H87.2341V31.2143H83.688V27.6682ZM87.2341 27.6682H90.7802V31.2143H87.2341V27.6682ZM90.7802 27.6682H94.3263V31.2143H90.7802V27.6682ZM34.0426 31.2143H37.5887V34.7604H34.0426V31.2143ZM37.5887 31.2143H41.1348V34.7604H37.5887V31.2143ZM41.1348 31.2143H44.6809V34.7604H41.1348V31.2143ZM55.3192 31.2143H58.8653V34.7604H55.3192V31.2143ZM58.8653 31.2143H62.4114V34.7604H58.8653V31.2143ZM62.4114 31.2143H65.9575V34.7604H62.4114V31.2143ZM9.21993 34.7604H12.766V38.3065H9.21993V34.7604ZM12.766 34.7604H16.3121V38.3065H12.766V34.7604ZM26.9504 34.7604H30.4965V38.3065H26.9504V34.7604ZM51.7731 34.7604H55.3192V38.3065H51.7731V34.7604ZM55.3192 34.7604H58.8653V38.3065H55.3192V34.7604ZM62.4114 34.7604H65.9575V38.3065H62.4114V34.7604ZM69.5036 34.7604H73.0497V38.3065H69.5036V34.7604ZM73.0497 34.7604H76.5958V38.3065H73.0497V34.7604ZM80.1419 34.7604H83.688V38.3065H80.1419V34.7604ZM9.21993 38.3065H12.766V41.8526H9.21993V38.3065ZM12.766 38.3065H16.3121V41.8526H12.766V38.3065ZM19.8582 38.3065H23.4043V41.8526H19.8582V38.3065ZM30.4965 38.3065H34.0426V41.8526H30.4965V38.3065ZM41.1348 38.3065H44.6809V41.8526H41.1348V38.3065ZM44.6809 38.3065H48.227V41.8526H44.6809V38.3065ZM48.227 38.3065H51.7731V41.8526H48.227V38.3065ZM51.7731 38.3065H55.3192V41.8526H51.7731V38.3065ZM55.3192 38.3065H58.8653V41.8526H55.3192V38.3065ZM58.8653 38.3065H62.4114V41.8526H58.8653V38.3065ZM62.4114 38.3065H65.9575V41.8526H62.4114V38.3065ZM69.5036 38.3065H73.0497V41.8526H69.5036V38.3065ZM73.0497 38.3065H76.5958V41.8526H73.0497V38.3065ZM80.1419 38.3065H83.688V41.8526H80.1419V38.3065ZM87.2341 38.3065H90.7802V41.8526H87.2341V38.3065ZM90.7802 38.3065H94.3263V41.8526H90.7802V38.3065ZM26.9504 41.8526H30.4965V45.3987H26.9504V41.8526ZM44.6809 41.8526H48.227V45.3987H44.6809V41.8526ZM58.8653 41.8526H62.4114V45.3987H58.8653V41.8526ZM65.9575 41.8526H69.5036V45.3987H65.9575V41.8526ZM73.0497 41.8526H76.5958V45.3987H73.0497V41.8526ZM80.1419 41.8526H83.688V45.3987H80.1419V41.8526ZM83.688 41.8526H87.2341V45.3987H83.688V41.8526ZM90.7802 41.8526H94.3263V45.3987H90.7802V41.8526ZM5.67383 45.3987H9.21993V48.9448H5.67383V45.3987ZM9.21993 45.3987H12.766V48.9448H9.21993V45.3987ZM19.8582 45.3987H23.4043V48.9448H19.8582V45.3987ZM30.4965 45.3987H34.0426V48.9448H30.4965V45.3987ZM37.5887 45.3987H41.1348V48.9448H37.5887V45.3987ZM41.1348 45.3987H44.6809V48.9448H41.1348V45.3987ZM51.7731 45.3987H55.3192V48.9448H51.7731V45.3987ZM58.8653 45.3987H62.4114V48.9448H58.8653V45.3987ZM65.9575 45.3987H69.5036V48.9448H65.9575V45.3987ZM73.0497 45.3987H76.5958V48.9448H73.0497V45.3987ZM80.1419 45.3987H83.688V48.9448H80.1419V45.3987ZM5.67383 48.9448H9.21993V52.4909H5.67383V48.9448ZM9.21993 48.9448H12.766V52.4909H9.21993V48.9448ZM16.3121 48.9448H19.8582V52.4909H16.3121V48.9448ZM26.9504 48.9448H30.4965V52.4909H26.9504V48.9448ZM30.4965 48.9448H34.0426V52.4909H30.4965V48.9448ZM34.0426 48.9448H37.5887V52.4909H34.0426V48.9448ZM37.5887 48.9448H41.1348V52.4909H37.5887V48.9448ZM41.1348 48.9448H44.6809V52.4909H41.1348V48.9448ZM51.7731 48.9448H55.3192V52.4909H51.7731V48.9448ZM58.8653 48.9448H62.4114V52.4909H58.8653V48.9448ZM62.4114 48.9448H65.9575V52.4909H62.4114V48.9448ZM69.5036 48.9448H73.0497V52.4909H69.5036V48.9448ZM73.0497 48.9448H76.5958V52.4909H73.0497V48.9448ZM90.7802 48.9448H94.3263V52.4909H90.7802V48.9448ZM12.766 52.4909H16.3121V56.037H12.766V52.4909ZM16.3121 52.4909H19.8582V56.037H16.3121V52.4909ZM19.8582 52.4909H23.4043V56.037H19.8582V52.4909ZM41.1348 52.4909H44.6809V56.037H41.1348V52.4909ZM44.6809 52.4909H48.227V56.037H44.6809V52.4909ZM48.227 52.4909H51.7731V56.037H48.227V52.4909ZM58.8653 52.4909H62.4114V56.037H58.8653V52.4909ZM62.4114 52.4909H65.9575V56.037H62.4114V52.4909ZM69.5036 52.4909H73.0497V56.037H69.5036V52.4909ZM73.0497 52.4909H76.5958V56.037H73.0497V52.4909ZM87.2341 52.4909H90.7802V56.037H87.2341V52.4909ZM90.7802 52.4909H94.3263V56.037H90.7802V52.4909ZM5.67383 56.037H9.21993V59.5831H5.67383V56.037ZM9.21993 56.037H12.766V59.5831H9.21993V56.037ZM16.3121 56.037H19.8582V59.5831H16.3121V56.037ZM23.4043 56.037H26.9504V59.5831H23.4043V56.037ZM26.9504 56.037H30.4965V59.5831H26.9504V56.037ZM34.0426 56.037H37.5887V59.5831H34.0426V56.037ZM37.5887 56.037H41.1348V59.5831H37.5887V56.037ZM41.1348 56.037H44.6809V59.5831H41.1348V56.037ZM48.227 56.037H51.7731V59.5831H48.227V56.037ZM58.8653 56.037H62.4114V59.5831H58.8653V56.037ZM62.4114 56.037H65.9575V59.5831H62.4114V56.037ZM69.5036 56.037H73.0497V59.5831H69.5036V56.037ZM80.1419 56.037H83.688V59.5831H80.1419V56.037ZM83.688 56.037H87.2341V59.5831H83.688V56.037ZM90.7802 56.037H94.3263V59.5831H90.7802V56.037ZM12.766 59.5831H16.3121V63.1292H12.766V59.5831ZM16.3121 59.5831H19.8582V63.1292H16.3121V59.5831ZM19.8582 59.5831H23.4043V63.1292H19.8582V59.5831ZM30.4965 59.5831H34.0426V63.1292H30.4965V59.5831ZM41.1348 59.5831H44.6809V63.1292H41.1348V59.5831ZM55.3192 59.5831H58.8653V63.1292H55.3192V59.5831ZM58.8653 59.5831H62.4114V63.1292H58.8653V59.5831ZM62.4114 59.5831H65.9575V63.1292H62.4114V59.5831ZM65.9575 59.5831H69.5036V63.1292H65.9575V59.5831ZM69.5036 59.5831H73.0497V63.1292H69.5036V59.5831ZM73.0497 59.5831H76.5958V63.1292H73.0497V59.5831ZM76.5958 59.5831H80.1419V63.1292H76.5958V59.5831ZM80.1419 59.5831H83.688V63.1292H80.1419V59.5831ZM5.67383 63.1292H9.21993V66.6753H5.67383V63.1292ZM9.21993 63.1292H12.766V66.6753H9.21993V63.1292ZM12.766 63.1292H16.3121V66.6753H12.766V63.1292ZM19.8582 63.1292H23.4043V66.6753H19.8582V63.1292ZM26.9504 63.1292H30.4965V66.6753H26.9504V63.1292ZM34.0426 63.1292H37.5887V66.6753H34.0426V63.1292ZM44.6809 63.1292H48.227V66.6753H44.6809V63.1292ZM62.4114 63.1292H65.9575V66.6753H62.4114V63.1292ZM65.9575 63.1292H69.5036V66.6753H65.9575V63.1292ZM69.5036 63.1292H73.0497V66.6753H69.5036V63.1292ZM73.0497 63.1292H76.5958V66.6753H73.0497V63.1292ZM76.5958 63.1292H80.1419V66.6753H76.5958V63.1292ZM87.2341 63.1292H90.7802V66.6753H87.2341V63.1292ZM34.0426 66.6753H37.5887V70.2214H34.0426V66.6753ZM37.5887 66.6753H41.1348V70.2214H37.5887V66.6753ZM41.1348 66.6753H44.6809V70.2214H41.1348V66.6753ZM44.6809 66.6753H48.227V70.2214H44.6809V66.6753ZM51.7731 66.6753H55.3192V70.2214H51.7731V66.6753ZM55.3192 66.6753H58.8653V70.2214H55.3192V66.6753ZM62.4114 66.6753H65.9575V70.2214H62.4114V66.6753ZM76.5958 66.6753H80.1419V70.2214H76.5958V66.6753ZM90.7802 66.6753H94.3263V70.2214H90.7802V66.6753ZM5.67383 70.2214H9.21993V73.7675H5.67383V70.2214ZM9.21993 70.2214H12.766V73.7675H9.21993V70.2214ZM12.766 70.2214H16.3121V73.7675H12.766V70.2214ZM16.3121 70.2214H19.8582V73.7675H16.3121V70.2214ZM19.8582 70.2214H23.4043V73.7675H19.8582V70.2214ZM23.4043 70.2214H26.9504V73.7675H23.4043V70.2214ZM26.9504 70.2214H30.4965V73.7675H26.9504V70.2214ZM41.1348 70.2214H44.6809V73.7675H41.1348V70.2214ZM44.6809 70.2214H48.227V73.7675H44.6809V70.2214ZM55.3192 70.2214H58.8653V73.7675H55.3192V70.2214ZM62.4114 70.2214H65.9575V73.7675H62.4114V70.2214ZM69.5036 70.2214H73.0497V73.7675H69.5036V70.2214ZM76.5958 70.2214H80.1419V73.7675H76.5958V70.2214ZM90.7802 70.2214H94.3263V73.7675H90.7802V70.2214ZM5.67383 73.7675H9.21993V77.3136H5.67383V73.7675ZM26.9504 73.7675H30.4965V77.3136H26.9504V73.7675ZM37.5887 73.7675H41.1348V77.3136H37.5887V73.7675ZM41.1348 73.7675H44.6809V77.3136H41.1348V73.7675ZM48.227 73.7675H51.7731V77.3136H48.227V73.7675ZM51.7731 73.7675H55.3192V77.3136H51.7731V73.7675ZM62.4114 73.7675H65.9575V77.3136H62.4114V73.7675ZM76.5958 73.7675H80.1419V77.3136H76.5958V73.7675ZM87.2341 73.7675H90.7802V77.3136H87.2341V73.7675ZM5.67383 77.3136H9.21993V80.8597H5.67383V77.3136ZM12.766 77.3136H16.3121V80.8597H12.766V77.3136ZM16.3121 77.3136H19.8582V80.8597H16.3121V77.3136ZM19.8582 77.3136H23.4043V80.8597H19.8582V77.3136ZM26.9504 77.3136H30.4965V80.8597H26.9504V77.3136ZM37.5887 77.3136H41.1348V80.8597H37.5887V77.3136ZM41.1348 77.3136H44.6809V80.8597H41.1348V77.3136ZM55.3192 77.3136H58.8653V80.8597H55.3192V77.3136ZM58.8653 77.3136H62.4114V80.8597H58.8653V77.3136ZM62.4114 77.3136H65.9575V80.8597H62.4114V77.3136ZM65.9575 77.3136H69.5036V80.8597H65.9575V77.3136ZM69.5036 77.3136H73.0497V80.8597H69.5036V77.3136ZM73.0497 77.3136H76.5958V80.8597H73.0497V77.3136ZM76.5958 77.3136H80.1419V80.8597H76.5958V77.3136ZM87.2341 77.3136H90.7802V80.8597H87.2341V77.3136ZM90.7802 77.3136H94.3263V80.8597H90.7802V77.3136ZM5.67383 80.8597H9.21993V84.4058H5.67383V80.8597ZM12.766 80.8597H16.3121V84.4058H12.766V80.8597ZM16.3121 80.8597H19.8582V84.4058H16.3121V80.8597ZM19.8582 80.8597H23.4043V84.4058H19.8582V80.8597ZM26.9504 80.8597H30.4965V84.4058H26.9504V80.8597ZM37.5887 80.8597H41.1348V84.4058H37.5887V80.8597ZM41.1348 80.8597H44.6809V84.4058H41.1348V80.8597ZM44.6809 80.8597H48.227V84.4058H44.6809V80.8597ZM48.227 80.8597H51.7731V84.4058H48.227V80.8597ZM58.8653 80.8597H62.4114V84.4058H58.8653V80.8597ZM65.9575 80.8597H69.5036V84.4058H65.9575V80.8597ZM76.5958 80.8597H80.1419V84.4058H76.5958V80.8597ZM83.688 80.8597H87.2341V84.4058H83.688V80.8597ZM87.2341 80.8597H90.7802V84.4058H87.2341V80.8597ZM5.67383 84.4058H9.21993V87.9519H5.67383V84.4058ZM12.766 84.4058H16.3121V87.9519H12.766V84.4058ZM16.3121 84.4058H19.8582V87.9519H16.3121V84.4058ZM19.8582 84.4058H23.4043V87.9519H19.8582V84.4058ZM26.9504 84.4058H30.4965V87.9519H26.9504V84.4058ZM34.0426 84.4058H37.5887V87.9519H34.0426V84.4058ZM51.7731 84.4058H55.3192V87.9519H51.7731V84.4058ZM55.3192 84.4058H58.8653V87.9519H55.3192V84.4058ZM58.8653 84.4058H62.4114V87.9519H58.8653V84.4058ZM62.4114 84.4058H65.9575V87.9519H62.4114V84.4058ZM65.9575 84.4058H69.5036V87.9519H65.9575V84.4058ZM73.0497 84.4058H76.5958V87.9519H73.0497V84.4058ZM76.5958 84.4058H80.1419V87.9519H76.5958V84.4058ZM80.1419 84.4058H83.688V87.9519H80.1419V84.4058ZM87.2341 84.4058H90.7802V87.9519H87.2341V84.4058ZM90.7802 84.4058H94.3263V87.9519H90.7802V84.4058ZM5.67383 87.9519H9.21993V91.498H5.67383V87.9519ZM26.9504 87.9519H30.4965V91.498H26.9504V87.9519ZM34.0426 87.9519H37.5887V91.498H34.0426V87.9519ZM37.5887 87.9519H41.1348V91.498H37.5887V87.9519ZM41.1348 87.9519H44.6809V91.498H41.1348V87.9519ZM51.7731 87.9519H55.3192V91.498H51.7731V87.9519ZM62.4114 87.9519H65.9575V91.498H62.4114V87.9519ZM65.9575 87.9519H69.5036V91.498H65.9575V87.9519ZM69.5036 87.9519H73.0497V91.498H69.5036V87.9519ZM73.0497 87.9519H76.5958V91.498H73.0497V87.9519ZM76.5958 87.9519H80.1419V91.498H76.5958V87.9519ZM5.67383 91.498H9.21993V95.0441H5.67383V91.498ZM9.21993 91.498H12.766V95.0441H9.21993V91.498ZM12.766 91.498H16.3121V95.0441H12.766V91.498ZM16.3121 91.498H19.8582V95.0441H16.3121V91.498ZM19.8582 91.498H23.4043V95.0441H19.8582V91.498ZM23.4043 91.498H26.9504V95.0441H23.4043V91.498ZM26.9504 91.498H30.4965V95.0441H26.9504V91.498ZM41.1348 91.498H44.6809V95.0441H41.1348V91.498ZM48.227 91.498H51.7731V95.0441H48.227V91.498ZM62.4114 91.498H65.9575V95.0441H62.4114V91.498ZM69.5036 91.498H73.0497V95.0441H69.5036V91.498ZM80.1419 91.498H83.688V95.0441H80.1419V91.498ZM90.7802 91.498H94.3263V95.0441H90.7802V91.498Z" fill="black"/>
</svg>
