<svg width="101" height="101" viewBox="0 0 101 101" fill="none" xmlns="http://www.w3.org/2000/svg">
<rect width="100" height="100" transform="translate(0.285156 0.467773)" fill="white"/>
<path d="M5.95898 6.1416H9.50508V9.6877H5.95898V6.1416ZM9.50508 6.1416H13.0512V9.6877H9.50508V6.1416ZM13.0512 6.1416H16.5973V9.6877H13.0512V6.1416ZM16.5973 6.1416H20.1434V9.6877H16.5973V6.1416ZM20.1434 6.1416H23.6895V9.6877H20.1434V6.1416ZM23.6895 6.1416H27.2356V9.6877H23.6895V6.1416ZM27.2356 6.1416H30.7817V9.6877H27.2356V6.1416ZM44.9661 6.1416H48.5122V9.6877H44.9661V6.1416ZM55.6044 6.1416H59.1505V9.6877H55.6044V6.1416ZM59.1505 6.1416H62.6966V9.6877H59.1505V6.1416ZM62.6966 6.1416H66.2427V9.6877H62.6966V6.1416ZM69.7888 6.1416H73.3349V9.6877H69.7888V6.1416ZM73.3349 6.1416H76.881V9.6877H73.3349V6.1416ZM76.881 6.1416H80.4271V9.6877H76.881V6.1416ZM80.4271 6.1416H83.9732V9.6877H80.4271V6.1416ZM83.9732 6.1416H87.5193V9.6877H83.9732V6.1416ZM87.5193 6.1416H91.0654V9.6877H87.5193V6.1416ZM91.0654 6.1416H94.6115V9.6877H91.0654V6.1416ZM5.95898 9.6877H9.50508V13.2338H5.95898V9.6877ZM27.2356 9.6877H30.7817V13.2338H27.2356V9.6877ZM37.8739 9.6877H41.42V13.2338H37.8739V9.6877ZM52.0583 9.6877H55.6044V13.2338H52.0583V9.6877ZM55.6044 9.6877H59.1505V13.2338H55.6044V9.6877ZM62.6966 9.6877H66.2427V13.2338H62.6966V9.6877ZM69.7888 9.6877H73.3349V13.2338H69.7888V9.6877ZM91.0654 9.6877H94.6115V13.2338H91.0654V9.6877ZM5.95898 13.2338H9.50508V16.7799H5.95898V13.2338ZM13.0512 13.2338H16.5973V16.7799H13.0512V13.2338ZM16.5973 13.2338H20.1434V16.7799H16.5973V13.2338ZM20.1434 13.2338H23.6895V16.7799H20.1434V13.2338ZM27.2356 13.2338H30.7817V16.7799H27.2356V13.2338ZM37.8739 13.2338H41.42V16.7799H37.8739V13.2338ZM41.42 13.2338H44.9661V16.7799H41.42V13.2338ZM48.5122 13.2338H52.0583V16.7799H48.5122V13.2338ZM55.6044 13.2338H59.1505V16.7799H55.6044V13.2338ZM59.1505 13.2338H62.6966V16.7799H59.1505V13.2338ZM69.7888 13.2338H73.3349V16.7799H69.7888V13.2338ZM76.881 13.2338H80.4271V16.7799H76.881V13.2338ZM80.4271 13.2338H83.9732V16.7799H80.4271V13.2338ZM83.9732 13.2338H87.5193V16.7799H83.9732V13.2338ZM91.0654 13.2338H94.6115V16.7799H91.0654V13.2338ZM5.95898 16.7799H9.50508V20.326H5.95898V16.7799ZM13.0512 16.7799H16.5973V20.326H13.0512V16.7799ZM16.5973 16.7799H20.1434V20.326H16.5973V16.7799ZM20.1434 16.7799H23.6895V20.326H20.1434V16.7799ZM27.2356 16.7799H30.7817V20.326H27.2356V16.7799ZM34.3278 16.7799H37.8739V20.326H34.3278V16.7799ZM37.8739 16.7799H41.42V20.326H37.8739V16.7799ZM48.5122 16.7799H52.0583V20.326H48.5122V16.7799ZM55.6044 16.7799H59.1505V20.326H55.6044V16.7799ZM59.1505 16.7799H62.6966V20.326H59.1505V16.7799ZM69.7888 16.7799H73.3349V20.326H69.7888V16.7799ZM76.881 16.7799H80.4271V20.326H76.881V16.7799ZM80.4271 16.7799H83.9732V20.326H80.4271V16.7799ZM83.9732 16.7799H87.5193V20.326H83.9732V16.7799ZM91.0654 16.7799H94.6115V20.326H91.0654V16.7799ZM5.95898 20.326H9.50508V23.8721H5.95898V20.326ZM13.0512 20.326H16.5973V23.8721H13.0512V20.326ZM16.5973 20.326H20.1434V23.8721H16.5973V20.326ZM20.1434 20.326H23.6895V23.8721H20.1434V20.326ZM27.2356 20.326H30.7817V23.8721H27.2356V20.326ZM41.42 20.326H44.9661V23.8721H41.42V20.326ZM44.9661 20.326H48.5122V23.8721H44.9661V20.326ZM48.5122 20.326H52.0583V23.8721H48.5122V20.326ZM52.0583 20.326H55.6044V23.8721H52.0583V20.326ZM55.6044 20.326H59.1505V23.8721H55.6044V20.326ZM69.7888 20.326H73.3349V23.8721H69.7888V20.326ZM76.881 20.326H80.4271V23.8721H76.881V20.326ZM80.4271 20.326H83.9732V23.8721H80.4271V20.326ZM83.9732 20.326H87.5193V23.8721H83.9732V20.326ZM91.0654 20.326H94.6115V23.8721H91.0654V20.326ZM5.95898 23.8721H9.50508V27.4182H5.95898V23.8721ZM27.2356 23.8721H30.7817V27.4182H27.2356V23.8721ZM34.3278 23.8721H37.8739V27.4182H34.3278V23.8721ZM44.9661 23.8721H48.5122V27.4182H44.9661V23.8721ZM62.6966 23.8721H66.2427V27.4182H62.6966V23.8721ZM69.7888 23.8721H73.3349V27.4182H69.7888V23.8721ZM91.0654 23.8721H94.6115V27.4182H91.0654V23.8721ZM5.95898 27.4182H9.50508V30.9643H5.95898V27.4182ZM9.50508 27.4182H13.0512V30.9643H9.50508V27.4182ZM13.0512 27.4182H16.5973V30.9643H13.0512V27.4182ZM16.5973 27.4182H20.1434V30.9643H16.5973V27.4182ZM20.1434 27.4182H23.6895V30.9643H20.1434V27.4182ZM23.6895 27.4182H27.2356V30.9643H23.6895V27.4182ZM27.2356 27.4182H30.7817V30.9643H27.2356V27.4182ZM34.3278 27.4182H37.8739V30.9643H34.3278V27.4182ZM41.42 27.4182H44.9661V30.9643H41.42V27.4182ZM48.5122 27.4182H52.0583V30.9643H48.5122V27.4182ZM55.6044 27.4182H59.1505V30.9643H55.6044V27.4182ZM62.6966 27.4182H66.2427V30.9643H62.6966V27.4182ZM69.7888 27.4182H73.3349V30.9643H69.7888V27.4182ZM73.3349 27.4182H76.881V30.9643H73.3349V27.4182ZM76.881 27.4182H80.4271V30.9643H76.881V27.4182ZM80.4271 27.4182H83.9732V30.9643H80.4271V27.4182ZM83.9732 27.4182H87.5193V30.9643H83.9732V27.4182ZM87.5193 27.4182H91.0654V30.9643H87.5193V27.4182ZM91.0654 27.4182H94.6115V30.9643H91.0654V27.4182ZM34.3278 30.9643H37.8739V34.5104H34.3278V30.9643ZM37.8739 30.9643H41.42V34.5104H37.8739V30.9643ZM41.42 30.9643H44.9661V34.5104H41.42V30.9643ZM55.6044 30.9643H59.1505V34.5104H55.6044V30.9643ZM59.1505 30.9643H62.6966V34.5104H59.1505V30.9643ZM62.6966 30.9643H66.2427V34.5104H62.6966V30.9643ZM9.50508 34.5104H13.0512V38.0565H9.50508V34.5104ZM13.0512 34.5104H16.5973V38.0565H13.0512V34.5104ZM27.2356 34.5104H30.7817V38.0565H27.2356V34.5104ZM52.0583 34.5104H55.6044V38.0565H52.0583V34.5104ZM55.6044 34.5104H59.1505V38.0565H55.6044V34.5104ZM62.6966 34.5104H66.2427V38.0565H62.6966V34.5104ZM69.7888 34.5104H73.3349V38.0565H69.7888V34.5104ZM73.3349 34.5104H76.881V38.0565H73.3349V34.5104ZM80.4271 34.5104H83.9732V38.0565H80.4271V34.5104ZM9.50508 38.0565H13.0512V41.6026H9.50508V38.0565ZM13.0512 38.0565H16.5973V41.6026H13.0512V38.0565ZM20.1434 38.0565H23.6895V41.6026H20.1434V38.0565ZM30.7817 38.0565H34.3278V41.6026H30.7817V38.0565ZM41.42 38.0565H44.9661V41.6026H41.42V38.0565ZM44.9661 38.0565H48.5122V41.6026H44.9661V38.0565ZM48.5122 38.0565H52.0583V41.6026H48.5122V38.0565ZM52.0583 38.0565H55.6044V41.6026H52.0583V38.0565ZM55.6044 38.0565H59.1505V41.6026H55.6044V38.0565ZM59.1505 38.0565H62.6966V41.6026H59.1505V38.0565ZM62.6966 38.0565H66.2427V41.6026H62.6966V38.0565ZM69.7888 38.0565H73.3349V41.6026H69.7888V38.0565ZM73.3349 38.0565H76.881V41.6026H73.3349V38.0565ZM80.4271 38.0565H83.9732V41.6026H80.4271V38.0565ZM87.5193 38.0565H91.0654V41.6026H87.5193V38.0565ZM91.0654 38.0565H94.6115V41.6026H91.0654V38.0565ZM27.2356 41.6026H30.7817V45.1487H27.2356V41.6026ZM44.9661 41.6026H48.5122V45.1487H44.9661V41.6026ZM59.1505 41.6026H62.6966V45.1487H59.1505V41.6026ZM66.2427 41.6026H69.7888V45.1487H66.2427V41.6026ZM73.3349 41.6026H76.881V45.1487H73.3349V41.6026ZM80.4271 41.6026H83.9732V45.1487H80.4271V41.6026ZM83.9732 41.6026H87.5193V45.1487H83.9732V41.6026ZM91.0654 41.6026H94.6115V45.1487H91.0654V41.6026ZM5.95898 45.1487H9.50508V48.6948H5.95898V45.1487ZM9.50508 45.1487H13.0512V48.6948H9.50508V45.1487ZM20.1434 45.1487H23.6895V48.6948H20.1434V45.1487ZM30.7817 45.1487H34.3278V48.6948H30.7817V45.1487ZM37.8739 45.1487H41.42V48.6948H37.8739V45.1487ZM41.42 45.1487H44.9661V48.6948H41.42V45.1487ZM52.0583 45.1487H55.6044V48.6948H52.0583V45.1487ZM59.1505 45.1487H62.6966V48.6948H59.1505V45.1487ZM66.2427 45.1487H69.7888V48.6948H66.2427V45.1487ZM73.3349 45.1487H76.881V48.6948H73.3349V45.1487ZM80.4271 45.1487H83.9732V48.6948H80.4271V45.1487ZM5.95898 48.6948H9.50508V52.2409H5.95898V48.6948ZM9.50508 48.6948H13.0512V52.2409H9.50508V48.6948ZM16.5973 48.6948H20.1434V52.2409H16.5973V48.6948ZM27.2356 48.6948H30.7817V52.2409H27.2356V48.6948ZM30.7817 48.6948H34.3278V52.2409H30.7817V48.6948ZM34.3278 48.6948H37.8739V52.2409H34.3278V48.6948ZM37.8739 48.6948H41.42V52.2409H37.8739V48.6948ZM41.42 48.6948H44.9661V52.2409H41.42V48.6948ZM52.0583 48.6948H55.6044V52.2409H52.0583V48.6948ZM59.1505 48.6948H62.6966V52.2409H59.1505V48.6948ZM62.6966 48.6948H66.2427V52.2409H62.6966V48.6948ZM69.7888 48.6948H73.3349V52.2409H69.7888V48.6948ZM73.3349 48.6948H76.881V52.2409H73.3349V48.6948ZM91.0654 48.6948H94.6115V52.2409H91.0654V48.6948ZM13.0512 52.2409H16.5973V55.787H13.0512V52.2409ZM16.5973 52.2409H20.1434V55.787H16.5973V52.2409ZM20.1434 52.2409H23.6895V55.787H20.1434V52.2409ZM41.42 52.2409H44.9661V55.787H41.42V52.2409ZM44.9661 52.2409H48.5122V55.787H44.9661V52.2409ZM48.5122 52.2409H52.0583V55.787H48.5122V52.2409ZM59.1505 52.2409H62.6966V55.787H59.1505V52.2409ZM62.6966 52.2409H66.2427V55.787H62.6966V52.2409ZM69.7888 52.2409H73.3349V55.787H69.7888V52.2409ZM73.3349 52.2409H76.881V55.787H73.3349V52.2409ZM87.5193 52.2409H91.0654V55.787H87.5193V52.2409ZM91.0654 52.2409H94.6115V55.787H91.0654V52.2409ZM5.95898 55.787H9.50508V59.3331H5.95898V55.787ZM9.50508 55.787H13.0512V59.3331H9.50508V55.787ZM16.5973 55.787H20.1434V59.3331H16.5973V55.787ZM23.6895 55.787H27.2356V59.3331H23.6895V55.787ZM27.2356 55.787H30.7817V59.3331H27.2356V55.787ZM34.3278 55.787H37.8739V59.3331H34.3278V55.787ZM37.8739 55.787H41.42V59.3331H37.8739V55.787ZM41.42 55.787H44.9661V59.3331H41.42V55.787ZM48.5122 55.787H52.0583V59.3331H48.5122V55.787ZM59.1505 55.787H62.6966V59.3331H59.1505V55.787ZM62.6966 55.787H66.2427V59.3331H62.6966V55.787ZM69.7888 55.787H73.3349V59.3331H69.7888V55.787ZM80.4271 55.787H83.9732V59.3331H80.4271V55.787ZM83.9732 55.787H87.5193V59.3331H83.9732V55.787ZM91.0654 55.787H94.6115V59.3331H91.0654V55.787ZM13.0512 59.3331H16.5973V62.8792H13.0512V59.3331ZM16.5973 59.3331H20.1434V62.8792H16.5973V59.3331ZM20.1434 59.3331H23.6895V62.8792H20.1434V59.3331ZM30.7817 59.3331H34.3278V62.8792H30.7817V59.3331ZM41.42 59.3331H44.9661V62.8792H41.42V59.3331ZM55.6044 59.3331H59.1505V62.8792H55.6044V59.3331ZM59.1505 59.3331H62.6966V62.8792H59.1505V59.3331ZM62.6966 59.3331H66.2427V62.8792H62.6966V59.3331ZM66.2427 59.3331H69.7888V62.8792H66.2427V59.3331ZM69.7888 59.3331H73.3349V62.8792H69.7888V59.3331ZM73.3349 59.3331H76.881V62.8792H73.3349V59.3331ZM76.881 59.3331H80.4271V62.8792H76.881V59.3331ZM80.4271 59.3331H83.9732V62.8792H80.4271V59.3331ZM5.95898 62.8792H9.50508V66.4253H5.95898V62.8792ZM9.50508 62.8792H13.0512V66.4253H9.50508V62.8792ZM13.0512 62.8792H16.5973V66.4253H13.0512V62.8792ZM20.1434 62.8792H23.6895V66.4253H20.1434V62.8792ZM27.2356 62.8792H30.7817V66.4253H27.2356V62.8792ZM34.3278 62.8792H37.8739V66.4253H34.3278V62.8792ZM44.9661 62.8792H48.5122V66.4253H44.9661V62.8792ZM62.6966 62.8792H66.2427V66.4253H62.6966V62.8792ZM66.2427 62.8792H69.7888V66.4253H66.2427V62.8792ZM69.7888 62.8792H73.3349V66.4253H69.7888V62.8792ZM73.3349 62.8792H76.881V66.4253H73.3349V62.8792ZM76.881 62.8792H80.4271V66.4253H76.881V62.8792ZM87.5193 62.8792H91.0654V66.4253H87.5193V62.8792ZM34.3278 66.4253H37.8739V69.9714H34.3278V66.4253ZM37.8739 66.4253H41.42V69.9714H37.8739V66.4253ZM41.42 66.4253H44.9661V69.9714H41.42V66.4253ZM44.9661 66.4253H48.5122V69.9714H44.9661V66.4253ZM52.0583 66.4253H55.6044V69.9714H52.0583V66.4253ZM55.6044 66.4253H59.1505V69.9714H55.6044V66.4253ZM62.6966 66.4253H66.2427V69.9714H62.6966V66.4253ZM76.881 66.4253H80.4271V69.9714H76.881V66.4253ZM91.0654 66.4253H94.6115V69.9714H91.0654V66.4253ZM5.95898 69.9714H9.50508V73.5175H5.95898V69.9714ZM9.50508 69.9714H13.0512V73.5175H9.50508V69.9714ZM13.0512 69.9714H16.5973V73.5175H13.0512V69.9714ZM16.5973 69.9714H20.1434V73.5175H16.5973V69.9714ZM20.1434 69.9714H23.6895V73.5175H20.1434V69.9714ZM23.6895 69.9714H27.2356V73.5175H23.6895V69.9714ZM27.2356 69.9714H30.7817V73.5175H27.2356V69.9714ZM41.42 69.9714H44.9661V73.5175H41.42V69.9714ZM44.9661 69.9714H48.5122V73.5175H44.9661V69.9714ZM55.6044 69.9714H59.1505V73.5175H55.6044V69.9714ZM62.6966 69.9714H66.2427V73.5175H62.6966V69.9714ZM69.7888 69.9714H73.3349V73.5175H69.7888V69.9714ZM76.881 69.9714H80.4271V73.5175H76.881V69.9714ZM91.0654 69.9714H94.6115V73.5175H91.0654V69.9714ZM5.95898 73.5175H9.50508V77.0636H5.95898V73.5175ZM27.2356 73.5175H30.7817V77.0636H27.2356V73.5175ZM37.8739 73.5175H41.42V77.0636H37.8739V73.5175ZM41.42 73.5175H44.9661V77.0636H41.42V73.5175ZM48.5122 73.5175H52.0583V77.0636H48.5122V73.5175ZM52.0583 73.5175H55.6044V77.0636H52.0583V73.5175ZM62.6966 73.5175H66.2427V77.0636H62.6966V73.5175ZM76.881 73.5175H80.4271V77.0636H76.881V73.5175ZM87.5193 73.5175H91.0654V77.0636H87.5193V73.5175ZM5.95898 77.0636H9.50508V80.6097H5.95898V77.0636ZM13.0512 77.0636H16.5973V80.6097H13.0512V77.0636ZM16.5973 77.0636H20.1434V80.6097H16.5973V77.0636ZM20.1434 77.0636H23.6895V80.6097H20.1434V77.0636ZM27.2356 77.0636H30.7817V80.6097H27.2356V77.0636ZM37.8739 77.0636H41.42V80.6097H37.8739V77.0636ZM41.42 77.0636H44.9661V80.6097H41.42V77.0636ZM55.6044 77.0636H59.1505V80.6097H55.6044V77.0636ZM59.1505 77.0636H62.6966V80.6097H59.1505V77.0636ZM62.6966 77.0636H66.2427V80.6097H62.6966V77.0636ZM66.2427 77.0636H69.7888V80.6097H66.2427V77.0636ZM69.7888 77.0636H73.3349V80.6097H69.7888V77.0636ZM73.3349 77.0636H76.881V80.6097H73.3349V77.0636ZM76.881 77.0636H80.4271V80.6097H76.881V77.0636ZM87.5193 77.0636H91.0654V80.6097H87.5193V77.0636ZM91.0654 77.0636H94.6115V80.6097H91.0654V77.0636ZM5.95898 80.6097H9.50508V84.1558H5.95898V80.6097ZM13.0512 80.6097H16.5973V84.1558H13.0512V80.6097ZM16.5973 80.6097H20.1434V84.1558H16.5973V80.6097ZM20.1434 80.6097H23.6895V84.1558H20.1434V80.6097ZM27.2356 80.6097H30.7817V84.1558H27.2356V80.6097ZM37.8739 80.6097H41.42V84.1558H37.8739V80.6097ZM41.42 80.6097H44.9661V84.1558H41.42V80.6097ZM44.9661 80.6097H48.5122V84.1558H44.9661V80.6097ZM48.5122 80.6097H52.0583V84.1558H48.5122V80.6097ZM59.1505 80.6097H62.6966V84.1558H59.1505V80.6097ZM66.2427 80.6097H69.7888V84.1558H66.2427V80.6097ZM76.881 80.6097H80.4271V84.1558H76.881V80.6097ZM83.9732 80.6097H87.5193V84.1558H83.9732V80.6097ZM87.5193 80.6097H91.0654V84.1558H87.5193V80.6097ZM5.95898 84.1558H9.50508V87.7019H5.95898V84.1558ZM13.0512 84.1558H16.5973V87.7019H13.0512V84.1558ZM16.5973 84.1558H20.1434V87.7019H16.5973V84.1558ZM20.1434 84.1558H23.6895V87.7019H20.1434V84.1558ZM27.2356 84.1558H30.7817V87.7019H27.2356V84.1558ZM34.3278 84.1558H37.8739V87.7019H34.3278V84.1558ZM52.0583 84.1558H55.6044V87.7019H52.0583V84.1558ZM55.6044 84.1558H59.1505V87.7019H55.6044V84.1558ZM59.1505 84.1558H62.6966V87.7019H59.1505V84.1558ZM62.6966 84.1558H66.2427V87.7019H62.6966V84.1558ZM66.2427 84.1558H69.7888V87.7019H66.2427V84.1558ZM73.3349 84.1558H76.881V87.7019H73.3349V84.1558ZM76.881 84.1558H80.4271V87.7019H76.881V84.1558ZM80.4271 84.1558H83.9732V87.7019H80.4271V84.1558ZM87.5193 84.1558H91.0654V87.7019H87.5193V84.1558ZM91.0654 84.1558H94.6115V87.7019H91.0654V84.1558ZM5.95898 87.7019H9.50508V91.248H5.95898V87.7019ZM27.2356 87.7019H30.7817V91.248H27.2356V87.7019ZM34.3278 87.7019H37.8739V91.248H34.3278V87.7019ZM37.8739 87.7019H41.42V91.248H37.8739V87.7019ZM41.42 87.7019H44.9661V91.248H41.42V87.7019ZM52.0583 87.7019H55.6044V91.248H52.0583V87.7019ZM62.6966 87.7019H66.2427V91.248H62.6966V87.7019ZM66.2427 87.7019H69.7888V91.248H66.2427V87.7019ZM69.7888 87.7019H73.3349V91.248H69.7888V87.7019ZM73.3349 87.7019H76.881V91.248H73.3349V87.7019ZM76.881 87.7019H80.4271V91.248H76.881V87.7019ZM5.95898 91.248H9.50508V94.7941H5.95898V91.248ZM9.50508 91.248H13.0512V94.7941H9.50508V91.248ZM13.0512 91.248H16.5973V94.7941H13.0512V91.248ZM16.5973 91.248H20.1434V94.7941H16.5973V91.248ZM20.1434 91.248H23.6895V94.7941H20.1434V91.248ZM23.6895 91.248H27.2356V94.7941H23.6895V91.248ZM27.2356 91.248H30.7817V94.7941H27.2356V91.248ZM41.42 91.248H44.9661V94.7941H41.42V91.248ZM48.5122 91.248H52.0583V94.7941H48.5122V91.248ZM62.6966 91.248H66.2427V94.7941H62.6966V91.248ZM69.7888 91.248H73.3349V94.7941H69.7888V91.248ZM80.4271 91.248H83.9732V94.7941H80.4271V91.248ZM91.0654 91.248H94.6115V94.7941H91.0654V91.248Z" fill="black"/>
</svg>
