<svg width="101" height="101" viewBox="0 0 101 101" fill="none" xmlns="http://www.w3.org/2000/svg">
<rect width="100" height="100" transform="translate(0.142578 0.467773)" fill="white"/>
<path d="M5.81641 6.1416H9.36251V9.6877H5.81641V6.1416ZM9.36251 6.1416H12.9086V9.6877H9.36251V6.1416ZM12.9086 6.1416H16.4547V9.6877H12.9086V6.1416ZM16.4547 6.1416H20.0008V9.6877H16.4547V6.1416ZM20.0008 6.1416H23.5469V9.6877H20.0008V6.1416ZM23.5469 6.1416H27.093V9.6877H23.5469V6.1416ZM27.093 6.1416H30.6391V9.6877H27.093V6.1416ZM44.8235 6.1416H48.3696V9.6877H44.8235V6.1416ZM55.4618 6.1416H59.0079V9.6877H55.4618V6.1416ZM59.0079 6.1416H62.554V9.6877H59.0079V6.1416ZM62.554 6.1416H66.1001V9.6877H62.554V6.1416ZM69.6462 6.1416H73.1923V9.6877H69.6462V6.1416ZM73.1923 6.1416H76.7384V9.6877H73.1923V6.1416ZM76.7384 6.1416H80.2845V9.6877H76.7384V6.1416ZM80.2845 6.1416H83.8306V9.6877H80.2845V6.1416ZM83.8306 6.1416H87.3767V9.6877H83.8306V6.1416ZM87.3767 6.1416H90.9228V9.6877H87.3767V6.1416ZM90.9228 6.1416H94.4689V9.6877H90.9228V6.1416ZM5.81641 9.6877H9.36251V13.2338H5.81641V9.6877ZM27.093 9.6877H30.6391V13.2338H27.093V9.6877ZM37.7313 9.6877H41.2774V13.2338H37.7313V9.6877ZM51.9157 9.6877H55.4618V13.2338H51.9157V9.6877ZM55.4618 9.6877H59.0079V13.2338H55.4618V9.6877ZM62.554 9.6877H66.1001V13.2338H62.554V9.6877ZM69.6462 9.6877H73.1923V13.2338H69.6462V9.6877ZM90.9228 9.6877H94.4689V13.2338H90.9228V9.6877ZM5.81641 13.2338H9.36251V16.7799H5.81641V13.2338ZM12.9086 13.2338H16.4547V16.7799H12.9086V13.2338ZM16.4547 13.2338H20.0008V16.7799H16.4547V13.2338ZM20.0008 13.2338H23.5469V16.7799H20.0008V13.2338ZM27.093 13.2338H30.6391V16.7799H27.093V13.2338ZM37.7313 13.2338H41.2774V16.7799H37.7313V13.2338ZM41.2774 13.2338H44.8235V16.7799H41.2774V13.2338ZM48.3696 13.2338H51.9157V16.7799H48.3696V13.2338ZM55.4618 13.2338H59.0079V16.7799H55.4618V13.2338ZM59.0079 13.2338H62.554V16.7799H59.0079V13.2338ZM69.6462 13.2338H73.1923V16.7799H69.6462V13.2338ZM76.7384 13.2338H80.2845V16.7799H76.7384V13.2338ZM80.2845 13.2338H83.8306V16.7799H80.2845V13.2338ZM83.8306 13.2338H87.3767V16.7799H83.8306V13.2338ZM90.9228 13.2338H94.4689V16.7799H90.9228V13.2338ZM5.81641 16.7799H9.36251V20.326H5.81641V16.7799ZM12.9086 16.7799H16.4547V20.326H12.9086V16.7799ZM16.4547 16.7799H20.0008V20.326H16.4547V16.7799ZM20.0008 16.7799H23.5469V20.326H20.0008V16.7799ZM27.093 16.7799H30.6391V20.326H27.093V16.7799ZM34.1852 16.7799H37.7313V20.326H34.1852V16.7799ZM37.7313 16.7799H41.2774V20.326H37.7313V16.7799ZM48.3696 16.7799H51.9157V20.326H48.3696V16.7799ZM55.4618 16.7799H59.0079V20.326H55.4618V16.7799ZM59.0079 16.7799H62.554V20.326H59.0079V16.7799ZM69.6462 16.7799H73.1923V20.326H69.6462V16.7799ZM76.7384 16.7799H80.2845V20.326H76.7384V16.7799ZM80.2845 16.7799H83.8306V20.326H80.2845V16.7799ZM83.8306 16.7799H87.3767V20.326H83.8306V16.7799ZM90.9228 16.7799H94.4689V20.326H90.9228V16.7799ZM5.81641 20.326H9.36251V23.8721H5.81641V20.326ZM12.9086 20.326H16.4547V23.8721H12.9086V20.326ZM16.4547 20.326H20.0008V23.8721H16.4547V20.326ZM20.0008 20.326H23.5469V23.8721H20.0008V20.326ZM27.093 20.326H30.6391V23.8721H27.093V20.326ZM41.2774 20.326H44.8235V23.8721H41.2774V20.326ZM44.8235 20.326H48.3696V23.8721H44.8235V20.326ZM48.3696 20.326H51.9157V23.8721H48.3696V20.326ZM51.9157 20.326H55.4618V23.8721H51.9157V20.326ZM55.4618 20.326H59.0079V23.8721H55.4618V20.326ZM69.6462 20.326H73.1923V23.8721H69.6462V20.326ZM76.7384 20.326H80.2845V23.8721H76.7384V20.326ZM80.2845 20.326H83.8306V23.8721H80.2845V20.326ZM83.8306 20.326H87.3767V23.8721H83.8306V20.326ZM90.9228 20.326H94.4689V23.8721H90.9228V20.326ZM5.81641 23.8721H9.36251V27.4182H5.81641V23.8721ZM27.093 23.8721H30.6391V27.4182H27.093V23.8721ZM34.1852 23.8721H37.7313V27.4182H34.1852V23.8721ZM44.8235 23.8721H48.3696V27.4182H44.8235V23.8721ZM62.554 23.8721H66.1001V27.4182H62.554V23.8721ZM69.6462 23.8721H73.1923V27.4182H69.6462V23.8721ZM90.9228 23.8721H94.4689V27.4182H90.9228V23.8721ZM5.81641 27.4182H9.36251V30.9643H5.81641V27.4182ZM9.36251 27.4182H12.9086V30.9643H9.36251V27.4182ZM12.9086 27.4182H16.4547V30.9643H12.9086V27.4182ZM16.4547 27.4182H20.0008V30.9643H16.4547V27.4182ZM20.0008 27.4182H23.5469V30.9643H20.0008V27.4182ZM23.5469 27.4182H27.093V30.9643H23.5469V27.4182ZM27.093 27.4182H30.6391V30.9643H27.093V27.4182ZM34.1852 27.4182H37.7313V30.9643H34.1852V27.4182ZM41.2774 27.4182H44.8235V30.9643H41.2774V27.4182ZM48.3696 27.4182H51.9157V30.9643H48.3696V27.4182ZM55.4618 27.4182H59.0079V30.9643H55.4618V27.4182ZM62.554 27.4182H66.1001V30.9643H62.554V27.4182ZM69.6462 27.4182H73.1923V30.9643H69.6462V27.4182ZM73.1923 27.4182H76.7384V30.9643H73.1923V27.4182ZM76.7384 27.4182H80.2845V30.9643H76.7384V27.4182ZM80.2845 27.4182H83.8306V30.9643H80.2845V27.4182ZM83.8306 27.4182H87.3767V30.9643H83.8306V27.4182ZM87.3767 27.4182H90.9228V30.9643H87.3767V27.4182ZM90.9228 27.4182H94.4689V30.9643H90.9228V27.4182ZM34.1852 30.9643H37.7313V34.5104H34.1852V30.9643ZM37.7313 30.9643H41.2774V34.5104H37.7313V30.9643ZM41.2774 30.9643H44.8235V34.5104H41.2774V30.9643ZM55.4618 30.9643H59.0079V34.5104H55.4618V30.9643ZM59.0079 30.9643H62.554V34.5104H59.0079V30.9643ZM62.554 30.9643H66.1001V34.5104H62.554V30.9643ZM9.36251 34.5104H12.9086V38.0565H9.36251V34.5104ZM12.9086 34.5104H16.4547V38.0565H12.9086V34.5104ZM27.093 34.5104H30.6391V38.0565H27.093V34.5104ZM51.9157 34.5104H55.4618V38.0565H51.9157V34.5104ZM55.4618 34.5104H59.0079V38.0565H55.4618V34.5104ZM62.554 34.5104H66.1001V38.0565H62.554V34.5104ZM69.6462 34.5104H73.1923V38.0565H69.6462V34.5104ZM73.1923 34.5104H76.7384V38.0565H73.1923V34.5104ZM80.2845 34.5104H83.8306V38.0565H80.2845V34.5104ZM9.36251 38.0565H12.9086V41.6026H9.36251V38.0565ZM12.9086 38.0565H16.4547V41.6026H12.9086V38.0565ZM20.0008 38.0565H23.5469V41.6026H20.0008V38.0565ZM30.6391 38.0565H34.1852V41.6026H30.6391V38.0565ZM41.2774 38.0565H44.8235V41.6026H41.2774V38.0565ZM44.8235 38.0565H48.3696V41.6026H44.8235V38.0565ZM48.3696 38.0565H51.9157V41.6026H48.3696V38.0565ZM51.9157 38.0565H55.4618V41.6026H51.9157V38.0565ZM55.4618 38.0565H59.0079V41.6026H55.4618V38.0565ZM59.0079 38.0565H62.554V41.6026H59.0079V38.0565ZM62.554 38.0565H66.1001V41.6026H62.554V38.0565ZM69.6462 38.0565H73.1923V41.6026H69.6462V38.0565ZM73.1923 38.0565H76.7384V41.6026H73.1923V38.0565ZM80.2845 38.0565H83.8306V41.6026H80.2845V38.0565ZM87.3767 38.0565H90.9228V41.6026H87.3767V38.0565ZM90.9228 38.0565H94.4689V41.6026H90.9228V38.0565ZM27.093 41.6026H30.6391V45.1487H27.093V41.6026ZM44.8235 41.6026H48.3696V45.1487H44.8235V41.6026ZM59.0079 41.6026H62.554V45.1487H59.0079V41.6026ZM66.1001 41.6026H69.6462V45.1487H66.1001V41.6026ZM73.1923 41.6026H76.7384V45.1487H73.1923V41.6026ZM80.2845 41.6026H83.8306V45.1487H80.2845V41.6026ZM83.8306 41.6026H87.3767V45.1487H83.8306V41.6026ZM90.9228 41.6026H94.4689V45.1487H90.9228V41.6026ZM5.81641 45.1487H9.36251V48.6948H5.81641V45.1487ZM9.36251 45.1487H12.9086V48.6948H9.36251V45.1487ZM20.0008 45.1487H23.5469V48.6948H20.0008V45.1487ZM30.6391 45.1487H34.1852V48.6948H30.6391V45.1487ZM37.7313 45.1487H41.2774V48.6948H37.7313V45.1487ZM41.2774 45.1487H44.8235V48.6948H41.2774V45.1487ZM51.9157 45.1487H55.4618V48.6948H51.9157V45.1487ZM59.0079 45.1487H62.554V48.6948H59.0079V45.1487ZM66.1001 45.1487H69.6462V48.6948H66.1001V45.1487ZM73.1923 45.1487H76.7384V48.6948H73.1923V45.1487ZM80.2845 45.1487H83.8306V48.6948H80.2845V45.1487ZM5.81641 48.6948H9.36251V52.2409H5.81641V48.6948ZM9.36251 48.6948H12.9086V52.2409H9.36251V48.6948ZM16.4547 48.6948H20.0008V52.2409H16.4547V48.6948ZM27.093 48.6948H30.6391V52.2409H27.093V48.6948ZM30.6391 48.6948H34.1852V52.2409H30.6391V48.6948ZM34.1852 48.6948H37.7313V52.2409H34.1852V48.6948ZM37.7313 48.6948H41.2774V52.2409H37.7313V48.6948ZM41.2774 48.6948H44.8235V52.2409H41.2774V48.6948ZM51.9157 48.6948H55.4618V52.2409H51.9157V48.6948ZM59.0079 48.6948H62.554V52.2409H59.0079V48.6948ZM62.554 48.6948H66.1001V52.2409H62.554V48.6948ZM69.6462 48.6948H73.1923V52.2409H69.6462V48.6948ZM73.1923 48.6948H76.7384V52.2409H73.1923V48.6948ZM90.9228 48.6948H94.4689V52.2409H90.9228V48.6948ZM12.9086 52.2409H16.4547V55.787H12.9086V52.2409ZM16.4547 52.2409H20.0008V55.787H16.4547V52.2409ZM20.0008 52.2409H23.5469V55.787H20.0008V52.2409ZM41.2774 52.2409H44.8235V55.787H41.2774V52.2409ZM44.8235 52.2409H48.3696V55.787H44.8235V52.2409ZM48.3696 52.2409H51.9157V55.787H48.3696V52.2409ZM59.0079 52.2409H62.554V55.787H59.0079V52.2409ZM62.554 52.2409H66.1001V55.787H62.554V52.2409ZM69.6462 52.2409H73.1923V55.787H69.6462V52.2409ZM73.1923 52.2409H76.7384V55.787H73.1923V52.2409ZM87.3767 52.2409H90.9228V55.787H87.3767V52.2409ZM90.9228 52.2409H94.4689V55.787H90.9228V52.2409ZM5.81641 55.787H9.36251V59.3331H5.81641V55.787ZM9.36251 55.787H12.9086V59.3331H9.36251V55.787ZM16.4547 55.787H20.0008V59.3331H16.4547V55.787ZM23.5469 55.787H27.093V59.3331H23.5469V55.787ZM27.093 55.787H30.6391V59.3331H27.093V55.787ZM34.1852 55.787H37.7313V59.3331H34.1852V55.787ZM37.7313 55.787H41.2774V59.3331H37.7313V55.787ZM41.2774 55.787H44.8235V59.3331H41.2774V55.787ZM48.3696 55.787H51.9157V59.3331H48.3696V55.787ZM59.0079 55.787H62.554V59.3331H59.0079V55.787ZM62.554 55.787H66.1001V59.3331H62.554V55.787ZM69.6462 55.787H73.1923V59.3331H69.6462V55.787ZM80.2845 55.787H83.8306V59.3331H80.2845V55.787ZM83.8306 55.787H87.3767V59.3331H83.8306V55.787ZM90.9228 55.787H94.4689V59.3331H90.9228V55.787ZM12.9086 59.3331H16.4547V62.8792H12.9086V59.3331ZM16.4547 59.3331H20.0008V62.8792H16.4547V59.3331ZM20.0008 59.3331H23.5469V62.8792H20.0008V59.3331ZM30.6391 59.3331H34.1852V62.8792H30.6391V59.3331ZM41.2774 59.3331H44.8235V62.8792H41.2774V59.3331ZM55.4618 59.3331H59.0079V62.8792H55.4618V59.3331ZM59.0079 59.3331H62.554V62.8792H59.0079V59.3331ZM62.554 59.3331H66.1001V62.8792H62.554V59.3331ZM66.1001 59.3331H69.6462V62.8792H66.1001V59.3331ZM69.6462 59.3331H73.1923V62.8792H69.6462V59.3331ZM73.1923 59.3331H76.7384V62.8792H73.1923V59.3331ZM76.7384 59.3331H80.2845V62.8792H76.7384V59.3331ZM80.2845 59.3331H83.8306V62.8792H80.2845V59.3331ZM5.81641 62.8792H9.36251V66.4253H5.81641V62.8792ZM9.36251 62.8792H12.9086V66.4253H9.36251V62.8792ZM12.9086 62.8792H16.4547V66.4253H12.9086V62.8792ZM20.0008 62.8792H23.5469V66.4253H20.0008V62.8792ZM27.093 62.8792H30.6391V66.4253H27.093V62.8792ZM34.1852 62.8792H37.7313V66.4253H34.1852V62.8792ZM44.8235 62.8792H48.3696V66.4253H44.8235V62.8792ZM62.554 62.8792H66.1001V66.4253H62.554V62.8792ZM66.1001 62.8792H69.6462V66.4253H66.1001V62.8792ZM69.6462 62.8792H73.1923V66.4253H69.6462V62.8792ZM73.1923 62.8792H76.7384V66.4253H73.1923V62.8792ZM76.7384 62.8792H80.2845V66.4253H76.7384V62.8792ZM87.3767 62.8792H90.9228V66.4253H87.3767V62.8792ZM34.1852 66.4253H37.7313V69.9714H34.1852V66.4253ZM37.7313 66.4253H41.2774V69.9714H37.7313V66.4253ZM41.2774 66.4253H44.8235V69.9714H41.2774V66.4253ZM44.8235 66.4253H48.3696V69.9714H44.8235V66.4253ZM51.9157 66.4253H55.4618V69.9714H51.9157V66.4253ZM55.4618 66.4253H59.0079V69.9714H55.4618V66.4253ZM62.554 66.4253H66.1001V69.9714H62.554V66.4253ZM76.7384 66.4253H80.2845V69.9714H76.7384V66.4253ZM90.9228 66.4253H94.4689V69.9714H90.9228V66.4253ZM5.81641 69.9714H9.36251V73.5175H5.81641V69.9714ZM9.36251 69.9714H12.9086V73.5175H9.36251V69.9714ZM12.9086 69.9714H16.4547V73.5175H12.9086V69.9714ZM16.4547 69.9714H20.0008V73.5175H16.4547V69.9714ZM20.0008 69.9714H23.5469V73.5175H20.0008V69.9714ZM23.5469 69.9714H27.093V73.5175H23.5469V69.9714ZM27.093 69.9714H30.6391V73.5175H27.093V69.9714ZM41.2774 69.9714H44.8235V73.5175H41.2774V69.9714ZM44.8235 69.9714H48.3696V73.5175H44.8235V69.9714ZM55.4618 69.9714H59.0079V73.5175H55.4618V69.9714ZM62.554 69.9714H66.1001V73.5175H62.554V69.9714ZM69.6462 69.9714H73.1923V73.5175H69.6462V69.9714ZM76.7384 69.9714H80.2845V73.5175H76.7384V69.9714ZM90.9228 69.9714H94.4689V73.5175H90.9228V69.9714ZM5.81641 73.5175H9.36251V77.0636H5.81641V73.5175ZM27.093 73.5175H30.6391V77.0636H27.093V73.5175ZM37.7313 73.5175H41.2774V77.0636H37.7313V73.5175ZM41.2774 73.5175H44.8235V77.0636H41.2774V73.5175ZM48.3696 73.5175H51.9157V77.0636H48.3696V73.5175ZM51.9157 73.5175H55.4618V77.0636H51.9157V73.5175ZM62.554 73.5175H66.1001V77.0636H62.554V73.5175ZM76.7384 73.5175H80.2845V77.0636H76.7384V73.5175ZM87.3767 73.5175H90.9228V77.0636H87.3767V73.5175ZM5.81641 77.0636H9.36251V80.6097H5.81641V77.0636ZM12.9086 77.0636H16.4547V80.6097H12.9086V77.0636ZM16.4547 77.0636H20.0008V80.6097H16.4547V77.0636ZM20.0008 77.0636H23.5469V80.6097H20.0008V77.0636ZM27.093 77.0636H30.6391V80.6097H27.093V77.0636ZM37.7313 77.0636H41.2774V80.6097H37.7313V77.0636ZM41.2774 77.0636H44.8235V80.6097H41.2774V77.0636ZM55.4618 77.0636H59.0079V80.6097H55.4618V77.0636ZM59.0079 77.0636H62.554V80.6097H59.0079V77.0636ZM62.554 77.0636H66.1001V80.6097H62.554V77.0636ZM66.1001 77.0636H69.6462V80.6097H66.1001V77.0636ZM69.6462 77.0636H73.1923V80.6097H69.6462V77.0636ZM73.1923 77.0636H76.7384V80.6097H73.1923V77.0636ZM76.7384 77.0636H80.2845V80.6097H76.7384V77.0636ZM87.3767 77.0636H90.9228V80.6097H87.3767V77.0636ZM90.9228 77.0636H94.4689V80.6097H90.9228V77.0636ZM5.81641 80.6097H9.36251V84.1558H5.81641V80.6097ZM12.9086 80.6097H16.4547V84.1558H12.9086V80.6097ZM16.4547 80.6097H20.0008V84.1558H16.4547V80.6097ZM20.0008 80.6097H23.5469V84.1558H20.0008V80.6097ZM27.093 80.6097H30.6391V84.1558H27.093V80.6097ZM37.7313 80.6097H41.2774V84.1558H37.7313V80.6097ZM41.2774 80.6097H44.8235V84.1558H41.2774V80.6097ZM44.8235 80.6097H48.3696V84.1558H44.8235V80.6097ZM48.3696 80.6097H51.9157V84.1558H48.3696V80.6097ZM59.0079 80.6097H62.554V84.1558H59.0079V80.6097ZM66.1001 80.6097H69.6462V84.1558H66.1001V80.6097ZM76.7384 80.6097H80.2845V84.1558H76.7384V80.6097ZM83.8306 80.6097H87.3767V84.1558H83.8306V80.6097ZM87.3767 80.6097H90.9228V84.1558H87.3767V80.6097ZM5.81641 84.1558H9.36251V87.7019H5.81641V84.1558ZM12.9086 84.1558H16.4547V87.7019H12.9086V84.1558ZM16.4547 84.1558H20.0008V87.7019H16.4547V84.1558ZM20.0008 84.1558H23.5469V87.7019H20.0008V84.1558ZM27.093 84.1558H30.6391V87.7019H27.093V84.1558ZM34.1852 84.1558H37.7313V87.7019H34.1852V84.1558ZM51.9157 84.1558H55.4618V87.7019H51.9157V84.1558ZM55.4618 84.1558H59.0079V87.7019H55.4618V84.1558ZM59.0079 84.1558H62.554V87.7019H59.0079V84.1558ZM62.554 84.1558H66.1001V87.7019H62.554V84.1558ZM66.1001 84.1558H69.6462V87.7019H66.1001V84.1558ZM73.1923 84.1558H76.7384V87.7019H73.1923V84.1558ZM76.7384 84.1558H80.2845V87.7019H76.7384V84.1558ZM80.2845 84.1558H83.8306V87.7019H80.2845V84.1558ZM87.3767 84.1558H90.9228V87.7019H87.3767V84.1558ZM90.9228 84.1558H94.4689V87.7019H90.9228V84.1558ZM5.81641 87.7019H9.36251V91.248H5.81641V87.7019ZM27.093 87.7019H30.6391V91.248H27.093V87.7019ZM34.1852 87.7019H37.7313V91.248H34.1852V87.7019ZM37.7313 87.7019H41.2774V91.248H37.7313V87.7019ZM41.2774 87.7019H44.8235V91.248H41.2774V87.7019ZM51.9157 87.7019H55.4618V91.248H51.9157V87.7019ZM62.554 87.7019H66.1001V91.248H62.554V87.7019ZM66.1001 87.7019H69.6462V91.248H66.1001V87.7019ZM69.6462 87.7019H73.1923V91.248H69.6462V87.7019ZM73.1923 87.7019H76.7384V91.248H73.1923V87.7019ZM76.7384 87.7019H80.2845V91.248H76.7384V87.7019ZM5.81641 91.248H9.36251V94.7941H5.81641V91.248ZM9.36251 91.248H12.9086V94.7941H9.36251V91.248ZM12.9086 91.248H16.4547V94.7941H12.9086V91.248ZM16.4547 91.248H20.0008V94.7941H16.4547V91.248ZM20.0008 91.248H23.5469V94.7941H20.0008V91.248ZM23.5469 91.248H27.093V94.7941H23.5469V91.248ZM27.093 91.248H30.6391V94.7941H27.093V91.248ZM41.2774 91.248H44.8235V94.7941H41.2774V91.248ZM48.3696 91.248H51.9157V94.7941H48.3696V91.248ZM62.554 91.248H66.1001V94.7941H62.554V91.248ZM69.6462 91.248H73.1923V94.7941H69.6462V91.248ZM80.2845 91.248H83.8306V94.7941H80.2845V91.248ZM90.9228 91.248H94.4689V94.7941H90.9228V91.248Z" fill="black"/>
</svg>
