<svg width="49" height="49" viewBox="0 0 49 49" fill="none" xmlns="http://www.w3.org/2000/svg">
<path fill-rule="evenodd" clip-rule="evenodd" d="M31.5 18.9678C30.9477 18.9678 30.5 19.4155 30.5 19.9678V30.9678H6.5C5.39543 30.9678 4.5 31.8632 4.5 32.9678V40.9678C4.5 42.0723 5.39543 42.9678 6.5 42.9678H42.5C43.6046 42.9678 44.5 42.0723 44.5 40.9678V32.9678C44.5 31.8632 43.6046 30.9678 42.5 30.9678H34.5V19.9678C34.5 19.4155 34.0523 18.9678 33.5 18.9678H31.5ZM8.5 35.9678C8.5 35.4155 8.94772 34.9678 9.5 34.9678H21.5C22.0523 34.9678 22.5 35.4155 22.5 35.9678V37.9678C22.5 38.5201 22.0523 38.9678 21.5 38.9678H9.5C8.94772 38.9678 8.5 38.5201 8.5 37.9678V35.9678Z" fill="#00B586"/>
<path opacity="0.3" fill-rule="evenodd" clip-rule="evenodd" d="M44.7726 14.1106L47.5 11.8888C43.82 7.53681 38.3681 4.96777 32.4926 4.96777C26.6252 4.96777 21.1802 7.52966 17.5 11.8714L20.2248 14.0963C23.2385 10.5408 27.6895 8.44667 32.4926 8.44667C37.3024 8.44667 41.7589 10.5467 44.7726 14.1106ZM38.9267 18.6821L41.5 16.3989C39.297 13.5244 36.0206 11.8249 32.4895 11.8249C28.97 11.8249 25.7032 13.5132 23.5 16.3716L26.0674 18.6625C27.6435 16.6177 29.9733 15.4136 32.4895 15.4136C35.014 15.4136 37.3507 16.6257 38.9267 18.6821Z" fill="#00B586"/>
</svg>
