<svg width="48" height="49" viewBox="0 0 48 49" fill="none" xmlns="http://www.w3.org/2000/svg">
<path fill-rule="evenodd" clip-rule="evenodd" d="M31 18.9678C30.4477 18.9678 30 19.4155 30 19.9678V30.9678H6C4.89543 30.9678 4 31.8632 4 32.9678V40.9678C4 42.0723 4.89543 42.9678 6 42.9678H42C43.1046 42.9678 44 42.0723 44 40.9678V32.9678C44 31.8632 43.1046 30.9678 42 30.9678H34V19.9678C34 19.4155 33.5523 18.9678 33 18.9678H31ZM8 35.9678C8 35.4155 8.44772 34.9678 9 34.9678H21C21.5523 34.9678 22 35.4155 22 35.9678V37.9678C22 38.5201 21.5523 38.9678 21 38.9678H9C8.44772 38.9678 8 38.5201 8 37.9678V35.9678Z" fill="#00B586"/>
<path opacity="0.3" fill-rule="evenodd" clip-rule="evenodd" d="M44.2726 14.1106L47 11.8888C43.32 7.53681 37.8681 4.96777 31.9926 4.96777C26.1252 4.96777 20.6802 7.52966 17 11.8714L19.7248 14.0963C22.7385 10.5408 27.1895 8.44667 31.9926 8.44667C36.8024 8.44667 41.2589 10.5467 44.2726 14.1106ZM38.4267 18.6821L41 16.3989C38.797 13.5244 35.5206 11.8249 31.9895 11.8249C28.47 11.8249 25.2032 13.5132 23 16.3716L25.5674 18.6625C27.1435 16.6177 29.4733 15.4136 31.9895 15.4136C34.514 15.4136 36.8507 16.6257 38.4267 18.6821Z" fill="#00B586"/>
</svg>
