<svg width="16" height="16" viewBox="0 0 16 16" fill="none" xmlns="http://www.w3.org/2000/svg">
<path opacity="0.3" fill-rule="evenodd" clip-rule="evenodd" d="M8.08063 14.0079C11.3612 14.0079 14.0206 11.3485 14.0206 8.06793C14.0206 4.78736 11.3612 2.12793 8.08063 2.12793C4.80005 2.12793 2.14062 4.78736 2.14062 8.06793C2.14062 11.3485 4.80005 14.0079 8.08063 14.0079Z" fill="#E6E6E6"/>
<path fill-rule="evenodd" clip-rule="evenodd" d="M7.90523 14.0055C4.70533 13.9132 2.13965 11.2903 2.13965 8.06803C2.13965 8.01314 2.14039 7.95843 2.14187 7.9039C2.57679 7.94549 3.36485 8.0399 3.40198 8.3455C3.45337 8.76824 3.40198 9.29668 3.76196 9.4552C4.12194 9.61372 4.2248 8.82105 4.5333 9.03246C4.84181 9.24387 5.66462 9.44737 5.66462 9.82113C5.66462 10.1948 5.51037 10.7763 5.66462 10.882C5.81887 10.9877 6.43557 11.7275 6.43573 11.8332C6.43596 11.9389 6.65311 12.4764 6.58831 12.6819C6.53462 12.8522 6.26371 13.3811 6.00104 13.6216C6.59673 13.851 7.23721 13.9854 7.90525 14.0054L7.90523 14.0055ZM5.6261 2.65667C6.37395 2.31706 7.20464 2.12793 8.0795 2.12793C10.3971 2.12793 12.4046 3.45517 13.3836 5.39102C13.4055 5.90585 13.4016 6.34622 13.5153 6.50554C14.0942 7.31556 12.1052 7.87278 12.4073 9.09789C12.5404 9.63839 11.0843 9.46692 10.7287 9.97295C10.3729 10.4787 9.50342 10.1389 9.30182 10.0417C9.10022 9.94443 8.32808 10.2685 8.39558 9.71761C8.46267 9.16659 8.93241 9.13423 9.43617 8.90742C9.93969 8.68085 10.666 7.92746 10.3091 7.82901C8.62882 7.36585 8.05558 5.74376 8.05558 5.74376C7.95479 5.72428 7.98008 4.59705 7.54381 4.5647C7.10715 4.53218 6.872 4.69428 6.23437 4.5647C5.59634 4.43511 5.73085 4.01384 5.63005 3.10642C5.60749 2.90287 5.60858 2.75966 5.6261 2.65667ZM14.0193 7.98672C14.0197 8.01373 14.0199 8.04078 14.0199 8.06788C14.0199 11.3287 11.3923 13.9759 8.13895 14.0076C11.3602 13.9751 13.9761 11.2942 14.0193 7.98672V7.98672Z" fill="#E6E6E6"/>
</svg>
