<svg width="24" height="25" viewBox="0 0 24 25" fill="none" xmlns="http://www.w3.org/2000/svg">
<path opacity="0.3" fill-rule="evenodd" clip-rule="evenodd" d="M12 21.5C16.9706 21.5 21 17.4706 21 12.5C21 7.52944 16.9706 3.5 12 3.5C7.02944 3.5 3 7.52944 3 12.5C3 17.4706 7.02944 21.5 12 21.5Z" fill="#171717"/>
<path fill-rule="evenodd" clip-rule="evenodd" d="M11.7357 21.4962C6.8874 21.3564 3 17.3822 3 12.5C3 12.4168 3.00113 12.3339 3.00337 12.2513C3.66233 12.3143 4.85637 12.4574 4.91263 12.9204C4.99049 13.5609 4.91263 14.3616 5.45805 14.6018C6.00346 14.8419 6.15932 13.6409 6.62675 13.9613C7.09418 14.2816 8.34087 14.5899 8.34087 15.1562C8.34087 15.7224 8.10715 16.6035 8.34087 16.7636C8.57458 16.9238 9.50897 18.0447 9.50921 18.2048C9.50957 18.365 9.83857 19.1794 9.7404 19.4907C9.65905 19.7487 9.24858 20.5502 8.8506 20.9146C9.75315 21.2621 10.7236 21.4658 11.7358 21.4961L11.7357 21.4962ZM8.28273 4.30112C9.41584 3.78656 10.6745 3.5 12 3.5C15.5115 3.5 18.5532 5.51097 20.0364 8.44408C20.0697 9.22412 20.0638 9.89135 20.2361 10.1327C21.1132 11.3601 18.0995 12.2043 18.5573 14.0605C18.759 14.8795 16.5528 14.6197 16.014 15.3864C15.4748 16.1527 14.1575 15.6378 13.852 15.4905C13.5466 15.3432 12.3766 15.8342 12.4789 14.9995C12.5806 14.1646 13.2923 14.1156 14.0556 13.772C14.8185 13.4287 15.9189 12.2872 15.3782 12.138C12.8323 11.4362 11.9638 8.97852 11.9638 8.97852C11.811 8.94901 11.8494 7.24109 11.1884 7.19207C10.5267 7.1428 10.1705 7.38841 9.20436 7.19207C8.23765 6.99573 8.44144 6.35744 8.28872 4.98256C8.25454 4.67416 8.25619 4.45717 8.28273 4.30112ZM20.9992 12.377C20.9997 12.418 21 12.4589 21 12.5C21 17.4407 17.0188 21.4515 12.0895 21.4996C16.9702 21.4503 20.9337 17.3884 20.9992 12.377Z" fill="#171717"/>
</svg>
