<svg width="20" height="20" viewBox="0 0 20 20" fill="none" xmlns="http://www.w3.org/2000/svg">
<path opacity="0.3" fill-rule="evenodd" clip-rule="evenodd" d="M9.9334 17.4176C13.9098 17.4176 17.1334 14.194 17.1334 10.2176C17.1334 6.24113 13.9098 3.01758 9.9334 3.01758C5.95695 3.01758 2.7334 6.24113 2.7334 10.2176C2.7334 14.194 5.95695 17.4176 9.9334 17.4176Z" fill="#E6E6E6"/>
<path fill-rule="evenodd" clip-rule="evenodd" d="M9.72296 17.4138C5.8443 17.3019 2.73438 14.1226 2.73438 10.2168C2.73438 10.1503 2.73528 10.084 2.73707 10.0179C3.26424 10.0683 4.21947 10.1827 4.26448 10.5531C4.32677 11.0656 4.26448 11.7061 4.70081 11.8982C5.13715 12.0904 5.26183 11.1296 5.63577 11.3858C6.00972 11.6421 7.00707 11.8888 7.00707 12.3418C7.00707 12.7947 6.8201 13.4996 7.00707 13.6277C7.19404 13.7558 7.94155 14.6525 7.94174 14.7807C7.94203 14.9088 8.20524 15.5603 8.1267 15.8093C8.06162 16.0158 7.73324 16.6569 7.41485 16.9485C8.1369 17.2265 8.91324 17.3894 9.72299 17.4137L9.72296 17.4138ZM6.95959 3.65799C7.86608 3.24634 8.87297 3.01709 9.93341 3.01709C12.7426 3.01709 15.176 4.62587 16.3626 6.97236C16.3891 7.59639 16.3845 8.13017 16.5223 8.32328C17.224 9.30513 14.813 9.98054 15.1793 11.4655C15.3406 12.1207 13.5756 11.9128 13.1446 12.5262C12.7133 13.1393 11.6594 12.7273 11.415 12.6095C11.1707 12.4916 10.2347 12.8844 10.3165 12.2167C10.3979 11.5488 10.9672 11.5096 11.5779 11.2347C12.1882 10.96 13.0685 10.0468 12.636 9.92749C10.5993 9.36608 9.90443 7.39991 9.90443 7.39991C9.78224 7.3763 9.81291 6.00996 9.2841 5.97075C8.75481 5.93133 8.46978 6.12782 7.69689 5.97075C6.92353 5.81367 7.08656 5.30304 6.96438 4.20314C6.93704 3.95642 6.93836 3.78283 6.95959 3.65799ZM17.134 10.1187C17.1344 10.1514 17.1346 10.1842 17.1346 10.217C17.1346 14.1696 13.9497 17.3783 10.0062 17.4167C13.9108 17.3773 17.0816 14.1278 17.134 10.1187Z" fill="#E6E6E6"/>
</svg>
