<svg width="49" height="48" viewBox="0 0 49 48" fill="none" xmlns="http://www.w3.org/2000/svg">
<path opacity="0.3" fill-rule="evenodd" clip-rule="evenodd" d="M12.7666 22.1721L6.07512 28.8636C5.08493 29.8538 5.08493 31.4592 6.07512 32.4494L8.59579 34.9701C10.5371 33.684 13.1784 33.8962 14.8888 35.6066C16.5992 37.317 16.8114 39.9583 15.5253 41.8996L18.0457 44.42C19.0359 45.4101 20.6413 45.4101 21.6315 44.42L28.3236 37.7279L25.4954 34.8997C24.7143 34.1186 24.7143 32.8523 25.4954 32.0712C26.2764 31.2902 27.5428 31.2902 28.3238 32.0712L31.152 34.8994L44.9157 21.1357C45.9059 20.1455 45.9059 18.5401 44.9157 17.5499L42.3964 15.0305C40.4552 16.3156 37.8148 16.1031 36.1048 14.3931C34.3948 12.6831 34.1823 10.0427 35.4673 8.10148L32.9452 5.57933C31.955 4.58914 30.3496 4.58914 29.3594 5.57932L15.595 19.3437L18.4229 22.1716C19.204 22.9526 19.204 24.219 18.4229 25C17.6419 25.7811 16.3756 25.7811 15.5945 25L12.7666 22.1721ZM19.84 29.2418C19.0589 28.4607 19.0589 27.1944 19.84 26.4133C20.621 25.6323 21.8873 25.6323 22.6684 26.4133L24.0826 27.8275C24.8636 28.6086 24.8636 29.8749 24.0826 30.656C23.3015 31.437 22.0352 31.437 21.2542 30.656L19.84 29.2418Z" fill="black"/>
</svg>
