<svg width="25" height="26" viewBox="0 0 25 26" fill="none" xmlns="http://www.w3.org/2000/svg">
<g clip-path="url(#clip0_484_111627)">
<path d="M17.9585 0.467773H13.6425V17.4967C13.6425 19.5258 11.9825 21.1924 9.91674 21.1924C7.85097 21.1924 6.19098 19.5258 6.19098 17.4967C6.19098 15.504 7.81408 13.8735 9.8061 13.8011V9.52576C5.41632 9.59819 1.875 13.1127 1.875 17.4967C1.875 21.9171 5.49009 25.4678 9.95365 25.4678C14.4171 25.4678 18.0322 21.8808 18.0322 17.4967V8.76486C19.6554 9.9243 21.6473 10.6127 23.75 10.649V6.37357C20.5038 6.26488 17.9585 3.65618 17.9585 0.467773Z" fill="black"/>
</g>
<defs>
<clipPath id="clip0_484_111627">
<rect width="25" height="25" fill="white" transform="translate(0 0.467773)"/>
</clipPath>
</defs>
</svg>
