<svg width="25" height="26" viewBox="0 0 25 26" fill="none" xmlns="http://www.w3.org/2000/svg">
<path d="M21.9344 7.94772C21.944 8.16773 21.944 8.37773 21.944 8.59773C21.9537 15.2677 17.0532 22.9678 8.09149 22.9678C5.44831 22.9678 2.85337 22.1778 0.625 20.6978C1.01087 20.7478 1.39673 20.7678 1.7826 20.7678C3.97238 20.7678 6.10428 20.0078 7.83103 18.5978C5.74736 18.5578 3.9145 17.1478 3.27782 15.0877C4.01097 15.2377 4.7634 15.2077 5.47725 14.9977C3.2103 14.5377 1.58002 12.4677 1.57037 10.0577C1.57037 10.0377 1.57037 10.0177 1.57037 9.99773C2.24563 10.3877 3.00772 10.6077 3.77945 10.6277C1.64754 9.14773 0.981925 6.19772 2.27457 3.88771C4.75376 7.04772 8.40018 8.95773 12.3167 9.16773C11.9212 7.41772 12.4614 5.57772 13.7251 4.33771C15.6834 2.42771 18.7703 2.52771 20.6225 4.55771C21.7125 4.33771 22.764 3.91771 23.719 3.32771C23.3525 4.49771 22.5904 5.48772 21.5775 6.11772C22.5421 5.99772 23.4875 5.72772 24.375 5.32772C23.719 6.34772 22.8894 7.22772 21.9344 7.94772Z" fill="black"/>
</svg>
