<svg width="48" height="49" viewBox="0 0 48 49" fill="none" xmlns="http://www.w3.org/2000/svg">
<path opacity="0.3" fill-rule="evenodd" clip-rule="evenodd" d="M8.00098 8.96777H40.001C42.2101 8.96777 44.001 10.7586 44.001 12.9678V36.9678C44.001 39.1769 42.2101 40.9678 40.001 40.9678H8.00098C5.79184 40.9678 4.00098 39.1769 4.00098 36.9678V12.9678C4.00098 10.7586 5.79184 8.96777 8.00098 8.96777Z" fill="black"/>
<path fill-rule="evenodd" clip-rule="evenodd" d="M37.0029 22.9678H11.0029C9.34608 22.9678 8.00293 24.3109 8.00293 25.9678V26.9678H17.1745C17.7049 26.9678 18.2136 27.1785 18.5887 27.5536L20.5887 29.5536C21.4942 30.4591 22.7224 30.9678 24.0029 30.9678C25.2835 30.9678 26.5116 30.4591 27.4171 29.5536L29.4171 27.5536C29.7922 27.1785 30.3009 26.9678 30.8314 26.9678H40.0029V25.9678C40.0029 24.3109 38.6598 22.9678 37.0029 22.9678Z" fill="black"/>
<path fill-rule="evenodd" clip-rule="evenodd" d="M11.0029 12.9678C9.34608 12.9678 8.00293 14.3109 8.00293 15.9678V16.9678H40.0029V15.9678C40.0029 14.3109 38.6598 12.9678 37.0029 12.9678H11.0029Z" fill="black"/>
</svg>
