<svg width="25" height="26" viewBox="0 0 25 26" fill="none" xmlns="http://www.w3.org/2000/svg">
<path d="M24.4851 6.95664C24.1968 5.88581 23.3525 5.04149 22.2816 4.75319C20.3253 4.21777 12.4999 4.21777 12.4999 4.21777C12.4999 4.21777 4.67461 4.21777 2.71827 4.7326C1.66803 5.0209 0.803127 5.88581 0.514825 6.95664C0 8.91297 0 12.9698 0 12.9698C0 12.9698 0 17.0472 0.514825 18.9829C0.803127 20.0538 1.64744 20.8981 2.71827 21.1864C4.6952 21.7218 12.4999 21.7218 12.4999 21.7218C12.4999 21.7218 20.3253 21.7218 22.2816 21.207C23.3525 20.9187 24.1968 20.0744 24.4851 19.0035C24.9999 17.0472 24.9999 12.9904 24.9999 12.9904C24.9999 12.9904 25.0205 8.91297 24.4851 6.95664Z" fill="black"/>
<path d="M10.0068 16.7175L16.5142 12.9696L10.0068 9.22168V16.7175Z" fill="white"/>
</svg>
